<?xml version="1.0" encoding="UTF-8"?>
<svg width="1440px" height="700px" viewBox="0 0 1440 700" version="1.1" xmlns="http://www.w3.org/2000/svg" xmlns:xlink="http://www.w3.org/1999/xlink">
    <!-- Generator: Sketch 59.1 (86144) - https://sketch.com -->
    <title>3-2</title>
    <desc>Created with Sketch.</desc>
    <g id="3-2" stroke="none" stroke-width="1" fill="none" fill-rule="evenodd">
        <rect fill="#000000" x="0" y="0" width="1440" height="700"></rect>
        <rect id="Rectangle" fill="#000000" x="600.818642" y="303" width="92" height="91" rx="4"></rect>
        <rect id="Rectangle-Copy-3" fill="#FF6347" x="702.818642" y="303" width="92" height="91" rx="4"></rect>
        <rect id="Rectangle-Copy-12" fill="#FF6347" x="803.818642" y="303" width="91" height="91" rx="4"></rect>
        <rect id="Rectangle-Copy-29" fill="#FF6347" x="94.8186416" y="303" width="91" height="91" rx="4"></rect>
        <rect id="Rectangle-Copy-72" fill="#FF6347" x="-7.18135838" y="303" width="92" height="91" rx="4"></rect>
        <rect id="Rectangle-Copy-4" fill="#FF6347" x="498.818642" y="303" width="92" height="91" rx="4"></rect>
        <rect id="Rectangle-Copy-36" fill="#FF6347" x="296.818642" y="303" width="92" height="91" rx="4"></rect>
        <rect id="Rectangle-Copy-17" fill="#FF6347" x="397.818642" y="303" width="92" height="91" rx="4"></rect>
        <rect id="Rectangle-Copy-41" fill="#FF6347" x="195.818642" y="303" width="92" height="91" rx="4"></rect>
        <rect id="Rectangle-Copy" fill="#FF6347" x="600.818642" y="200" width="92" height="92" rx="4"></rect>
        <rect id="Rectangle-Copy-6" fill="#FF6347" x="498.818642" y="200" width="92" height="92" rx="4"></rect>
        <rect id="Rectangle-Copy-18" fill="#FF6347" x="397.818642" y="200" width="92" height="92" rx="4"></rect>
        <rect id="Rectangle-Copy-5" fill="#FF6347" x="702.818642" y="200" width="92" height="92" rx="4"></rect>
        <rect id="Rectangle-Copy-13" fill="#FF6347" x="803.818642" y="200" width="91" height="92" rx="4"></rect>
        <rect id="Rectangle-Copy-73" fill="#FF6347" x="-7.18135838" y="200" width="92" height="92" rx="4"></rect>
        <rect id="Rectangle-Copy-9" fill="#FF6347" x="600.818642" y="99" width="92" height="92" rx="4"></rect>
        <rect id="Rectangle-Copy-10" fill="#FF6347" x="498.818642" y="99" width="92" height="92" rx="4"></rect>
        <rect id="Rectangle-Copy-19" fill="#FF6347" x="397.818642" y="99" width="92" height="92" rx="4"></rect>
        <rect id="Rectangle-Copy-11" fill="#FF6347" x="702.818642" y="99" width="92" height="92" rx="4"></rect>
        <rect id="Rectangle-Copy-14" fill="#FF6347" x="803.818642" y="99" width="91" height="92" rx="4"></rect>
        <rect id="Rectangle-Copy-74" fill="#FF6347" x="-7.18135838" y="99" width="92" height="92" rx="4"></rect>
        <rect id="Rectangle-Copy-2" fill="#FF6347" x="600.818642" y="405" width="92" height="92" rx="4"></rect>
        <rect id="Rectangle-Copy-8" fill="#FF6347" x="498.818642" y="405" width="92" height="92" rx="4"></rect>
        <rect id="Rectangle-Copy-60" fill="#FF6347" x="296.818642" y="405" width="92" height="92" rx="4"></rect>
        <rect id="Rectangle-Copy-20" fill="#FF6347" x="397.818642" y="405" width="92" height="92" rx="4"></rect>
        <rect id="Rectangle-Copy-61" fill="#FF6347" x="195.818642" y="405" width="92" height="92" rx="4"></rect>
        <rect id="Rectangle-Copy-7" fill="#FF6347" x="702.818642" y="405" width="92" height="92" rx="4"></rect>
        <rect id="Rectangle-Copy-15" fill="#FF6347" transform="translate(849.318642, 451.000000) scale(-1, 1) translate(-849.318642, -451.000000) " x="803.818642" y="405" width="91" height="92" rx="4"></rect>
        <rect id="Rectangle-Copy-62" fill="#FF6347" x="94.8186416" y="405" width="91" height="92" rx="4"></rect>
        <rect id="Rectangle-Copy-75" fill="#FF6347" x="-7.18135838" y="405" width="92" height="92" rx="4"></rect>
        <rect id="Rectangle-Copy-22" fill="#FF6347" x="600.818642" y="-3" width="92" height="92" rx="4"></rect>
        <rect id="Rectangle-Copy-23" fill="#FF6347" x="498.818642" y="-3" width="92" height="92" rx="4"></rect>
        <rect id="Rectangle-Copy-24" fill="#FF6347" x="397.818642" y="-3" width="92" height="92" rx="4"></rect>
        <rect id="Rectangle-Copy-25" fill="#FF6347" x="702.818642" y="-3" width="92" height="92" rx="4"></rect>
        <rect id="Rectangle-Copy-26" fill="#FF6347" x="803.818642" y="-3" width="91" height="92" rx="4"></rect>
        <rect id="Rectangle-Copy-76" fill="#FF6347" x="-7.18135838" y="-3" width="92" height="92" rx="4"></rect>
        <g id="Group-5" transform="translate(609.818642, 324.000000)">
            <path d="M24.4864688,15.6060702 C17.5157717,11.99033 13.4237074,11.9309947 6.90291329,19.2218105 C0.382119209,26.5126263 4.09335272,33.564247 4.09335272,38.8691869 C4.09335272,42.4058136 4.09335272,46.3893087 4.09335272,50.8196721 C8.45672786,49.8567109 12.9464243,45.8732158 17.5624421,38.8691869 C24.4864688,28.3631436 31.457166,19.2218105 24.4864688,15.6060702 Z" id="Path-12" fill="#FFFAF0"></path>
            <path d="M63.9923698,1.70995192 C59.3337589,-0.824577638 56.5989771,-0.866169918 52.2410424,4.24448148 C47.8831077,9.35513288 50.3633751,14.2981154 50.3633751,18.0167252 C50.3633751,20.4957984 50.3633751,23.2881134 50.3633751,26.3936703 C53.2794776,25.7186623 56.2800024,22.9263472 59.3649493,18.0167252 C63.9923698,10.6522921 68.6509808,4.24448148 63.9923698,1.70995192 Z" id="Path-12-Copy" fill="#FFFAF0" transform="translate(57.791667, 13.213115) scale(-1, 1) rotate(90.000000) translate(-57.791667, -13.213115) "></path>
            <path d="M17.9446916,6.69765199 C28.7562716,11.593815 35.0412983,18.0734445 36.7997718,26.1365404 C38.5582452,34.1996363 40.2160613,43.4394309 41.7732198,53.8559243 L41.7732198,60.5535763 C44.9651524,62.4821412 47.5761823,62.4821412 49.6063096,60.5535763 C51.6364369,58.6250113 49.9125265,49.8900945 44.4345785,34.348826 C52.0481622,26.7174147 59.2827646,22.901709 66.1383857,22.901709 C72.9940067,22.901709 73.821702,22.0570275 68.6214715,20.3676643 C54.9788791,24.2135817 47.0935224,26.1365404 44.9654014,26.1365404 C42.8372804,26.1365404 36.698508,17.4243602 26.5490842,0 C23.8483115,0.93313641 23.8483115,3.16568707 26.5490842,6.69765199 C30.6002433,11.9955994 14.4465422,0 7.92685018,0 C3.58038886,0 6.91966934,2.23255066 17.9446916,6.69765199 Z" id="Path-13" fill="#FFFAF0"></path>
            <path d="M36.0845256,27.411788 C33.6936583,11.2316421 22.4085439,13.6858487 2.22918241,34.7744077" id="Path-14" stroke="#FFFAF0" stroke-width="2" transform="translate(19.156854, 25.824660) rotate(-26.000000) translate(-19.156854, -25.824660) "></path>
            <path d="M42.4560192,28.4590164 C40.2867715,25.7081747 42.0982672,21.1301108 47.8905063,14.7248245 C53.6827455,8.31953831 59.01091,6.58096062 63.875,9.50909147" id="Path-15" stroke="#FFFAF0" stroke-width="2"></path>
        </g>
        <rect id="Rectangle-Copy-65" fill="#FF6347" opacity="0" x="94.8186416" y="-3" width="294" height="92" rx="4"></rect>
        <rect id="Rectangle-Copy-59" fill="#FF6347" opacity="0" x="94.8186416" y="99" width="296" height="194" rx="4"></rect>
        <rect id="Rectangle-Copy-27" fill="#FF6347" x="1107.81864" y="303" width="92" height="91" rx="4"></rect>
        <rect id="Rectangle-Copy-30" fill="#FF6347" x="1310.81864" y="303" width="92" height="91" rx="4"></rect>
        <rect id="Rectangle-Copy-28" fill="#FF6347" x="1208.81864" y="303" width="91" height="91" rx="4"></rect>
        <rect id="Rectangle-Copy-31" fill="#FF6347" x="1412.81864" y="303" width="91" height="91" rx="4"></rect>
        <rect id="Rectangle-Copy-32" fill="#FF6347" x="1107.81864" y="200" width="92" height="92" rx="4"></rect>
        <rect id="Rectangle-Copy-33" fill="#FF6347" x="1310.81864" y="200" width="92" height="92" rx="4"></rect>
        <rect id="Rectangle-Copy-35" fill="#FF6347" x="1208.81864" y="200" width="91" height="92" rx="4"></rect>
        <rect id="Rectangle-Copy-38" fill="#FF6347" x="1412.81864" y="200" width="91" height="92" rx="4"></rect>
        <rect id="Rectangle-Copy-37" fill="#FF6347" x="1107.81864" y="99" width="92" height="92" rx="4"></rect>
        <rect id="Rectangle-Copy-39" fill="#FF6347" x="1310.81864" y="99" width="92" height="92" rx="4"></rect>
        <rect id="Rectangle-Copy-40" fill="#FF6347" x="1208.81864" y="99" width="91" height="92" rx="4"></rect>
        <rect id="Rectangle-Copy-43" fill="#FF6347" x="1412.81864" y="99" width="91" height="92" rx="4"></rect>
        <rect id="Rectangle-Copy-42" fill="#FF6347" x="1107.81864" y="405" width="92" height="92" rx="4"></rect>
        <rect id="Rectangle-Copy-44" fill="#FF6347" x="1310.81864" y="405" width="92" height="92" rx="4"></rect>
        <rect id="Rectangle-Copy-45" fill="#FF6347" x="1208.81864" y="405" width="91" height="92" rx="4"></rect>
        <rect id="Rectangle-Copy-46" fill="#FF6347" x="1412.81864" y="405" width="91" height="92" rx="4"></rect>
        <rect id="Rectangle-Copy-47" fill="#FF6347" x="1107.81864" y="506" width="92" height="92" rx="4"></rect>
        <rect id="Rectangle-Copy-48" fill="#FF6347" x="1310.81864" y="506" width="92" height="92" rx="4"></rect>
        <rect id="Rectangle-Copy-22" fill="#FF6347" x="1107.81864" y="608" width="92" height="92" rx="4"></rect>
        <rect id="Rectangle-Copy-34" fill="#FF6347" x="1310.81864" y="608" width="92" height="92" rx="4"></rect>
        <rect id="Rectangle-Copy-25" fill="#FF6347" x="1207.81864" y="608" width="92" height="92" rx="4"></rect>
        <rect id="Rectangle-Copy-49" fill="#FF6347" x="1411.81864" y="608" width="92" height="92" rx="4"></rect>
        <rect id="Rectangle-Copy-51" fill="#FF6347" x="1208.81864" y="-3" width="91" height="92" rx="4"></rect>
        <rect id="Rectangle-Copy-52" fill="#FF6347" x="1412.81864" y="-3" width="91" height="92" rx="4"></rect>
        <rect id="Rectangle-Copy-53" fill="#FF6347" x="1310.81864" y="-3" width="91" height="92" rx="4"></rect>
        <rect id="Rectangle-Copy-55" fill="#FF6347" x="1208.81864" y="506" width="91" height="92" rx="4"></rect>
        <rect id="Rectangle-Copy-56" fill="#FF6347" x="1412.81864" y="506" width="91" height="92" rx="4"></rect>
        <rect id="Rectangle-Copy-30" fill="#FF6347" x="1005.81864" y="303" width="92" height="91" rx="4"></rect>
        <rect id="Rectangle-Copy-31" fill="#FF6347" x="904.818642" y="303" width="92" height="91" rx="4"></rect>
        <rect id="Rectangle-Copy-33" fill="#FF6347" x="1005.81864" y="200" width="92" height="92" rx="4"></rect>
        <rect id="Rectangle-Copy-34" fill="#FF6347" x="904.818642" y="200" width="92" height="92" rx="4"></rect>
        <rect id="Rectangle-Copy-38" fill="#FF6347" x="1005.81864" y="99" width="92" height="92" rx="4"></rect>
        <rect id="Rectangle-Copy-39" fill="#FF6347" x="904.818642" y="99" width="92" height="92" rx="4"></rect>
        <rect id="Rectangle-Copy-43" fill="#FF6347" x="1005.81864" y="405" width="92" height="92" rx="4"></rect>
        <rect id="Rectangle-Copy-44" fill="#FF6347" x="904.818642" y="405" width="92" height="92" rx="4"></rect>
        <rect id="Rectangle-Copy-2" fill="#FF6347" x="600.818642" y="506" width="92" height="92" rx="4"></rect>
        <g id="Group" transform="translate(396.818642, 608.000000)" fill="#FF6347">
            <rect id="Rectangle-Copy-22" x="203.265306" y="0" width="92.4857143" height="92" rx="4"></rect>
            <rect id="Rectangle-Copy-23" x="101.632653" y="0" width="92.4857143" height="92" rx="4"></rect>
            <rect id="Rectangle-Copy-24" x="0" y="0" width="92.4857143" height="92" rx="4"></rect>
            <rect id="Rectangle-Copy-25" x="303.881633" y="0" width="92.4857143" height="92" rx="4"></rect>
            <rect id="Rectangle-Copy-26" x="405.514286" y="0" width="92.4857143" height="92" rx="4"></rect>
        </g>
        <rect id="Rectangle-Copy-23" fill="#FF6347" x="1005.81864" y="608" width="92" height="92" rx="4"></rect>
        <rect id="Rectangle-Copy-24" fill="#FF6347" x="904.818642" y="608" width="92" height="92" rx="4"></rect>
        <rect id="Rectangle-Copy-48" fill="#FF6347" x="1107.81864" y="-3" width="92" height="92" rx="4"></rect>
        <rect id="Rectangle-Copy-49" fill="#FF6347" x="1005.81864" y="-3" width="92" height="92" rx="4"></rect>
        <rect id="Rectangle-Copy-50" fill="#FF6347" x="904.818642" y="-3" width="92" height="92" rx="4"></rect>
        <rect id="Rectangle-Copy-8" fill="#FF6347" x="498.818642" y="506" width="92" height="92" rx="4"></rect>
        <rect id="Rectangle-Copy-53" fill="#FF6347" x="1005.81864" y="506" width="92" height="92" rx="4"></rect>
        <rect id="Rectangle-Copy-66" fill="#FF6347" x="296.818642" y="506" width="92" height="92" rx="4"></rect>
        <rect id="Rectangle-Copy-69" fill="#FF6347" x="296.818642" y="608" width="92" height="92" rx="4"></rect>
        <rect id="Rectangle-Copy-21" fill="#FF6347" x="397.818642" y="506" width="92" height="92" rx="4"></rect>
        <rect id="Rectangle-Copy-54" fill="#FF6347" x="904.818642" y="506" width="92" height="92" rx="4"></rect>
        <rect id="Rectangle-Copy-67" fill="#FF6347" x="195.818642" y="506" width="92" height="92" rx="4"></rect>
        <rect id="Rectangle-Copy-70" fill="#FF6347" x="195.818642" y="608" width="92" height="92" rx="4"></rect>
        <rect id="Rectangle-Copy-7" fill="#FF6347" x="702.818642" y="506" width="92" height="92" rx="4"></rect>
        <rect id="Rectangle-Copy-16" fill="#FF6347" x="803.818642" y="506" width="91" height="92" rx="4"></rect>
        <rect id="Rectangle-Copy-68" fill="#FF6347" x="94.8186416" y="506" width="91" height="92" rx="4"></rect>
        <rect id="Rectangle-Copy-77" fill="#FF6347" x="-7.18135838" y="506" width="92" height="92" rx="4"></rect>
        <rect id="Rectangle-Copy-71" fill="#FF6347" x="94.8186416" y="608" width="91" height="92" rx="4"></rect>
        <rect id="Rectangle-Copy-78" fill="#FF6347" x="-7.18135838" y="608" width="92" height="92" rx="4"></rect>
        <text id="Monoculture-Cacao" font-family="Gopher-Bold, Gopher" font-size="22" font-weight="bold" fill="#FFFAF0">
            <tspan x="113" y="57">Monoculture Cacao</tspan>
        </text>
        <text id="Second-type-of-defor" font-family="Courier-Bold, Courier" font-size="12" font-weight="bold" line-spacing="14">
            <tspan x="109" y="115" fill="#FF6347">Second type </tspan>
            <tspan x="195.414062" y="115" font-family="Courier" font-weight="normal" fill="#FFFAF0">of deforestation took </tspan>
            <tspan x="109" y="129" font-family="Courier" font-weight="normal" fill="#FFFAF0">place at the beginning of each </tspan>
            <tspan x="109" y="143" font-family="Courier" font-weight="normal" fill="#FFFAF0">cultivation process. Most cocoa is </tspan>
            <tspan x="109" y="157" font-family="Courier" font-weight="normal" fill="#FFFAF0">grown in monocultures with little or </tspan>
            <tspan x="109" y="171" font-family="Courier" font-weight="normal" fill="#FFFAF0">no shade which is known as the full-</tspan>
            <tspan x="109" y="185" font-family="Courier" font-weight="normal" fill="#FFFAF0">sun system, requiring the removal of </tspan>
            <tspan x="109" y="199" font-family="Courier" font-weight="normal" fill="#FFFAF0">all surrounding trees either at the </tspan>
            <tspan x="109" y="213" font-family="Courier" font-weight="normal" fill="#FFFAF0">beginning or gradually during the </tspan>
            <tspan x="109" y="227" font-family="Courier" font-weight="normal" fill="#FFFAF0">growing phrase.</tspan>
        </text>
    </g>
</svg>