<?xml version="1.0" encoding="UTF-8"?>
<svg width="1440px" height="700px" viewBox="0 0 1440 700" version="1.1" xmlns="http://www.w3.org/2000/svg" xmlns:xlink="http://www.w3.org/1999/xlink">
    <!-- Generator: Sketch 59.1 (86144) - https://sketch.com -->
    <title>commpanies</title>
    <desc>Created with Sketch.</desc>
    <g id="commpanies" stroke="none" stroke-width="1" fill="none" fill-rule="evenodd">
        <rect fill="#000000" x="0" y="0" width="1440" height="700"></rect>
        <text id="Following-graph-show" font-family="Courier" font-size="12" font-weight="normal" fill="#FFFAF0">
            <tspan x="30" y="89">Following graph showcases whether leading </tspan>
            <tspan x="30" y="103">confectionery companies have made </tspan>
            <tspan x="30" y="117">commitments towards deforestation and </tspan>
            <tspan x="30" y="131">sustainable cocoa plantation or not.</tspan>
        </text>
        <text id="Commitment-to-The-Fo" font-family="Gopher-Bold, Gopher" font-size="22" font-weight="bold" fill="#FFFAF0">
            <tspan x="30" y="62">Commitment to The Forest</tspan>
        </text>
        <text id="Agroforestry-Alterna" font-family="Calibre-Medium, Calibre" font-size="16" font-weight="400" fill="#FFFAF0">
            <tspan x="491" y="237.5">Agroforestry</tspan>
            <tspan x="491" y="253.5">Alternative</tspan>
        </text>
        <text id="M" font-family="Calibre-Medium, Calibre" font-size="16" font-weight="400" fill="#FFFAF0">
            <tspan x="534.056" y="308.5">M</tspan>
        </text>
        <text id="M-Copy-2" font-family="Calibre-Medium, Calibre" font-size="16" font-weight="400" fill="#FFFAF0">
            <tspan x="332.056" y="561.5">M</tspan>
        </text>
        <text id="M-Copy" font-family="Calibre-Medium, Calibre" font-size="16" font-weight="400" fill="#FFFAF0">
            <tspan x="737.056" y="308.5">M</tspan>
        </text>
        <text id="Improving-West-Afric" font-family="Calibre-Medium, Calibre" font-size="16" font-weight="400" fill="#FFFAF0">
            <tspan x="290.5" y="238">Improving West </tspan>
            <tspan x="290.5" y="254">African Cocoa</tspan>
        </text>
        <text id="Deforestation-Free" font-family="Calibre-Medium, Calibre" font-size="16" font-weight="400" fill="#FFFAF0">
            <tspan x="691" y="237.5">Deforestation </tspan>
            <tspan x="691" y="253.5">Free</tspan>
        </text>
        <text id="Reduce-Water-Usage" font-family="Calibre-Medium, Calibre" font-size="16" font-weight="400" fill="#FFFAF0">
            <tspan x="890" y="237.5">Reduce Water </tspan>
            <tspan x="890" y="253.5">Usage</tspan>
        </text>
        <text id="Confectionery-Compan" font-family="Calibre-Medium, Calibre" font-size="16" font-weight="400" fill="#FFFAF0">
            <tspan x="30" y="237.5">Confectionery </tspan>
            <tspan x="30" y="253.5">Companies</tspan>
        </text>
        <text id="Cocoa-Traceability" font-family="Calibre-Medium, Calibre" font-size="16" font-weight="400" fill="#FFFAF0">
            <tspan x="1091" y="237.5">Cocoa </tspan>
            <tspan x="1091" y="253.5">Traceability</tspan>
        </text>
        <text id="Livining-Income" font-family="Calibre-Medium, Calibre" font-size="16" font-weight="400" fill="#FFFAF0">
            <tspan x="1291" y="237.5">Livining</tspan>
            <tspan x="1291" y="253.5">Income</tspan>
        </text>
        <path d="M338.578428,308.997795 C338.222168,309.309523 338.186067,309.851034 338.497794,310.207294 C338.809522,310.563554 339.351033,310.599655 339.707293,310.287927 L343.135865,307.287927 C343.516333,306.955017 343.527511,306.366832 343.159967,306.019706 L335.44568,298.733991 C335.101521,298.408952 334.55903,298.424452 334.233991,298.768611 C333.908952,299.112769 333.924452,299.655261 334.268611,299.980299 L341.297452,306.618649 L338.578428,308.997795 Z" id="Shape" fill="#FFFAF0" fill-rule="nonzero" transform="translate(338.714288, 304.500008) rotate(-270.000000) translate(-338.714288, -304.500008) "></path>
        <path d="M338.578428,343.997795 C338.222168,344.309523 338.186067,344.851034 338.497794,345.207294 C338.809522,345.563554 339.351033,345.599655 339.707293,345.287927 L343.135865,342.287927 C343.516333,341.955017 343.527511,341.366832 343.159967,341.019706 L335.44568,333.733991 C335.101521,333.408952 334.55903,333.424452 334.233991,333.768611 C333.908952,334.112769 333.924452,334.655261 334.268611,334.980299 L341.297452,341.618649 L338.578428,343.997795 Z" id="Shape-Copy-5" fill="#FFFAF0" fill-rule="nonzero" transform="translate(338.714288, 339.500008) rotate(-270.000000) translate(-338.714288, -339.500008) "></path>
        <path d="M338.578428,487.997795 C338.222168,488.309523 338.186067,488.851034 338.497794,489.207294 C338.809522,489.563554 339.351033,489.599655 339.707293,489.287927 L343.135865,486.287927 C343.516333,485.955017 343.527511,485.366832 343.159967,485.019706 L335.44568,477.733991 C335.101521,477.408952 334.55903,477.424452 334.233991,477.768611 C333.908952,478.112769 333.924452,478.655261 334.268611,478.980299 L341.297452,485.618649 L338.578428,487.997795 Z" id="Shape-Copy-31" fill="#FFFAF0" fill-rule="nonzero" transform="translate(338.714288, 483.500008) rotate(-270.000000) translate(-338.714288, -483.500008) "></path>
        <path d="M338.578428,525.997795 C338.222168,526.309523 338.186067,526.851034 338.497794,527.207294 C338.809522,527.563554 339.351033,527.599655 339.707293,527.287927 L343.135865,524.287927 C343.516333,523.955017 343.527511,523.366832 343.159967,523.019706 L335.44568,515.733991 C335.101521,515.408952 334.55903,515.424452 334.233991,515.768611 C333.908952,516.112769 333.924452,516.655261 334.268611,516.980299 L341.297452,523.618649 L338.578428,525.997795 Z" id="Shape-Copy-33" fill="#FFFAF0" fill-rule="nonzero" transform="translate(338.714288, 521.500008) rotate(-270.000000) translate(-338.714288, -521.500008) "></path>
        <path d="M338.578428,597.997795 C338.222168,598.309523 338.186067,598.851034 338.497794,599.207294 C338.809522,599.563554 339.351033,599.599655 339.707293,599.287927 L343.135865,596.287927 C343.516333,595.955017 343.527511,595.366832 343.159967,595.019706 L335.44568,587.733991 C335.101521,587.408952 334.55903,587.424452 334.233991,587.768611 C333.908952,588.112769 333.924452,588.655261 334.268611,588.980299 L341.297452,595.618649 L338.578428,597.997795 Z" id="Shape-Copy-44" fill="#FFFAF0" fill-rule="nonzero" transform="translate(338.714288, 593.500008) rotate(-270.000000) translate(-338.714288, -593.500008) "></path>
        <path d="M338.578428,380.712076 C338.222168,381.023803 338.186067,381.565314 338.497794,381.921574 C338.809522,382.277834 339.351033,382.313935 339.707293,382.002207 L343.135865,379.002207 C343.516333,378.669297 343.527511,378.081112 343.159967,377.733987 L335.44568,370.448271 C335.101521,370.123233 334.55903,370.138732 334.233991,370.482891 C333.908952,370.827049 333.924452,371.369541 334.268611,371.69458 L341.297452,378.33293 L338.578428,380.712076 Z" id="Shape-Copy-11" fill="#FFFAF0" fill-rule="nonzero" transform="translate(338.714288, 376.214288) rotate(-270.000000) translate(-338.714288, -376.214288) "></path>
        <path d="M338.578428,451.997795 C338.222168,452.309523 338.186067,452.851034 338.497794,453.207294 C338.809522,453.563554 339.351033,453.599655 339.707293,453.287927 L343.135865,450.287927 C343.516333,449.955017 343.527511,449.366832 343.159967,449.019706 L335.44568,441.733991 C335.101521,441.408952 334.55903,441.424452 334.233991,441.768611 C333.908952,442.112769 333.924452,442.655261 334.268611,442.980299 L341.297452,449.618649 L338.578428,451.997795 Z" id="Shape-Copy-22" fill="#FFFAF0" fill-rule="nonzero" transform="translate(338.714288, 447.500008) rotate(-270.000000) translate(-338.714288, -447.500008) "></path>
        <path d="M540.578428,343.997795 C540.222168,344.309523 540.186067,344.851034 540.497794,345.207294 C540.809522,345.563554 541.351033,345.599655 541.707293,345.287927 L545.135865,342.287927 C545.516333,341.955017 545.527511,341.366832 545.159967,341.019706 L537.44568,333.733991 C537.101521,333.408952 536.55903,333.424452 536.233991,333.768611 C535.908952,334.112769 535.924452,334.655261 536.268611,334.980299 L543.297452,341.618649 L540.578428,343.997795 Z" id="Shape-Copy-6" fill="#FFFAF0" fill-rule="nonzero" transform="translate(540.714288, 339.500008) rotate(-270.000000) translate(-540.714288, -339.500008) "></path>
        <path d="M540.578428,487.997795 C540.222168,488.309523 540.186067,488.851034 540.497794,489.207294 C540.809522,489.563554 541.351033,489.599655 541.707293,489.287927 L545.135865,486.287927 C545.516333,485.955017 545.527511,485.366832 545.159967,485.019706 L537.44568,477.733991 C537.101521,477.408952 536.55903,477.424452 536.233991,477.768611 C535.908952,478.112769 535.924452,478.655261 536.268611,478.980299 L543.297452,485.618649 L540.578428,487.997795 Z" id="Shape-Copy-32" fill="#FFFAF0" fill-rule="nonzero" transform="translate(540.714288, 483.500008) rotate(-270.000000) translate(-540.714288, -483.500008) "></path>
        <path d="M742.578428,343.997795 C742.222168,344.309523 742.186067,344.851034 742.497794,345.207294 C742.809522,345.563554 743.351033,345.599655 743.707293,345.287927 L747.135865,342.287927 C747.516333,341.955017 747.527511,341.366832 747.159967,341.019706 L739.44568,333.733991 C739.101521,333.408952 738.55903,333.424452 738.233991,333.768611 C737.908952,334.112769 737.924452,334.655261 738.268611,334.980299 L745.297452,341.618649 L742.578428,343.997795 Z" id="Shape-Copy-7" fill="#FFFAF0" fill-rule="nonzero" transform="translate(742.714288, 339.500008) rotate(-270.000000) translate(-742.714288, -339.500008) "></path>
        <path d="M742.578428,487.997795 C742.222168,488.309523 742.186067,488.851034 742.497794,489.207294 C742.809522,489.563554 743.351033,489.599655 743.707293,489.287927 L747.135865,486.287927 C747.516333,485.955017 747.527511,485.366832 747.159967,485.019706 L739.44568,477.733991 C739.101521,477.408952 738.55903,477.424452 738.233991,477.768611 C737.908952,478.112769 737.924452,478.655261 738.268611,478.980299 L745.297452,485.618649 L742.578428,487.997795 Z" id="Shape-Copy-27" fill="#FFFAF0" fill-rule="nonzero" transform="translate(742.714288, 483.500008) rotate(-270.000000) translate(-742.714288, -483.500008) "></path>
        <path d="M742.578428,596.997795 C742.222168,597.309523 742.186067,597.851034 742.497794,598.207294 C742.809522,598.563554 743.351033,598.599655 743.707293,598.287927 L747.135865,595.287927 C747.516333,594.955017 747.527511,594.366832 747.159967,594.019706 L739.44568,586.733991 C739.101521,586.408952 738.55903,586.424452 738.233991,586.768611 C737.908952,587.112769 737.924452,587.655261 738.268611,587.980299 L745.297452,594.618649 L742.578428,596.997795 Z" id="Shape-Copy-46" fill="#FFFAF0" fill-rule="nonzero" transform="translate(742.714288, 592.500008) rotate(-270.000000) translate(-742.714288, -592.500008) "></path>
        <path d="M742.578428,451.997795 C742.222168,452.309523 742.186067,452.851034 742.497794,453.207294 C742.809522,453.563554 743.351033,453.599655 743.707293,453.287927 L747.135865,450.287927 C747.516333,449.955017 747.527511,449.366832 747.159967,449.019706 L739.44568,441.733991 C739.101521,441.408952 738.55903,441.424452 738.233991,441.768611 C737.908952,442.112769 737.924452,442.655261 738.268611,442.980299 L745.297452,449.618649 L742.578428,451.997795 Z" id="Shape-Copy-23" fill="#FFFAF0" fill-rule="nonzero" transform="translate(742.714288, 447.500008) rotate(-270.000000) translate(-742.714288, -447.500008) "></path>
        <path d="M742.578428,380.712076 C742.222168,381.023803 742.186067,381.565314 742.497794,381.921574 C742.809522,382.277834 743.351033,382.313935 743.707293,382.002207 L747.135865,379.002207 C747.516333,378.669297 747.527511,378.081112 747.159967,377.733987 L739.44568,370.448271 C739.101521,370.123233 738.55903,370.138732 738.233991,370.482891 C737.908952,370.827049 737.924452,371.369541 738.268611,371.69458 L745.297452,378.33293 L742.578428,380.712076 Z" id="Shape-Copy-12" fill="#FFFAF0" fill-rule="nonzero" transform="translate(742.714288, 376.214288) rotate(-270.000000) translate(-742.714288, -376.214288) "></path>
        <path d="M944.578428,308.997795 C944.222168,309.309523 944.186067,309.851034 944.497794,310.207294 C944.809522,310.563554 945.351033,310.599655 945.707293,310.287927 L949.135865,307.287927 C949.516333,306.955017 949.527511,306.366832 949.159967,306.019706 L941.44568,298.733991 C941.101521,298.408952 940.55903,298.424452 940.233991,298.768611 C939.908952,299.112769 939.924452,299.655261 940.268611,299.980299 L947.297452,306.618649 L944.578428,308.997795 Z" id="Shape-Copy" fill="#FFFAF0" fill-rule="nonzero" transform="translate(944.714288, 304.500008) rotate(-270.000000) translate(-944.714288, -304.500008) "></path>
        <path d="M944.578428,343.997795 C944.222168,344.309523 944.186067,344.851034 944.497794,345.207294 C944.809522,345.563554 945.351033,345.599655 945.707293,345.287927 L949.135865,342.287927 C949.516333,341.955017 949.527511,341.366832 949.159967,341.019706 L941.44568,333.733991 C941.101521,333.408952 940.55903,333.424452 940.233991,333.768611 C939.908952,334.112769 939.924452,334.655261 940.268611,334.980299 L947.297452,341.618649 L944.578428,343.997795 Z" id="Shape-Copy-8" fill="#FFFAF0" fill-rule="nonzero" transform="translate(944.714288, 339.500008) rotate(-270.000000) translate(-944.714288, -339.500008) "></path>
        <path d="M944.578428,487.712076 C944.222168,488.023803 944.186067,488.565314 944.497794,488.921574 C944.809522,489.277834 945.351033,489.313935 945.707293,489.002207 L949.135865,486.002207 C949.516333,485.669297 949.527511,485.081112 949.159967,484.733987 L941.44568,477.448271 C941.101521,477.123233 940.55903,477.138732 940.233991,477.482891 C939.908952,477.827049 939.924452,478.369541 940.268611,478.69458 L947.297452,485.33293 L944.578428,487.712076 Z" id="Shape-Copy-28" fill="#FFFAF0" fill-rule="nonzero" transform="translate(944.714288, 483.214288) rotate(-270.000000) translate(-944.714288, -483.214288) "></path>
        <path d="M944.578428,596.712076 C944.222168,597.023803 944.186067,597.565314 944.497794,597.921574 C944.809522,598.277834 945.351033,598.313935 945.707293,598.002207 L949.135865,595.002207 C949.516333,594.669297 949.527511,594.081112 949.159967,593.733987 L941.44568,586.448271 C941.101521,586.123233 940.55903,586.138732 940.233991,586.482891 C939.908952,586.827049 939.924452,587.369541 940.268611,587.69458 L947.297452,594.33293 L944.578428,596.712076 Z" id="Shape-Copy-47" fill="#FFFAF0" fill-rule="nonzero" transform="translate(944.714288, 592.214288) rotate(-270.000000) translate(-944.714288, -592.214288) "></path>
        <path d="M944.578428,523.712076 C944.222168,524.023803 944.186067,524.565314 944.497794,524.921574 C944.809522,525.277834 945.351033,525.313935 945.707293,525.002207 L949.135865,522.002207 C949.516333,521.669297 949.527511,521.081112 949.159967,520.733987 L941.44568,513.448271 C941.101521,513.123233 940.55903,513.138732 940.233991,513.482891 C939.908952,513.827049 939.924452,514.369541 940.268611,514.69458 L947.297452,521.33293 L944.578428,523.712076 Z" id="Shape-Copy-36" fill="#FFFAF0" fill-rule="nonzero" transform="translate(944.714288, 519.214288) rotate(-270.000000) translate(-944.714288, -519.214288) "></path>
        <path d="M944.578428,451.997795 C944.222168,452.309523 944.186067,452.851034 944.497794,453.207294 C944.809522,453.563554 945.351033,453.599655 945.707293,453.287927 L949.135865,450.287927 C949.516333,449.955017 949.527511,449.366832 949.159967,449.019706 L941.44568,441.733991 C941.101521,441.408952 940.55903,441.424452 940.233991,441.768611 C939.908952,442.112769 939.924452,442.655261 940.268611,442.980299 L947.297452,449.618649 L944.578428,451.997795 Z" id="Shape-Copy-24" fill="#FFFAF0" fill-rule="nonzero" transform="translate(944.714288, 447.500008) rotate(-270.000000) translate(-944.714288, -447.500008) "></path>
        <path d="M944.578428,416.997795 C944.222168,417.309523 944.186067,417.851034 944.497794,418.207294 C944.809522,418.563554 945.351033,418.599655 945.707293,418.287927 L949.135865,415.287927 C949.516333,414.955017 949.527511,414.366832 949.159967,414.019706 L941.44568,406.733991 C941.101521,406.408952 940.55903,406.424452 940.233991,406.768611 C939.908952,407.112769 939.924452,407.655261 940.268611,407.980299 L947.297452,414.618649 L944.578428,416.997795 Z" id="Shape-Copy-15" fill="#FFFAF0" fill-rule="nonzero" transform="translate(944.714288, 412.500008) rotate(-270.000000) translate(-944.714288, -412.500008) "></path>
        <path d="M1142.57843,308.997795 C1142.22217,309.309523 1142.18607,309.851034 1142.49779,310.207294 C1142.80952,310.563554 1143.35103,310.599655 1143.70729,310.287927 L1147.13586,307.287927 C1147.51633,306.955017 1147.52751,306.366832 1147.15997,306.019706 L1139.44568,298.733991 C1139.10152,298.408952 1138.55903,298.424452 1138.23399,298.768611 C1137.90895,299.112769 1137.92445,299.655261 1138.26861,299.980299 L1145.29745,306.618649 L1142.57843,308.997795 Z" id="Shape-Copy-2" fill="#FFFAF0" fill-rule="nonzero" transform="translate(1142.714288, 304.500008) rotate(-270.000000) translate(-1142.714288, -304.500008) "></path>
        <path d="M1142.57843,343.997795 C1142.22217,344.309523 1142.18607,344.851034 1142.49779,345.207294 C1142.80952,345.563554 1143.35103,345.599655 1143.70729,345.287927 L1147.13586,342.287927 C1147.51633,341.955017 1147.52751,341.366832 1147.15997,341.019706 L1139.44568,333.733991 C1139.10152,333.408952 1138.55903,333.424452 1138.23399,333.768611 C1137.90895,334.112769 1137.92445,334.655261 1138.26861,334.980299 L1145.29745,341.618649 L1142.57843,343.997795 Z" id="Shape-Copy-9" fill="#FFFAF0" fill-rule="nonzero" transform="translate(1142.714288, 339.500008) rotate(-270.000000) translate(-1142.714288, -339.500008) "></path>
        <path d="M1142.57843,487.712076 C1142.22217,488.023803 1142.18607,488.565314 1142.49779,488.921574 C1142.80952,489.277834 1143.35103,489.313935 1143.70729,489.002207 L1147.13586,486.002207 C1147.51633,485.669297 1147.52751,485.081112 1147.15997,484.733987 L1139.44568,477.448271 C1139.10152,477.123233 1138.55903,477.138732 1138.23399,477.482891 C1137.90895,477.827049 1137.92445,478.369541 1138.26861,478.69458 L1145.29745,485.33293 L1142.57843,487.712076 Z" id="Shape-Copy-29" fill="#FFFAF0" fill-rule="nonzero" transform="translate(1142.714288, 483.214288) rotate(-270.000000) translate(-1142.714288, -483.214288) "></path>
        <path d="M1142.57843,523.712076 C1142.22217,524.023803 1142.18607,524.565314 1142.49779,524.921574 C1142.80952,525.277834 1143.35103,525.313935 1143.70729,525.002207 L1147.13586,522.002207 C1147.51633,521.669297 1147.52751,521.081112 1147.15997,520.733987 L1139.44568,513.448271 C1139.10152,513.123233 1138.55903,513.138732 1138.23399,513.482891 C1137.90895,513.827049 1137.92445,514.369541 1138.26861,514.69458 L1145.29745,521.33293 L1142.57843,523.712076 Z" id="Shape-Copy-37" fill="#FFFAF0" fill-rule="nonzero" transform="translate(1142.714288, 519.214288) rotate(-270.000000) translate(-1142.714288, -519.214288) "></path>
        <path d="M1142.57843,451.997795 C1142.22217,452.309523 1142.18607,452.851034 1142.49779,453.207294 C1142.80952,453.563554 1143.35103,453.599655 1143.70729,453.287927 L1147.13586,450.287927 C1147.51633,449.955017 1147.52751,449.366832 1147.15997,449.019706 L1139.44568,441.733991 C1139.10152,441.408952 1138.55903,441.424452 1138.23399,441.768611 C1137.90895,442.112769 1137.92445,442.655261 1138.26861,442.980299 L1145.29745,449.618649 L1142.57843,451.997795 Z" id="Shape-Copy-25" fill="#FFFAF0" fill-rule="nonzero" transform="translate(1142.714288, 447.500008) rotate(-270.000000) translate(-1142.714288, -447.500008) "></path>
        <path d="M1142.57843,380.997795 C1142.22217,381.309523 1142.18607,381.851034 1142.49779,382.207294 C1142.80952,382.563554 1143.35103,382.599655 1143.70729,382.287927 L1147.13586,379.287927 C1147.51633,378.955017 1147.52751,378.366832 1147.15997,378.019706 L1139.44568,370.733991 C1139.10152,370.408952 1138.55903,370.424452 1138.23399,370.768611 C1137.90895,371.112769 1137.92445,371.655261 1138.26861,371.980299 L1145.29745,378.618649 L1142.57843,380.997795 Z" id="Shape-Copy-13" fill="#FFFAF0" fill-rule="nonzero" transform="translate(1142.714288, 376.500008) rotate(-270.000000) translate(-1142.714288, -376.500008) "></path>
        <path d="M1321.57843,308.997795 C1321.22217,309.309523 1321.18607,309.851034 1321.49779,310.207294 C1321.80952,310.563554 1322.35103,310.599655 1322.70729,310.287927 L1326.13586,307.287927 C1326.51633,306.955017 1326.52751,306.366832 1326.15997,306.019706 L1318.44568,298.733991 C1318.10152,298.408952 1317.55903,298.424452 1317.23399,298.768611 C1316.90895,299.112769 1316.92445,299.655261 1317.26861,299.980299 L1324.29745,306.618649 L1321.57843,308.997795 Z" id="Shape-Copy-3" fill="#FFFAF0" fill-rule="nonzero" transform="translate(1321.714288, 304.500008) rotate(-270.000000) translate(-1321.714288, -304.500008) "></path>
        <path d="M1321.57843,343.997795 C1321.22217,344.309523 1321.18607,344.851034 1321.49779,345.207294 C1321.80952,345.563554 1322.35103,345.599655 1322.70729,345.287927 L1326.13586,342.287927 C1326.51633,341.955017 1326.52751,341.366832 1326.15997,341.019706 L1318.44568,333.733991 C1318.10152,333.408952 1317.55903,333.424452 1317.23399,333.768611 C1316.90895,334.112769 1316.92445,334.655261 1317.26861,334.980299 L1324.29745,341.618649 L1321.57843,343.997795 Z" id="Shape-Copy-10" fill="#FFFAF0" fill-rule="nonzero" transform="translate(1321.714288, 339.500008) rotate(-270.000000) translate(-1321.714288, -339.500008) "></path>
        <path d="M1321.57843,487.712076 C1321.22217,488.023803 1321.18607,488.565314 1321.49779,488.921574 C1321.80952,489.277834 1322.35103,489.313935 1322.70729,489.002207 L1326.13586,486.002207 C1326.51633,485.669297 1326.52751,485.081112 1326.15997,484.733987 L1318.44568,477.448271 C1318.10152,477.123233 1317.55903,477.138732 1317.23399,477.482891 C1316.90895,477.827049 1316.92445,478.369541 1317.26861,478.69458 L1324.29745,485.33293 L1321.57843,487.712076 Z" id="Shape-Copy-30" fill="#FFFAF0" fill-rule="nonzero" transform="translate(1321.714288, 483.214288) rotate(-270.000000) translate(-1321.714288, -483.214288) "></path>
        <path d="M1321.57843,523.712076 C1321.22217,524.023803 1321.18607,524.565314 1321.49779,524.921574 C1321.80952,525.277834 1322.35103,525.313935 1322.70729,525.002207 L1326.13586,522.002207 C1326.51633,521.669297 1326.52751,521.081112 1326.15997,520.733987 L1318.44568,513.448271 C1318.10152,513.123233 1317.55903,513.138732 1317.23399,513.482891 C1316.90895,513.827049 1316.92445,514.369541 1317.26861,514.69458 L1324.29745,521.33293 L1321.57843,523.712076 Z" id="Shape-Copy-38" fill="#FFFAF0" fill-rule="nonzero" transform="translate(1321.714288, 519.214288) rotate(-270.000000) translate(-1321.714288, -519.214288) "></path>
        <path d="M1321.57843,560.997795 C1321.22217,561.309523 1321.18607,561.851034 1321.49779,562.207294 C1321.80952,562.563554 1322.35103,562.599655 1322.70729,562.287927 L1326.13586,559.287927 C1326.51633,558.955017 1326.52751,558.366832 1326.15997,558.019706 L1318.44568,550.733991 C1318.10152,550.408952 1317.55903,550.424452 1317.23399,550.768611 C1316.90895,551.112769 1316.92445,551.655261 1317.26861,551.980299 L1324.29745,558.618649 L1321.57843,560.997795 Z" id="Shape-Copy-43" fill="#FFFAF0" fill-rule="nonzero" transform="translate(1321.714288, 556.500008) rotate(-270.000000) translate(-1321.714288, -556.500008) "></path>
        <path d="M1321.57843,596.997795 C1321.22217,597.309523 1321.18607,597.851034 1321.49779,598.207294 C1321.80952,598.563554 1322.35103,598.599655 1322.70729,598.287927 L1326.13586,595.287927 C1326.51633,594.955017 1326.52751,594.366832 1326.15997,594.019706 L1318.44568,586.733991 C1318.10152,586.408952 1317.55903,586.424452 1317.23399,586.768611 C1316.90895,587.112769 1316.92445,587.655261 1317.26861,587.980299 L1324.29745,594.618649 L1321.57843,596.997795 Z" id="Shape-Copy-49" fill="#FFFAF0" fill-rule="nonzero" transform="translate(1321.714288, 592.500008) rotate(-270.000000) translate(-1321.714288, -592.500008) "></path>
        <path d="M1321.57843,633.997795 C1321.22217,634.309523 1321.18607,634.851034 1321.49779,635.207294 C1321.80952,635.563554 1322.35103,635.599655 1322.70729,635.287927 L1326.13586,632.287927 C1326.51633,631.955017 1326.52751,631.366832 1326.15997,631.019706 L1318.44568,623.733991 C1318.10152,623.408952 1317.55903,623.424452 1317.23399,623.768611 C1316.90895,624.112769 1316.92445,624.655261 1317.26861,624.980299 L1324.29745,631.618649 L1321.57843,633.997795 Z" id="Shape-Copy-55" fill="#FFFAF0" fill-rule="nonzero" transform="translate(1321.714288, 629.500008) rotate(-270.000000) translate(-1321.714288, -629.500008) "></path>
        <path d="M1321.57843,451.997795 C1321.22217,452.309523 1321.18607,452.851034 1321.49779,453.207294 C1321.80952,453.563554 1322.35103,453.599655 1322.70729,453.287927 L1326.13586,450.287927 C1326.51633,449.955017 1326.52751,449.366832 1326.15997,449.019706 L1318.44568,441.733991 C1318.10152,441.408952 1317.55903,441.424452 1317.23399,441.768611 C1316.90895,442.112769 1316.92445,442.655261 1317.26861,442.980299 L1324.29745,449.618649 L1321.57843,451.997795 Z" id="Shape-Copy-26" fill="#FFFAF0" fill-rule="nonzero" transform="translate(1321.714288, 447.500008) rotate(-270.000000) translate(-1321.714288, -447.500008) "></path>
        <path d="M1321.57843,380.997795 C1321.22217,381.309523 1321.18607,381.851034 1321.49779,382.207294 C1321.80952,382.563554 1322.35103,382.599655 1322.70729,382.287927 L1326.13586,379.287927 C1326.51633,378.955017 1326.52751,378.366832 1326.15997,378.019706 L1318.44568,370.733991 C1318.10152,370.408952 1317.55903,370.424452 1317.23399,370.768611 C1316.90895,371.112769 1316.92445,371.655261 1317.26861,371.980299 L1324.29745,378.618649 L1321.57843,380.997795 Z" id="Shape-Copy-14" fill="#FFFAF0" fill-rule="nonzero" transform="translate(1321.714288, 376.500008) rotate(-270.000000) translate(-1321.714288, -376.500008) "></path>
        <line x1="30" y1="203.5" x2="1390.5" y2="203.5" id="Line-4" stroke="#FFFAF0" stroke-width="5"></line>
        <line x1="30" y1="284" x2="1390.5" y2="284" id="Line-4-Copy-11" stroke="#FFFAF0" opacity="0.5"></line>
        <line x1="30" y1="320.5" x2="1390.5" y2="320.5" id="Line-4-Copy" stroke="#FFFAF0" opacity="0.5"></line>
        <line x1="30" y1="356.5" x2="1390.5" y2="356.5" id="Line-4-Copy-2" stroke="#FFFAF0" opacity="0.5"></line>
        <line x1="30" y1="392.5" x2="1390.5" y2="392.5" id="Line-4-Copy-3" stroke="#FFFAF0" opacity="0.5"></line>
        <line x1="30" y1="429.5" x2="1390.5" y2="429.5" id="Line-4-Copy-4" stroke="#FFFAF0" opacity="0.5"></line>
        <line x1="30" y1="465.5" x2="1390.5" y2="465.5" id="Line-4-Copy-5" stroke="#FFFAF0" opacity="0.5"></line>
        <line x1="30" y1="501.5" x2="1390.5" y2="501.5" id="Line-4-Copy-6" stroke="#FFFAF0" opacity="0.5"></line>
        <line x1="30" y1="538.5" x2="1390.5" y2="538.5" id="Line-4-Copy-7" stroke="#FFFAF0" opacity="0.5"></line>
        <line x1="30" y1="574.5" x2="1390.5" y2="574.5" id="Line-4-Copy-8" stroke="#FFFAF0" opacity="0.5"></line>
        <line x1="30" y1="610.5" x2="1390.5" y2="610.5" id="Line-4-Copy-9" stroke="#FFFAF0" opacity="0.5"></line>
        <line x1="30" y1="647.5" x2="1390.5" y2="647.5" id="Line-4-Copy-10" stroke="#FFFAF0" opacity="0.5"></line>
        <path d="M534.21967,369.71967 C534.512563,369.426777 534.987437,369.426777 535.28033,369.71967 L535.28033,369.71967 L539.285,373.724 L543.290738,369.71967 C543.557004,369.453403 543.973668,369.429197 544.267279,369.647052 L544.351398,369.71967 C544.644291,370.012563 544.644291,370.487437 544.351398,370.78033 L544.351398,370.78033 L540.346,374.785 L544.351398,378.790738 C544.617664,379.057004 544.641871,379.473668 544.424016,379.767279 L544.351398,379.851398 C544.058505,380.144291 543.583631,380.144291 543.290738,379.851398 L543.290738,379.851398 L539.285,375.846 L535.28033,379.851398 C535.014064,380.117664 534.5974,380.141871 534.303788,379.924016 L534.21967,379.851398 C533.926777,379.558505 533.926777,379.083631 534.21967,378.790738 L534.21967,378.790738 L538.224,374.785 L534.21967,370.78033 C533.953403,370.514064 533.929197,370.0974 534.147052,369.803788 Z" id="Shape-Copy-16" fill="#FFFAF0" fill-rule="nonzero"></path>
        <path d="M534.21967,405.71967 C534.512563,405.426777 534.987437,405.426777 535.28033,405.71967 L535.28033,405.71967 L539.285,409.724 L543.290738,405.71967 C543.557004,405.453403 543.973668,405.429197 544.267279,405.647052 L544.351398,405.71967 C544.644291,406.012563 544.644291,406.487437 544.351398,406.78033 L544.351398,406.78033 L540.346,410.785 L544.351398,414.790738 C544.617664,415.057004 544.641871,415.473668 544.424016,415.767279 L544.351398,415.851398 C544.058505,416.144291 543.583631,416.144291 543.290738,415.851398 L543.290738,415.851398 L539.285,411.846 L535.28033,415.851398 C535.014064,416.117664 534.5974,416.141871 534.303788,415.924016 L534.21967,415.851398 C533.926777,415.558505 533.926777,415.083631 534.21967,414.790738 L534.21967,414.790738 L538.224,410.785 L534.21967,406.78033 C533.953403,406.514064 533.929197,406.0974 534.147052,405.803788 Z" id="Shape-Copy-18" fill="#FFFAF0" fill-rule="nonzero"></path>
        <path d="M534.21967,515.71967 C534.512563,515.426777 534.987437,515.426777 535.28033,515.71967 L535.28033,515.71967 L539.285,519.724 L543.290738,515.71967 C543.557004,515.453403 543.973668,515.429197 544.267279,515.647052 L544.351398,515.71967 C544.644291,516.012563 544.644291,516.487437 544.351398,516.78033 L544.351398,516.78033 L540.346,520.785 L544.351398,524.790738 C544.617664,525.057004 544.641871,525.473668 544.424016,525.767279 L544.351398,525.851398 C544.058505,526.144291 543.583631,526.144291 543.290738,525.851398 L543.290738,525.851398 L539.285,521.846 L535.28033,525.851398 C535.014064,526.117664 534.5974,526.141871 534.303788,525.924016 L534.21967,525.851398 C533.926777,525.558505 533.926777,525.083631 534.21967,524.790738 L534.21967,524.790738 L538.224,520.785 L534.21967,516.78033 C533.953403,516.514064 533.929197,516.0974 534.147052,515.803788 Z" id="Shape-Copy-34" fill="#FFFAF0" fill-rule="nonzero"></path>
        <path d="M534.21967,551.71967 C534.512563,551.426777 534.987437,551.426777 535.28033,551.71967 L535.28033,551.71967 L539.285,555.724 L543.290738,551.71967 C543.557004,551.453403 543.973668,551.429197 544.267279,551.647052 L544.351398,551.71967 C544.644291,552.012563 544.644291,552.487437 544.351398,552.78033 L544.351398,552.78033 L540.346,556.785 L544.351398,560.790738 C544.617664,561.057004 544.641871,561.473668 544.424016,561.767279 L544.351398,561.851398 C544.058505,562.144291 543.583631,562.144291 543.290738,561.851398 L543.290738,561.851398 L539.285,557.846 L535.28033,561.851398 C535.014064,562.117664 534.5974,562.141871 534.303788,561.924016 L534.21967,561.851398 C533.926777,561.558505 533.926777,561.083631 534.21967,560.790738 L534.21967,560.790738 L538.224,556.785 L534.21967,552.78033 C533.953403,552.514064 533.929197,552.0974 534.147052,551.803788 Z" id="Shape-Copy-39" fill="#FFFAF0" fill-rule="nonzero"></path>
        <path d="M534.21967,587.71967 C534.512563,587.426777 534.987437,587.426777 535.28033,587.71967 L535.28033,587.71967 L539.285,591.724 L543.290738,587.71967 C543.557004,587.453403 543.973668,587.429197 544.267279,587.647052 L544.351398,587.71967 C544.644291,588.012563 544.644291,588.487437 544.351398,588.78033 L544.351398,588.78033 L540.346,592.785 L544.351398,596.790738 C544.617664,597.057004 544.641871,597.473668 544.424016,597.767279 L544.351398,597.851398 C544.058505,598.144291 543.583631,598.144291 543.290738,597.851398 L543.290738,597.851398 L539.285,593.846 L535.28033,597.851398 C535.014064,598.117664 534.5974,598.141871 534.303788,597.924016 L534.21967,597.851398 C533.926777,597.558505 533.926777,597.083631 534.21967,596.790738 L534.21967,596.790738 L538.224,592.785 L534.21967,588.78033 C533.953403,588.514064 533.929197,588.0974 534.147052,587.803788 Z" id="Shape-Copy-45" fill="#FFFAF0" fill-rule="nonzero"></path>
        <path d="M534.21967,442.71967 C534.512563,442.426777 534.987437,442.426777 535.28033,442.71967 L535.28033,442.71967 L539.285,446.724 L543.290738,442.71967 C543.557004,442.453403 543.973668,442.429197 544.267279,442.647052 L544.351398,442.71967 C544.644291,443.012563 544.644291,443.487437 544.351398,443.78033 L544.351398,443.78033 L540.346,447.785 L544.351398,451.790738 C544.617664,452.057004 544.641871,452.473668 544.424016,452.767279 L544.351398,452.851398 C544.058505,453.144291 543.583631,453.144291 543.290738,452.851398 L543.290738,452.851398 L539.285,448.846 L535.28033,452.851398 C535.014064,453.117664 534.5974,453.141871 534.303788,452.924016 L534.21967,452.851398 C533.926777,452.558505 533.926777,452.083631 534.21967,451.790738 L534.21967,451.790738 L538.224,447.785 L534.21967,443.78033 C533.953403,443.514064 533.929197,443.0974 534.147052,442.803788 Z" id="Shape-Copy-21" fill="#FFFAF0" fill-rule="nonzero"></path>
        <path d="M737.21967,405.71967 C737.512563,405.426777 737.987437,405.426777 738.28033,405.71967 L738.28033,405.71967 L742.285,409.724 L746.290738,405.71967 C746.557004,405.453403 746.973668,405.429197 747.267279,405.647052 L747.351398,405.71967 C747.644291,406.012563 747.644291,406.487437 747.351398,406.78033 L747.351398,406.78033 L743.346,410.785 L747.351398,414.790738 C747.617664,415.057004 747.641871,415.473668 747.424016,415.767279 L747.351398,415.851398 C747.058505,416.144291 746.583631,416.144291 746.290738,415.851398 L746.290738,415.851398 L742.285,411.846 L738.28033,415.851398 C738.014064,416.117664 737.5974,416.141871 737.303788,415.924016 L737.21967,415.851398 C736.926777,415.558505 736.926777,415.083631 737.21967,414.790738 L737.21967,414.790738 L741.224,410.785 L737.21967,406.78033 C736.953403,406.514064 736.929197,406.0974 737.147052,405.803788 Z" id="Shape-Copy-20" fill="#FFFAF0" fill-rule="nonzero"></path>
        <path d="M737.21967,515.71967 C737.512563,515.426777 737.987437,515.426777 738.28033,515.71967 L738.28033,515.71967 L742.285,519.724 L746.290738,515.71967 C746.557004,515.453403 746.973668,515.429197 747.267279,515.647052 L747.351398,515.71967 C747.644291,516.012563 747.644291,516.487437 747.351398,516.78033 L747.351398,516.78033 L743.346,520.785 L747.351398,524.790738 C747.617664,525.057004 747.641871,525.473668 747.424016,525.767279 L747.351398,525.851398 C747.058505,526.144291 746.583631,526.144291 746.290738,525.851398 L746.290738,525.851398 L742.285,521.846 L738.28033,525.851398 C738.014064,526.117664 737.5974,526.141871 737.303788,525.924016 L737.21967,525.851398 C736.926777,525.558505 736.926777,525.083631 737.21967,524.790738 L737.21967,524.790738 L741.224,520.785 L737.21967,516.78033 C736.953403,516.514064 736.929197,516.0974 737.147052,515.803788 Z" id="Shape-Copy-35" fill="#FFFAF0" fill-rule="nonzero"></path>
        <path d="M737.21967,551.71967 C737.512563,551.426777 737.987437,551.426777 738.28033,551.71967 L738.28033,551.71967 L742.285,555.724 L746.290738,551.71967 C746.557004,551.453403 746.973668,551.429197 747.267279,551.647052 L747.351398,551.71967 C747.644291,552.012563 747.644291,552.487437 747.351398,552.78033 L747.351398,552.78033 L743.346,556.785 L747.351398,560.790738 C747.617664,561.057004 747.641871,561.473668 747.424016,561.767279 L747.351398,561.851398 C747.058505,562.144291 746.583631,562.144291 746.290738,561.851398 L746.290738,561.851398 L742.285,557.846 L738.28033,561.851398 C738.014064,562.117664 737.5974,562.141871 737.303788,561.924016 L737.21967,561.851398 C736.926777,561.558505 736.926777,561.083631 737.21967,560.790738 L737.21967,560.790738 L741.224,556.785 L737.21967,552.78033 C736.953403,552.514064 736.929197,552.0974 737.147052,551.803788 Z" id="Shape-Copy-40" fill="#FFFAF0" fill-rule="nonzero"></path>
        <path d="M939.21967,551.71967 C939.512563,551.426777 939.987437,551.426777 940.28033,551.71967 L940.28033,551.71967 L944.285,555.724 L948.290738,551.71967 C948.557004,551.453403 948.973668,551.429197 949.267279,551.647052 L949.351398,551.71967 C949.644291,552.012563 949.644291,552.487437 949.351398,552.78033 L949.351398,552.78033 L945.346,556.785 L949.351398,560.790738 C949.617664,561.057004 949.641871,561.473668 949.424016,561.767279 L949.351398,561.851398 C949.058505,562.144291 948.583631,562.144291 948.290738,561.851398 L948.290738,561.851398 L944.285,557.846 L940.28033,561.851398 C940.014064,562.117664 939.5974,562.141871 939.303788,561.924016 L939.21967,561.851398 C938.926777,561.558505 938.926777,561.083631 939.21967,560.790738 L939.21967,560.790738 L943.224,556.785 L939.21967,552.78033 C938.953403,552.514064 938.929197,552.0974 939.147052,551.803788 Z" id="Shape-Copy-41" fill="#FFFAF0" fill-rule="nonzero"></path>
        <path d="M1137.21967,551.71967 C1137.51256,551.426777 1137.98744,551.426777 1138.28033,551.71967 L1138.28033,551.71967 L1142.285,555.724 L1146.29074,551.71967 C1146.557,551.453403 1146.97367,551.429197 1147.26728,551.647052 L1147.3514,551.71967 C1147.64429,552.012563 1147.64429,552.487437 1147.3514,552.78033 L1147.3514,552.78033 L1143.346,556.785 L1147.3514,560.790738 C1147.61766,561.057004 1147.64187,561.473668 1147.42402,561.767279 L1147.3514,561.851398 C1147.0585,562.144291 1146.58363,562.144291 1146.29074,561.851398 L1146.29074,561.851398 L1142.285,557.846 L1138.28033,561.851398 C1138.01406,562.117664 1137.5974,562.141871 1137.30379,561.924016 L1137.21967,561.851398 C1136.92678,561.558505 1136.92678,561.083631 1137.21967,560.790738 L1137.21967,560.790738 L1141.224,556.785 L1137.21967,552.78033 C1136.9534,552.514064 1136.9292,552.0974 1137.14705,551.803788 Z" id="Shape-Copy-42" fill="#FFFAF0" fill-rule="nonzero"></path>
        <path d="M1137.21967,586.71967 C1137.51256,586.426777 1137.98744,586.426777 1138.28033,586.71967 L1138.28033,586.71967 L1142.285,590.724 L1146.29074,586.71967 C1146.557,586.453403 1146.97367,586.429197 1147.26728,586.647052 L1147.3514,586.71967 C1147.64429,587.012563 1147.64429,587.487437 1147.3514,587.78033 L1147.3514,587.78033 L1143.346,591.785 L1147.3514,595.790738 C1147.61766,596.057004 1147.64187,596.473668 1147.42402,596.767279 L1147.3514,596.851398 C1147.0585,597.144291 1146.58363,597.144291 1146.29074,596.851398 L1146.29074,596.851398 L1142.285,592.846 L1138.28033,596.851398 C1138.01406,597.117664 1137.5974,597.141871 1137.30379,596.924016 L1137.21967,596.851398 C1136.92678,596.558505 1136.92678,596.083631 1137.21967,595.790738 L1137.21967,595.790738 L1141.224,591.785 L1137.21967,587.78033 C1136.9534,587.514064 1136.9292,587.0974 1137.14705,586.803788 Z" id="Shape-Copy-48" fill="#FFFAF0" fill-rule="nonzero"></path>
        <path d="M1137.21967,405.71967 C1137.51256,405.426777 1137.98744,405.426777 1138.28033,405.71967 L1138.28033,405.71967 L1142.285,409.724 L1146.29074,405.71967 C1146.557,405.453403 1146.97367,405.429197 1147.26728,405.647052 L1147.3514,405.71967 C1147.64429,406.012563 1147.64429,406.487437 1147.3514,406.78033 L1147.3514,406.78033 L1143.346,410.785 L1147.3514,414.790738 C1147.61766,415.057004 1147.64187,415.473668 1147.42402,415.767279 L1147.3514,415.851398 C1147.0585,416.144291 1146.58363,416.144291 1146.29074,415.851398 L1146.29074,415.851398 L1142.285,411.846 L1138.28033,415.851398 C1138.01406,416.117664 1137.5974,416.141871 1137.30379,415.924016 L1137.21967,415.851398 C1136.92678,415.558505 1136.92678,415.083631 1137.21967,414.790738 L1137.21967,414.790738 L1141.224,410.785 L1137.21967,406.78033 C1136.9534,406.514064 1136.9292,406.0974 1137.14705,405.803788 Z" id="Shape-Copy-20" fill="#FFFAF0" fill-rule="nonzero"></path>
        <path d="M1316.21967,405.71967 C1316.51256,405.426777 1316.98744,405.426777 1317.28033,405.71967 L1317.28033,405.71967 L1321.285,409.724 L1325.29074,405.71967 C1325.557,405.453403 1325.97367,405.429197 1326.26728,405.647052 L1326.3514,405.71967 C1326.64429,406.012563 1326.64429,406.487437 1326.3514,406.78033 L1326.3514,406.78033 L1322.346,410.785 L1326.3514,414.790738 C1326.61766,415.057004 1326.64187,415.473668 1326.42402,415.767279 L1326.3514,415.851398 C1326.0585,416.144291 1325.58363,416.144291 1325.29074,415.851398 L1325.29074,415.851398 L1321.285,411.846 L1317.28033,415.851398 C1317.01406,416.117664 1316.5974,416.141871 1316.30379,415.924016 L1316.21967,415.851398 C1315.92678,415.558505 1315.92678,415.083631 1316.21967,414.790738 L1316.21967,414.790738 L1320.224,410.785 L1316.21967,406.78033 C1315.9534,406.514064 1315.9292,406.0974 1316.14705,405.803788 Z" id="Shape-Copy-20" fill="#FFFAF0" fill-rule="nonzero"></path>
        <path d="M332.21967,405.71967 C332.512563,405.426777 332.987437,405.426777 333.28033,405.71967 L333.28033,405.71967 L337.285,409.724 L341.290738,405.71967 C341.557004,405.453403 341.973668,405.429197 342.267279,405.647052 L342.351398,405.71967 C342.644291,406.012563 342.644291,406.487437 342.351398,406.78033 L342.351398,406.78033 L338.346,410.785 L342.351398,414.790738 C342.617664,415.057004 342.641871,415.473668 342.424016,415.767279 L342.351398,415.851398 C342.058505,416.144291 341.583631,416.144291 341.290738,415.851398 L341.290738,415.851398 L337.285,411.846 L333.28033,415.851398 C333.014064,416.117664 332.5974,416.141871 332.303788,415.924016 L332.21967,415.851398 C331.926777,415.558505 331.926777,415.083631 332.21967,414.790738 L332.21967,414.790738 L336.224,410.785 L332.21967,406.78033 C331.953403,406.514064 331.929197,406.0974 332.147052,405.803788 Z" id="Shape-Copy-19" fill="#FFFAF0" fill-rule="nonzero"></path>
        <path d="M332.21967,623.71967 C332.512563,623.426777 332.987437,623.426777 333.28033,623.71967 L333.28033,623.71967 L337.285,627.724 L341.290738,623.71967 C341.557004,623.453403 341.973668,623.429197 342.267279,623.647052 L342.351398,623.71967 C342.644291,624.012563 342.644291,624.487437 342.351398,624.78033 L342.351398,624.78033 L338.346,628.785 L342.351398,632.790738 C342.617664,633.057004 342.641871,633.473668 342.424016,633.767279 L342.351398,633.851398 C342.058505,634.144291 341.583631,634.144291 341.290738,633.851398 L341.290738,633.851398 L337.285,629.846 L333.28033,633.851398 C333.014064,634.117664 332.5974,634.141871 332.303788,633.924016 L332.21967,633.851398 C331.926777,633.558505 331.926777,633.083631 332.21967,632.790738 L332.21967,632.790738 L336.224,628.785 L332.21967,624.78033 C331.953403,624.514064 331.929197,624.0974 332.147052,623.803788 Z" id="Shape-Copy-50" fill="#FFFAF0" fill-rule="nonzero"></path>
        <path d="M534.21967,623.71967 C534.512563,623.426777 534.987437,623.426777 535.28033,623.71967 L535.28033,623.71967 L539.285,627.724 L543.290738,623.71967 C543.557004,623.453403 543.973668,623.429197 544.267279,623.647052 L544.351398,623.71967 C544.644291,624.012563 544.644291,624.487437 544.351398,624.78033 L544.351398,624.78033 L540.346,628.785 L544.351398,632.790738 C544.617664,633.057004 544.641871,633.473668 544.424016,633.767279 L544.351398,633.851398 C544.058505,634.144291 543.583631,634.144291 543.290738,633.851398 L543.290738,633.851398 L539.285,629.846 L535.28033,633.851398 C535.014064,634.117664 534.5974,634.141871 534.303788,633.924016 L534.21967,633.851398 C533.926777,633.558505 533.926777,633.083631 534.21967,632.790738 L534.21967,632.790738 L538.224,628.785 L534.21967,624.78033 C533.953403,624.514064 533.929197,624.0974 534.147052,623.803788 Z" id="Shape-Copy-51" fill="#FFFAF0" fill-rule="nonzero"></path>
        <path d="M737.21967,623.71967 C737.512563,623.426777 737.987437,623.426777 738.28033,623.71967 L738.28033,623.71967 L742.285,627.724 L746.290738,623.71967 C746.557004,623.453403 746.973668,623.429197 747.267279,623.647052 L747.351398,623.71967 C747.644291,624.012563 747.644291,624.487437 747.351398,624.78033 L747.351398,624.78033 L743.346,628.785 L747.351398,632.790738 C747.617664,633.057004 747.641871,633.473668 747.424016,633.767279 L747.351398,633.851398 C747.058505,634.144291 746.583631,634.144291 746.290738,633.851398 L746.290738,633.851398 L742.285,629.846 L738.28033,633.851398 C738.014064,634.117664 737.5974,634.141871 737.303788,633.924016 L737.21967,633.851398 C736.926777,633.558505 736.926777,633.083631 737.21967,632.790738 L737.21967,632.790738 L741.224,628.785 L737.21967,624.78033 C736.953403,624.514064 736.929197,624.0974 737.147052,623.803788 Z" id="Shape-Copy-52" fill="#FFFAF0" fill-rule="nonzero"></path>
        <path d="M939.21967,623.71967 C939.512563,623.426777 939.987437,623.426777 940.28033,623.71967 L940.28033,623.71967 L944.285,627.724 L948.290738,623.71967 C948.557004,623.453403 948.973668,623.429197 949.267279,623.647052 L949.351398,623.71967 C949.644291,624.012563 949.644291,624.487437 949.351398,624.78033 L949.351398,624.78033 L945.346,628.785 L949.351398,632.790738 C949.617664,633.057004 949.641871,633.473668 949.424016,633.767279 L949.351398,633.851398 C949.058505,634.144291 948.583631,634.144291 948.290738,633.851398 L948.290738,633.851398 L944.285,629.846 L940.28033,633.851398 C940.014064,634.117664 939.5974,634.141871 939.303788,633.924016 L939.21967,633.851398 C938.926777,633.558505 938.926777,633.083631 939.21967,632.790738 L939.21967,632.790738 L943.224,628.785 L939.21967,624.78033 C938.953403,624.514064 938.929197,624.0974 939.147052,623.803788 Z" id="Shape-Copy-53" fill="#FFFAF0" fill-rule="nonzero"></path>
        <path d="M1137.21967,623.71967 C1137.51256,623.426777 1137.98744,623.426777 1138.28033,623.71967 L1138.28033,623.71967 L1142.285,627.724 L1146.29074,623.71967 C1146.557,623.453403 1146.97367,623.429197 1147.26728,623.647052 L1147.3514,623.71967 C1147.64429,624.012563 1147.64429,624.487437 1147.3514,624.78033 L1147.3514,624.78033 L1143.346,628.785 L1147.3514,632.790738 C1147.61766,633.057004 1147.64187,633.473668 1147.42402,633.767279 L1147.3514,633.851398 C1147.0585,634.144291 1146.58363,634.144291 1146.29074,633.851398 L1146.29074,633.851398 L1142.285,629.846 L1138.28033,633.851398 C1138.01406,634.117664 1137.5974,634.141871 1137.30379,633.924016 L1137.21967,633.851398 C1136.92678,633.558505 1136.92678,633.083631 1137.21967,632.790738 L1137.21967,632.790738 L1141.224,628.785 L1137.21967,624.78033 C1136.9534,624.514064 1136.9292,624.0974 1137.14705,623.803788 Z" id="Shape-Copy-54" fill="#FFFAF0" fill-rule="nonzero"></path>
        <path d="M939.21967,369.71967 C939.512563,369.426777 939.987437,369.426777 940.28033,369.71967 L940.28033,369.71967 L944.285,373.724 L948.290738,369.71967 C948.557004,369.453403 948.973668,369.429197 949.267279,369.647052 L949.351398,369.71967 C949.644291,370.012563 949.644291,370.487437 949.351398,370.78033 L949.351398,370.78033 L945.346,374.785 L949.351398,378.790738 C949.617664,379.057004 949.641871,379.473668 949.424016,379.767279 L949.351398,379.851398 C949.058505,380.144291 948.583631,380.144291 948.290738,379.851398 L948.290738,379.851398 L944.285,375.846 L940.28033,379.851398 C940.014064,380.117664 939.5974,380.141871 939.303788,379.924016 L939.21967,379.851398 C938.926777,379.558505 938.926777,379.083631 939.21967,378.790738 L939.21967,378.790738 L943.224,374.785 L939.21967,370.78033 C938.953403,370.514064 938.929197,370.0974 939.147052,369.803788 Z" id="Shape-Copy-17" fill="#FFFAF0" fill-rule="nonzero"></path>
        <g id="Group-3" transform="translate(30.000000, 157.000000)">
            <text id="Yes" font-family="Calibre-Medium, Calibre" font-size="14" font-weight="400" fill="#FFFAF0">
                <tspan x="52" y="9">Yes</tspan>
            </text>
            <path d="M6.5784276,9.4977954 C6.22216757,9.80952293 6.18606684,10.3510338 6.49779437,10.7072939 C6.8095219,11.0635539 7.35103281,11.0996546 7.70729284,10.7879271 L11.1358649,7.78792658 C11.516333,7.455017 11.5275111,6.86683172 11.1599668,6.5197065 L3.44567975,-0.766009043 C3.10152117,-1.0910477 2.55902962,-1.07554795 2.23399096,-0.731389363 C1.9089523,-0.387230781 1.92445205,0.155260772 2.26861064,0.480299433 L9.29745169,7.11864932 L6.5784276,9.4977954 Z" id="Shape-Copy-4" fill="#FFFAF0" fill-rule="nonzero" transform="translate(6.714288, 5.000008) rotate(-270.000000) translate(-6.714288, -5.000008) "></path>
            <line x1="16" y1="6" x2="47" y2="6" id="Line-6" stroke="#FFFAF0" stroke-linecap="square" stroke-dasharray="2,2"></line>
        </g>
        <g id="Group-4" transform="translate(140.000000, 157.000000)">
            <text id="No" font-family="Calibre-Medium, Calibre" font-size="14" font-weight="400" fill="#FFFAF0">
                <tspan x="50" y="9">No</tspan>
            </text>
            <path d="M0.219669914,0.219669914 C0.512563133,-0.0732233047 0.987436867,-0.0732233047 1.28033009,0.219669914 L1.28033009,0.219669914 L5.285,4.224 L9.29073773,0.219669914 C9.55700429,-0.0465966484 9.97366797,-0.0708026996 10.2672795,0.147051761 L10.3513979,0.219669914 C10.6442911,0.512563133 10.6442911,0.987436867 10.3513979,1.28033009 L10.3513979,1.28033009 L6.346,5.285 L10.3513979,9.29073773 C10.6176645,9.55700429 10.6418705,9.97366797 10.4240161,10.2672795 L10.3513979,10.3513979 C10.0585047,10.6442911 9.58363094,10.6442911 9.29073773,10.3513979 L9.29073773,10.3513979 L5.285,6.346 L1.28033009,10.3513979 C1.01406352,10.6176645 0.597399841,10.6418705 0.303788347,10.4240161 L0.219669914,10.3513979 C-0.0732233047,10.0585047 -0.0732233047,9.58363094 0.219669914,9.29073773 L0.219669914,9.29073773 L4.224,5.285 L0.219669914,1.28033009 C-0.0465966484,1.01406352 -0.0708026996,0.597399841 0.147051761,0.303788347 Z" id="Shape" fill="#FFFAF0" fill-rule="nonzero"></path>
            <line x1="15" y1="6" x2="46" y2="6" id="Line-6-Copy" stroke="#FFFAF0" stroke-linecap="square" stroke-dasharray="2,2"></line>
        </g>
        <g id="Group-5" transform="translate(250.000000, 155.000000)">
            <text id="M" font-family="Calibre-Medium, Calibre" font-size="16" font-weight="400" fill="#FFFAF0">
                <tspan x="0" y="11">M</tspan>
            </text>
            <text id="Maybe-(link-is-broke" font-family="Calibre-Medium, Calibre" font-size="14" font-weight="400" fill="#FFFAF0">
                <tspan x="54" y="9">Maybe (link is broken </tspan>
                <tspan x="54" y="23">or no evidence)</tspan>
            </text>
            <line x1="17" y1="8" x2="48" y2="8" id="Line-6-Copy-2" stroke="#FFFAF0" stroke-linecap="square" stroke-dasharray="2,2"></line>
        </g>
        <text id="Mars-Inc." font-family="Gopher-Medium, Gopher" font-size="14" font-weight="400" line-spacing="40" fill="#FFFAF0">
            <tspan x="30" y="308">Mars Inc.</tspan>
        </text>
        <text id="Ferrero-Group" font-family="Gopher-Medium, Gopher" font-size="14" font-weight="400" line-spacing="40" fill="#FFFAF0">
            <tspan x="30" y="345">Ferrero Group</tspan>
        </text>
        <text id="Mondelez-Internation" font-family="Gopher-Medium, Gopher" font-size="14" font-weight="400" line-spacing="40" fill="#FFFAF0">
            <tspan x="30" y="377">Mondelez International</tspan>
        </text>
        <text id="Meiji-Co." font-family="Gopher-Medium, Gopher" font-size="14" font-weight="400" line-spacing="40" fill="#FFFAF0">
            <tspan x="30" y="414">Meiji Co.</tspan>
        </text>
        <text id="Hershey-Co." font-family="Gopher-Medium, Gopher" font-size="14" font-weight="400" line-spacing="40" fill="#FFFAF0">
            <tspan x="30" y="450">Hershey Co.</tspan>
        </text>
        <text id="Nestle-SA" font-family="Gopher-Medium, Gopher" font-size="14" font-weight="400" line-spacing="40" fill="#FFFAF0">
            <tspan x="30" y="486">Nestle SA</tspan>
        </text>
        <text id="Lindt-&amp;-Sprungli-AG" font-family="Gopher-Medium, Gopher" font-size="14" font-weight="400" line-spacing="40" fill="#FFFAF0">
            <tspan x="30" y="522">Lindt &amp; Sprungli AG</tspan>
        </text>
        <text id="Pladis" font-family="Gopher-Medium, Gopher" font-size="14" font-weight="400" line-spacing="40" fill="#FFFAF0">
            <tspan x="30" y="558">Pladis</tspan>
        </text>
        <text id="Godiva" font-family="Gopher-Medium, Gopher" font-size="14" font-weight="400" line-spacing="40" fill="#FFFAF0">
            <tspan x="30" y="595">Godiva</tspan>
        </text>
        <text id="Lotte" font-family="Gopher-Medium, Gopher" font-size="14" font-weight="400" line-spacing="40" fill="#FFFAF0">
            <tspan x="30" y="632">Lotte</tspan>
        </text>
    </g>
</svg>