<?xml version="1.0" encoding="UTF-8"?>
<svg width="1440px" height="500px" viewBox="0 0 1440 500" version="1.1" xmlns="http://www.w3.org/2000/svg" xmlns:xlink="http://www.w3.org/1999/xlink">
    <!-- Generator: Sketch 59.1 (86144) - https://sketch.com -->
    <title>1_1 definitions</title>
    <desc>Created with Sketch.</desc>
    <g id="1_1-definitions" stroke="none" stroke-width="1" fill="none" fill-rule="evenodd">
        <rect fill="#000000" x="0" y="0" width="1440" height="500"></rect>
        <rect id="Rectangle-Copy" fill="#FF7154" transform="translate(542.391892, 247.391892) scale(1, -1) rotate(-180.000000) translate(-542.391892, -247.391892) " x="538" y="243" width="8.78378378" height="8.78378378"></rect>
        <rect id="Rectangle-Copy" fill="#FF7154" transform="translate(542.608108, 226.797297) scale(1, -1) rotate(-180.000000) translate(-542.608108, -226.797297) " x="538.216216" y="222.405405" width="8.78378378" height="8.78378378"></rect>
        <rect id="Rectangle-Copy" fill="#FF7154" transform="translate(542.608108, 236.932432) scale(1, -1) rotate(-180.000000) translate(-542.608108, -236.932432) " x="538.216216" y="232.540541" width="8.78378378" height="8.78378378"></rect>
        <rect id="Rectangle-Copy-5" fill="#FF7154" transform="translate(501.767267, 267.337838) scale(1, -1) rotate(-180.000000) translate(-501.767267, -267.337838) " x="497.375375" y="262.945946" width="8.78378378" height="8.78378378"></rect>
        <rect id="Rectangle-Copy-5" fill="#FF7154" transform="translate(501.767267, 206.527027) scale(1, -1) rotate(-180.000000) translate(-501.767267, -206.527027) " x="497.375375" y="202.135135" width="8.78378378" height="8.78378378"></rect>
        <rect id="Rectangle-Copy-5" fill="#FF7154" transform="translate(501.767267, 236.932432) scale(1, -1) rotate(-180.000000) translate(-501.767267, -236.932432) " x="497.375375" y="232.540541" width="8.78378378" height="8.78378378"></rect>
        <rect id="Rectangle-Copy-5" fill="#FF7154" transform="translate(501.767267, 257.202703) scale(1, -1) rotate(-180.000000) translate(-501.767267, -257.202703) " x="497.375375" y="252.810811" width="8.78378378" height="8.78378378"></rect>
        <rect id="Rectangle-Copy-5" fill="#FF7154" transform="translate(501.767267, 216.662162) scale(1, -1) rotate(-180.000000) translate(-501.767267, -216.662162) " x="497.375375" y="212.27027" width="8.78378378" height="8.78378378"></rect>
        <rect id="Rectangle-Copy-3" fill="#FF7154" transform="translate(522.187688, 267.337838) scale(1, -1) rotate(-180.000000) translate(-522.187688, -267.337838) " x="517.795796" y="262.945946" width="8.78378378" height="8.78378378"></rect>
        <rect id="Rectangle-Copy-3" fill="#FF7154" transform="translate(522.187688, 206.527027) scale(1, -1) rotate(-180.000000) translate(-522.187688, -206.527027) " x="517.795796" y="202.135135" width="8.78378378" height="8.78378378"></rect>
        <rect id="Rectangle-Copy-3" fill="#FF7154" transform="translate(522.187688, 236.932432) scale(1, -1) rotate(-180.000000) translate(-522.187688, -236.932432) " x="517.795796" y="232.540541" width="8.78378378" height="8.78378378"></rect>
        <rect id="Rectangle-Copy-3" fill="#FF7154" transform="translate(522.187688, 257.202703) scale(1, -1) rotate(-180.000000) translate(-522.187688, -257.202703) " x="517.795796" y="252.810811" width="8.78378378" height="8.78378378"></rect>
        <rect id="Rectangle-Copy-3" fill="#FF7154" transform="translate(522.187688, 216.662162) scale(1, -1) rotate(-180.000000) translate(-522.187688, -216.662162) " x="517.795796" y="212.27027" width="8.78378378" height="8.78378378"></rect>
        <rect id="Rectangle-Copy-6" fill="#FF7154" transform="translate(481.346847, 267.337838) scale(1, -1) rotate(-180.000000) translate(-481.346847, -267.337838) " x="476.954955" y="262.945946" width="8.78378378" height="8.78378378"></rect>
        <rect id="Rectangle-Copy-6" fill="#FF7154" transform="translate(481.346847, 206.527027) scale(1, -1) rotate(-180.000000) translate(-481.346847, -206.527027) " x="476.954955" y="202.135135" width="8.78378378" height="8.78378378"></rect>
        <rect id="Rectangle-Copy-6" fill="#FF7154" transform="translate(481.346847, 236.932432) scale(1, -1) rotate(-180.000000) translate(-481.346847, -236.932432) " x="476.954955" y="232.540541" width="8.78378378" height="8.78378378"></rect>
        <rect id="Rectangle-Copy-6" fill="#FF7154" transform="translate(481.346847, 257.202703) scale(1, -1) rotate(-180.000000) translate(-481.346847, -257.202703) " x="476.954955" y="252.810811" width="8.78378378" height="8.78378378"></rect>
        <rect id="Rectangle-Copy-6" fill="#FF7154" transform="translate(481.346847, 216.662162) scale(1, -1) rotate(-180.000000) translate(-481.346847, -216.662162) " x="476.954955" y="212.27027" width="8.78378378" height="8.78378378"></rect>
        <rect id="Rectangle-Copy-9" fill="#FF7154" transform="translate(460.926426, 247.067568) scale(1, -1) rotate(-180.000000) translate(-460.926426, -247.067568) " x="456.534535" y="242.675676" width="8.78378378" height="8.78378378"></rect>
        <rect id="Rectangle-Copy-9" fill="#FF7154" transform="translate(460.926426, 226.797297) scale(1, -1) rotate(-180.000000) translate(-460.926426, -226.797297) " x="456.534535" y="222.405405" width="8.78378378" height="8.78378378"></rect>
        <rect id="Rectangle-Copy-9" fill="#FF7154" transform="translate(460.926426, 236.932432) scale(1, -1) rotate(-180.000000) translate(-460.926426, -236.932432) " x="456.534535" y="232.540541" width="8.78378378" height="8.78378378"></rect>
        <rect id="Rectangle-Copy-9" fill="#FF7154" transform="translate(460.926426, 257.202703) scale(1, -1) rotate(-180.000000) translate(-460.926426, -257.202703) " x="456.534535" y="252.810811" width="8.78378378" height="8.78378378"></rect>
        <rect id="Rectangle-Copy-9" fill="#FF7154" transform="translate(460.926426, 216.662162) scale(1, -1) rotate(-180.000000) translate(-460.926426, -216.662162) " x="456.534535" y="212.27027" width="8.78378378" height="8.78378378"></rect>
        <rect id="Rectangle-Copy-2" fill="#FF7154" transform="translate(532.397898, 226.797297) scale(1, -1) rotate(-180.000000) translate(-532.397898, -226.797297) " x="528.006006" y="222.405405" width="8.78378378" height="8.78378378"></rect>
        <rect id="Rectangle-Copy-2" fill="#FF7154" transform="translate(532.397898, 236.932432) scale(1, -1) rotate(-180.000000) translate(-532.397898, -236.932432) " x="528.006006" y="232.540541" width="8.78378378" height="8.78378378"></rect>
        <rect id="Rectangle-Copy-11" fill="#FF7154" transform="translate(532.391892, 247.391892) scale(1, -1) rotate(-180.000000) translate(-532.391892, -247.391892) " x="528" y="243" width="8.78378378" height="8.78378378"></rect>
        <rect id="Rectangle-Copy-2" fill="#FF7154" transform="translate(532.397898, 257.202703) scale(1, -1) rotate(-180.000000) translate(-532.397898, -257.202703) " x="528.006006" y="252.810811" width="8.78378378" height="8.78378378"></rect>
        <rect id="Rectangle-Copy-2" fill="#FF7154" transform="translate(532.397898, 216.662162) scale(1, -1) rotate(-180.000000) translate(-532.397898, -216.662162) " x="528.006006" y="212.27027" width="8.78378378" height="8.78378378"></rect>
        <rect id="Rectangle-Copy-7" fill="#FF7154" transform="translate(491.557057, 267.337838) scale(1, -1) rotate(-180.000000) translate(-491.557057, -267.337838) " x="487.165165" y="262.945946" width="8.78378378" height="8.78378378"></rect>
        <rect id="Rectangle-Copy-7" fill="#FF7154" transform="translate(491.557057, 206.527027) scale(1, -1) rotate(-180.000000) translate(-491.557057, -206.527027) " x="487.165165" y="202.135135" width="8.78378378" height="8.78378378"></rect>
        <rect id="Rectangle-Copy-7" fill="#FF7154" transform="translate(491.557057, 236.932432) scale(1, -1) rotate(-180.000000) translate(-491.557057, -236.932432) " x="487.165165" y="232.540541" width="8.78378378" height="8.78378378"></rect>
        <rect id="Rectangle-Copy-7" fill="#FF7154" transform="translate(491.557057, 257.202703) scale(1, -1) rotate(-180.000000) translate(-491.557057, -257.202703) " x="487.165165" y="252.810811" width="8.78378378" height="8.78378378"></rect>
        <rect id="Rectangle-Copy-7" fill="#FF7154" transform="translate(491.557057, 216.662162) scale(1, -1) rotate(-180.000000) translate(-491.557057, -216.662162) " x="487.165165" y="212.27027" width="8.78378378" height="8.78378378"></rect>
        <rect id="Rectangle-Copy-4" fill="#FF7154" transform="translate(511.977477, 267.337838) scale(1, -1) rotate(-180.000000) translate(-511.977477, -267.337838) " x="507.585586" y="262.945946" width="8.78378378" height="8.78378378"></rect>
        <rect id="Rectangle-Copy-4" fill="#FF7154" transform="translate(511.977477, 206.527027) scale(1, -1) rotate(-180.000000) translate(-511.977477, -206.527027) " x="507.585586" y="202.135135" width="8.78378378" height="8.78378378"></rect>
        <rect id="Rectangle-Copy-4" fill="#FF7154" transform="translate(511.977477, 236.932432) scale(1, -1) rotate(-180.000000) translate(-511.977477, -236.932432) " x="507.585586" y="232.540541" width="8.78378378" height="8.78378378"></rect>
        <rect id="Rectangle-Copy-4" fill="#FF7154" transform="translate(511.977477, 257.202703) scale(1, -1) rotate(-180.000000) translate(-511.977477, -257.202703) " x="507.585586" y="252.810811" width="8.78378378" height="8.78378378"></rect>
        <rect id="Rectangle-Copy-4" fill="#FF7154" transform="translate(511.977477, 216.662162) scale(1, -1) rotate(-180.000000) translate(-511.977477, -216.662162) " x="507.585586" y="212.27027" width="8.78378378" height="8.78378378"></rect>
        <rect id="Rectangle-Copy-8" fill="#FF7154" transform="translate(471.136637, 267.337838) scale(1, -1) rotate(-180.000000) translate(-471.136637, -267.337838) " x="466.744745" y="262.945946" width="8.78378378" height="8.78378378"></rect>
        <rect id="Rectangle-Copy-8" fill="#FF7154" transform="translate(471.136637, 206.527027) scale(1, -1) rotate(-180.000000) translate(-471.136637, -206.527027) " x="466.744745" y="202.135135" width="8.78378378" height="8.78378378"></rect>
        <rect id="Rectangle-Copy-8" fill="#FF7154" transform="translate(471.136637, 236.932432) scale(1, -1) rotate(-180.000000) translate(-471.136637, -236.932432) " x="466.744745" y="232.540541" width="8.78378378" height="8.78378378"></rect>
        <rect id="Rectangle-Copy-8" fill="#FF7154" transform="translate(471.136637, 257.202703) scale(1, -1) rotate(-180.000000) translate(-471.136637, -257.202703) " x="466.744745" y="252.810811" width="8.78378378" height="8.78378378"></rect>
        <rect id="Rectangle-Copy-8" fill="#FF7154" transform="translate(471.136637, 216.662162) scale(1, -1) rotate(-180.000000) translate(-471.136637, -216.662162) " x="466.744745" y="212.27027" width="8.78378378" height="8.78378378"></rect>
        <rect id="Rectangle-Copy-10" fill="#FF7154" transform="translate(450.716216, 247.067568) scale(1, -1) rotate(-180.000000) translate(-450.716216, -247.067568) " x="446.324324" y="242.675676" width="8.78378378" height="8.78378378"></rect>
        <rect id="Rectangle-Copy-10" fill="#FF7154" transform="translate(450.716216, 226.797297) scale(1, -1) rotate(-180.000000) translate(-450.716216, -226.797297) " x="446.324324" y="222.405405" width="8.78378378" height="8.78378378"></rect>
        <rect id="Rectangle-Copy-10" fill="#FF7154" transform="translate(450.716216, 236.932432) scale(1, -1) rotate(-180.000000) translate(-450.716216, -236.932432) " x="446.324324" y="232.540541" width="8.78378378" height="8.78378378"></rect>
        <text id="Cacao-[n.]-refers-to" font-family="Courier-Bold, Courier" font-size="14" font-weight="bold">
            <tspan x="444" y="324" fill="#FF7154">Cacao</tspan>
            <tspan x="486.006836" y="324" font-family="Courier" font-weight="normal" fill="#FFFAF0"> </tspan>
            <tspan x="444" y="341" font-family="Courier" font-weight="normal" fill="#FFFAF0">[n.] refers to the pod and beans </tspan>
            <tspan x="444" y="358" font-family="Courier" font-weight="normal" fill="#FFFAF0">derived from the chocolate tree, </tspan>
            <tspan x="444" y="375" font-family="Courier" font-weight="normal" fill="#FFFAF0">Theobroma cacao.</tspan>
        </text>
        <text id="Cocoa-[n.]-refers-to" font-family="Courier-Bold, Courier" font-size="14" font-weight="bold">
            <tspan x="872" y="324" fill="#FF7154">Cocoa</tspan>
            <tspan x="914.006836" y="324" font-family="Courier" font-weight="normal" fill="#FFFAF0"> </tspan>
            <tspan x="872" y="341" font-family="Courier" font-weight="normal" fill="#FFFAF0">[n.] refers to the powder left </tspan>
            <tspan x="872" y="358" font-family="Courier" font-weight="normal" fill="#FFFAF0">after pressing the fat out of </tspan>
            <tspan x="872" y="375" font-family="Courier" font-weight="normal" fill="#FFFAF0">the ground beans. </tspan>
        </text>
        <text id="Cacao-VS-Cocoa" font-family="Gopher-Bold, Gopher" font-size="22" font-weight="bold" fill="#FFFAF0">
            <tspan x="50" y="62">Cacao VS Cocoa</tspan>
        </text>
        <text id="In-this-project,-the" font-family="Courier" font-size="10" font-weight="normal" line-spacing="12" fill="#FFFAF0">
            <tspan x="50" y="91">In this project, there are two terms that’s </tspan>
            <tspan x="50" y="103">been used frequently: cacao &amp; cocoa. </tspan>
            <tspan x="50" y="115">Although both of them refers to the same </tspan>
            <tspan x="50" y="127">thing but there is a slight difference </tspan>
            <tspan x="50" y="139">between them.</tspan>
        </text>
        <rect id="Rectangle-Copy" fill="#FF7154" transform="translate(876.391892, 216.662162) scale(1, -1) translate(-876.391892, -216.662162) " x="872" y="212.27027" width="8.78378378" height="8.78378378"></rect>
        <rect id="Rectangle-Copy-5" fill="#FF7154" transform="translate(917.232733, 236.932432) scale(1, -1) translate(-917.232733, -236.932432) " x="912.840841" y="232.540541" width="8.78378378" height="8.78378378"></rect>
        <rect id="Rectangle-Copy-5" fill="#FF7154" transform="translate(917.232733, 216.662162) scale(1, -1) translate(-917.232733, -216.662162) " x="912.840841" y="212.27027" width="8.78378378" height="8.78378378"></rect>
        <rect id="Rectangle-Copy-5" fill="#FF7154" transform="translate(917.232733, 257.202703) scale(1, -1) translate(-917.232733, -257.202703) " x="912.840841" y="252.810811" width="8.78378378" height="8.78378378"></rect>
        <rect id="Rectangle-Copy-5" fill="#FF7154" transform="translate(917.232733, 247.067568) scale(1, -1) translate(-917.232733, -247.067568) " x="912.840841" y="242.675676" width="8.78378378" height="8.78378378"></rect>
        <rect id="Rectangle-Copy-5" fill="#FF7154" transform="translate(917.232733, 226.797297) scale(1, -1) translate(-917.232733, -226.797297) " x="912.840841" y="222.405405" width="8.78378378" height="8.78378378"></rect>
        <rect id="Rectangle-Copy-3" fill="#FF7154" transform="translate(896.812312, 247.067568) scale(1, -1) translate(-896.812312, -247.067568) " x="892.42042" y="242.675676" width="8.78378378" height="8.78378378"></rect>
        <rect id="Rectangle-Copy-3" fill="#FF7154" transform="translate(896.812312, 226.797297) scale(1, -1) translate(-896.812312, -226.797297) " x="892.42042" y="222.405405" width="8.78378378" height="8.78378378"></rect>
        <rect id="Rectangle-Copy-3" fill="#FF7154" transform="translate(896.812312, 287.608108) scale(1, -1) translate(-896.812312, -287.608108) " x="892.42042" y="283.216216" width="8.78378378" height="8.78378378"></rect>
        <rect id="Rectangle-Copy-6" fill="#FF7154" transform="translate(937.653153, 236.932432) scale(1, -1) translate(-937.653153, -236.932432) " x="933.261261" y="232.540541" width="8.78378378" height="8.78378378"></rect>
        <rect id="Rectangle-Copy-6" fill="#FF7154" transform="translate(937.653153, 216.662162) scale(1, -1) translate(-937.653153, -216.662162) " x="933.261261" y="212.27027" width="8.78378378" height="8.78378378"></rect>
        <rect id="Rectangle-Copy-6" fill="#FF7154" transform="translate(937.653153, 277.472973) scale(1, -1) translate(-937.653153, -277.472973) " x="933.261261" y="273.081081" width="8.78378378" height="8.78378378"></rect>
        <rect id="Rectangle-Copy-6" fill="#FF7154" transform="translate(937.653153, 247.067568) scale(1, -1) translate(-937.653153, -247.067568) " x="933.261261" y="242.675676" width="8.78378378" height="8.78378378"></rect>
        <rect id="Rectangle-Copy-9" fill="#FF7154" transform="translate(958.073574, 226.797297) scale(1, -1) translate(-958.073574, -226.797297) " x="953.681682" y="222.405405" width="8.78378378" height="8.78378378"></rect>
        <rect id="Rectangle-Copy-2" fill="#FF7154" transform="translate(886.602102, 257.202703) scale(1, -1) translate(-886.602102, -257.202703) " x="882.21021" y="252.810811" width="8.78378378" height="8.78378378"></rect>
        <rect id="Rectangle-Copy-7" fill="#FF7154" transform="translate(927.442943, 236.932432) scale(1, -1) translate(-927.442943, -236.932432) " x="923.051051" y="232.540541" width="8.78378378" height="8.78378378"></rect>
        <rect id="Rectangle-Copy-7" fill="#FF7154" transform="translate(927.442943, 257.202703) scale(1, -1) translate(-927.442943, -257.202703) " x="923.051051" y="252.810811" width="8.78378378" height="8.78378378"></rect>
        <rect id="Rectangle-Copy-7" fill="#FF7154" transform="translate(927.442943, 247.067568) scale(1, -1) translate(-927.442943, -247.067568) " x="923.051051" y="242.675676" width="8.78378378" height="8.78378378"></rect>
        <rect id="Rectangle-Copy-7" fill="#FF7154" transform="translate(927.442943, 226.797297) scale(1, -1) translate(-927.442943, -226.797297) " x="923.051051" y="222.405405" width="8.78378378" height="8.78378378"></rect>
        <rect id="Rectangle-Copy-7" fill="#FF7154" transform="translate(927.442943, 267.337838) scale(1, -1) translate(-927.442943, -267.337838) " x="923.051051" y="262.945946" width="8.78378378" height="8.78378378"></rect>
        <rect id="Rectangle-Copy-4" fill="#FF7154" transform="translate(907.022523, 236.932432) scale(1, -1) translate(-907.022523, -236.932432) " x="902.630631" y="232.540541" width="8.78378378" height="8.78378378"></rect>
        <rect id="Rectangle-Copy-4" fill="#FF7154" transform="translate(907.022523, 206.527027) scale(1, -1) translate(-907.022523, -206.527027) " x="902.630631" y="202.135135" width="8.78378378" height="8.78378378"></rect>
        <rect id="Rectangle-Copy-4" fill="#FF7154" transform="translate(907.022523, 247.067568) scale(1, -1) translate(-907.022523, -247.067568) " x="902.630631" y="242.675676" width="8.78378378" height="8.78378378"></rect>
        <rect id="Rectangle-Copy-4" fill="#FF7154" transform="translate(907.022523, 267.337838) scale(1, -1) translate(-907.022523, -267.337838) " x="902.630631" y="262.945946" width="8.78378378" height="8.78378378"></rect>
        <rect id="Rectangle-Copy-8" fill="#FF7154" transform="translate(947.863363, 196.391892) scale(1, -1) translate(-947.863363, -196.391892) " x="943.471471" y="192" width="8.78378378" height="8.78378378"></rect>
        <rect id="Rectangle-Copy-8" fill="#FF7154" transform="translate(947.863363, 236.932432) scale(1, -1) translate(-947.863363, -236.932432) " x="943.471471" y="232.540541" width="8.78378378" height="8.78378378"></rect>
        <rect id="Rectangle-Copy-8" fill="#FF7154" transform="translate(947.863363, 257.202703) scale(1, -1) translate(-947.863363, -257.202703) " x="943.471471" y="252.810811" width="8.78378378" height="8.78378378"></rect>
        <rect id="Rectangle-Copy-10" fill="#FF7154" transform="translate(968.283784, 267.337838) scale(1, -1) translate(-968.283784, -267.337838) " x="963.891892" y="262.945946" width="8.78378378" height="8.78378378"></rect>
    </g>
</svg>