<?xml version="1.0" encoding="UTF-8"?>
<svg width="1920px" height="1080px" viewBox="0 0 1920 1080" version="1.1" xmlns="http://www.w3.org/2000/svg" xmlns:xlink="http://www.w3.org/1999/xlink">
    <!-- Generator: Sketch 59.1 (86144) - https://sketch.com -->
    <title>endpage2</title>
    <desc>Created with Sketch.</desc>
    <defs>
        <polygon id="path-1" points="0 498 1920 498 1655.59375 1080 245.921875 1080"></polygon>
        <filter x="-0.7%" y="-2.0%" width="101.4%" height="104.3%" filterUnits="objectBoundingBox" id="filter-2">
            <feMorphology radius="1" operator="dilate" in="SourceAlpha" result="shadowSpreadOuter1"></feMorphology>
            <feOffset dx="1" dy="1" in="shadowSpreadOuter1" result="shadowOffsetOuter1"></feOffset>
            <feGaussianBlur stdDeviation="3" in="shadowOffsetOuter1" result="shadowBlurOuter1"></feGaussianBlur>
            <feComposite in="shadowBlurOuter1" in2="SourceAlpha" operator="out" result="shadowBlurOuter1"></feComposite>
            <feColorMatrix values="0 0 0 0 0   0 0 0 0 0   0 0 0 0 0  0 0 0 0.1 0" type="matrix" in="shadowBlurOuter1"></feColorMatrix>
        </filter>
        <path d="M0,0 L1920,0 L1669.24893,859.209917 C1661.1567,886.938292 1635.73688,906 1606.85182,906 L295.630456,906 C266.289627,906 240.586376,886.343505 232.900306,858.02728 L0,0 L0,0 Z" id="path-3"></path>
        <filter x="-0.6%" y="-1.3%" width="101.4%" height="102.8%" filterUnits="objectBoundingBox" id="filter-4">
            <feMorphology radius="1" operator="dilate" in="SourceAlpha" result="shadowSpreadOuter1"></feMorphology>
            <feOffset dx="1" dy="1" in="shadowSpreadOuter1" result="shadowOffsetOuter1"></feOffset>
            <feGaussianBlur stdDeviation="3" in="shadowOffsetOuter1" result="shadowBlurOuter1"></feGaussianBlur>
            <feComposite in="shadowBlurOuter1" in2="SourceAlpha" operator="out" result="shadowBlurOuter1"></feComposite>
            <feColorMatrix values="0 0 0 0 0   0 0 0 0 0   0 0 0 0 0  0 0 0 0.1 0" type="matrix" in="shadowBlurOuter1"></feColorMatrix>
        </filter>
    </defs>
    <g id="endpage2" stroke="none" stroke-width="1" fill="none" fill-rule="evenodd">
        <rect fill="#000000" x="0" y="0" width="1920" height="1080"></rect>
        <text id="Scroll" transform="translate(1212.042990, 384.586659) rotate(9.000000) translate(-1212.042990, -384.586659) " font-family="Gopher-Medium, Gopher" font-size="18" font-weight="400" fill="#46322B">
            <tspan x="1178.54299" y="390.086659">Scroll</tspan>
        </text>
        <path id="Line-2" d="M1230.15435,385.520553 L1253.819,390.403 L1254.62779,386.486354 L1262.53267,392.712328 L1252.80896,395.300654 L1253.617,391.382 L1229.95226,386.49992 L1230.15435,385.520553 Z" fill="#3C2623" fill-rule="nonzero"></path>
        <rect id="Rectangle" fill="#FFFAF0" x="0" y="0" width="1920" height="1079"></rect>
        <g id="Rectangle" transform="translate(960.000000, 789.000000) scale(1, -1) translate(-960.000000, -789.000000) ">
            <use fill="black" fill-opacity="1" filter="url(#filter-2)" xlink:href="#path-1"></use>
            <path stroke="#FFFAF0" stroke-width="4" d="M3.01630885,500 L247.247999,1078 L1654.30564,1078 L1916.89467,500 L3.01630885,500 Z" stroke-linejoin="square" fill="#FFFAF0" fill-rule="evenodd"></path>
        </g>
        <g id="Rectangle">
            <use fill="black" fill-opacity="1" filter="url(#filter-4)" xlink:href="#path-3"></use>
            <path stroke="#FFFAF0" stroke-width="4" d="M2.61524261,2 L234.830465,857.503364 C242.28004,884.948321 267.192422,904 295.630456,904 L1606.85182,904 C1634.84811,904 1659.48578,885.524806 1667.32902,858.649612 L1917.33289,2 L2.61524261,2 Z" stroke-linejoin="square" fill="#FFFAF0" fill-rule="evenodd"></path>
        </g>
        <g id="Group-12" transform="translate(1303.000000, 554.000000)">
            <rect id="Rectangle" fill="#F5E2C2" x="0" y="0" width="538" height="448" rx="9"></rect>
            <g id="Group-33" transform="translate(18.000000, 28.000000)">
                <text id="A-Guilty-Pleasure" opacity="0" font-family="Gopher-Medium, Gopher" font-size="60" font-weight="400" fill="#000000">
                    <tspan x="0" y="70">A Guilty Pleasure</tspan>
                </text>
                <text id="Production-Date:-05/" font-family="Gopher-Regular, Gopher" font-size="18" font-weight="normal" fill="#000000">
                    <tspan x="0" y="391">Production Date: 05/06/2020</tspan>
                </text>
                <text id="“A-Guilty-Pleasure”" font-family="Courier" font-size="20" font-weight="normal" fill="#000000">
                    <tspan x="0" y="33">“A Guilty Pleasure” was created by </tspan>
                    <tspan x="0" y="57">Xingwei in partial fulfillment of the </tspan>
                    <tspan x="0" y="81">requirements for the degree of Master </tspan>
                    <tspan x="0" y="105">Science in Data Visualization at Parsons </tspan>
                    <tspan x="0" y="129">School of Design.</tspan>
                    <tspan x="0" y="153"></tspan>
                </text>
                <text id="For-all-the-datasets" font-family="Courier" font-size="20" font-weight="normal" fill="#000000">
                    <tspan x="0" y="249">For all the datasets that’s been used in </tspan>
                    <tspan x="0" y="273">this project, you may visit </tspan>
                    <tspan x="336.054688" y="273" font-family="Courier-Bold, Courier" font-weight="bold">here</tspan>
                    <tspan x="384.0625" y="273">.</tspan>
                    <tspan x="0" y="297"></tspan>
                </text>
                <line x1="0.423986486" y1="0.5" x2="501.576014" y2="0.5" id="Line" stroke="#000000" stroke-width="2" stroke-linecap="square"></line>
                <line x1="0.423986486" y1="361" x2="501.576014" y2="361" id="Line-Copy-4" stroke="#000000" stroke-width="2" stroke-linecap="square"></line>
                <line x1="0.423986486" y1="220" x2="501.576014" y2="220" id="Line-Copy" stroke="#000000" stroke-width="2" stroke-linecap="square" stroke-dasharray="3,6"></line>
            </g>
        </g>
    </g>
</svg>