<?xml version="1.0" encoding="UTF-8"?>
<svg width="1440px" height="750px" viewBox="0 0 1440 750" version="1.1" xmlns="http://www.w3.org/2000/svg" xmlns:xlink="http://www.w3.org/1999/xlink">
    <!-- Generator: Sketch 59.1 (86144) - https://sketch.com -->
    <title>forests</title>
    <desc>Created with Sketch.</desc>
    <g id="forests" stroke="none" stroke-width="1" fill="none" fill-rule="evenodd">
        <rect fill="#000000" x="0" y="0" width="1440" height="750"></rect>
        <text id="Cocoa-farming-and-fo" font-family="Gopher-Bold, Gopher" font-size="22" font-weight="bold" fill="#FFFAF0">
            <tspan x="30" y="62">Cocoa farming and forest degradation </tspan>
            <tspan x="30" y="89">inside protected areas</tspan>
        </text>
        <text id="The-graph-on-the-rig" font-family="Courier-Bold, Courier" font-size="10" font-weight="bold" line-spacing="12" fill="#FFFAF0">
            <tspan x="30" y="140">The graph on the right shows cocoa farming &amp; </tspan>
            <tspan x="30" y="152">deforestation inside 23 protected areas </tspan>
            <tspan x="30" y="164">surveyed in the research paper published by </tspan>
            <tspan x="30" y="176">the Anthropology Department at The Ohio </tspan>
            <tspan x="30" y="188">State University. These 23 forests were </tspan>
            <tspan x="30" y="200">originally selected based on the likelihood </tspan>
            <tspan x="30" y="212">that they contained primate taxa.</tspan>
        </text>
        <g id="Group-7" transform="translate(30.000000, 225.000000)" font-family="Gopher-Bold, Gopher" font-size="10" font-weight="bold">
            <g id="Group">
                <text id="1.-Bolo-Ouest-FR-2." line-spacing="13" fill="#FFFAF0">
                    <tspan x="0" y="28">1. Bolo-Ouest FR</tspan>
                    <tspan x="0" y="41">2. Niegre FR</tspan>
                    <tspan x="0" y="54">3. Monogaga FR</tspan>
                    <tspan x="0" y="67">4. Rapide Grah FR</tspan>
                    <tspan x="0" y="80">5. Mont Peko NP</tspan>
                </text>
                <text id="≈100%" line-spacing="23" fill="#FF7154">
                    <tspan x="0" y="10">≈100%</tspan>
                </text>
            </g>
            <g id="Group-2" transform="translate(0.000000, 91.000000)">
                <text id="6.-Marahoué-NP-7.-Ko" line-spacing="13" fill="#FFFAF0">
                    <tspan x="0" y="28">6. Marahoué NP</tspan>
                    <tspan x="0" y="41">7. Koba FR</tspan>
                    <tspan x="0" y="54">8. Séguéla FR</tspan>
                    <tspan x="0" y="67">9. Haut Dé FR </tspan>
                    <tspan x="0" y="80">10. Moyenne Marahoué FR</tspan>
                </text>
                <text id="&gt;90%-copy" line-spacing="23" fill="#FF7154">
                    <tspan x="0" y="10">&gt;90%</tspan>
                </text>
            </g>
            <g id="Group-3" transform="translate(0.000000, 182.000000)">
                <text id="11.-Dassioko-FR-12." line-spacing="13" fill="#FFFAF0">
                    <tspan x="0" y="29">11. Dassioko FR</tspan>
                    <tspan x="0" y="42">12. Port-Gauthier FR</tspan>
                    <tspan x="0" y="55">13. Kani-Bandaman Rouge FR</tspan>
                    <tspan x="0" y="68">14. Dé FR </tspan>
                </text>
                <text id="&gt;80%" line-spacing="23" fill="#FF7154">
                    <tspan x="0" y="10">&gt;80%</tspan>
                </text>
            </g>
            <g id="Group-4" transform="translate(0.000000, 260.000000)">
                <text id="15.-Bouaflé-FR-16.-H" line-spacing="13" fill="#FFFAF0">
                    <tspan x="0" y="29">15. Bouaflé FR</tspan>
                    <tspan x="0" y="42">16. Haut Sassandra FR</tspan>
                </text>
                <text id="&gt;70%" line-spacing="23" fill="#FF7154">
                    <tspan x="0" y="10">&gt;70%</tspan>
                </text>
            </g>
            <g id="Group-5" transform="translate(0.000000, 313.000000)">
                <text id="17.-Azagny-NP-18.-Bo" line-spacing="13" fill="#FFFAF0">
                    <tspan x="0" y="29">17. Azagny NP</tspan>
                    <tspan x="0" y="42">18. Bossématié FR</tspan>
                    <tspan x="0" y="55">19. Mabi FR</tspan>
                    <tspan x="0" y="68">20. Yaya FR</tspan>
                </text>
                <text id="&gt;10%" line-spacing="23" fill="#FF7154">
                    <tspan x="0" y="10">&gt;10%</tspan>
                </text>
            </g>
            <g id="Group-6" transform="translate(0.000000, 392.000000)">
                <text id="21.-Banco-NP-22.-Ile" line-spacing="13" fill="#FFFAF0">
                    <tspan x="0" y="29">21. Banco NP</tspan>
                    <tspan x="0" y="42">22. Ile Ehotilé NP</tspan>
                    <tspan x="0" y="55">23. N'Gadan FR</tspan>
                </text>
                <text id="≈0%" line-spacing="23" fill="#FF7154">
                    <tspan x="0" y="10">≈0%</tspan>
                </text>
            </g>
        </g>
        <g id="Group-10" transform="translate(225.960673, 99.000000)">
            <path d="M995.245014,0 C989.336448,5.00720289 984.762621,8.67010747 981.523532,10.9887137 C976.664899,14.4666231 964.249558,27.7616101 961.381651,33.3255604 C958.513744,38.8895107 951.039327,51.2841878 951.039327,67.0087782 C951.039327,82.7333686 954.861452,108.60098 961.381651,120.498813 C967.90185,132.396646 980.488775,147.037693 983.897697,152.908207 C987.306619,158.778721 1001.99633,170 1005.89549,170 C1008.49493,170 1010.33742,167.260897 1011.42295,161.78269 C1014.02706,166.264859 1016.47359,167.385401 1018.76255,165.144317 C1022.19599,161.78269 1026.77273,156.601063 1026.77273,150.367607 C1026.77273,144.13415 1024.269,139.514556 1026.77273,135.527469 C1029.27646,131.540383 1029.02959,114.275928 1029.02959,109.78495 C1029.02959,105.293971 1029.31673,96.3261097 1026.77273,81.667444 C1024.22873,67.0087782 1025.66114,61.7797877 1011.72585,39.6946802 C1002.43566,24.9712752 996.942045,11.7397151 995.245014,0 Z" id="Path-34" stroke="#FFFAF0"></path>
            <path d="M994.411316,4 C988.881505,8.77156982 984.600872,12.2621024 981.569416,14.4715978 C977.022234,17.7858409 965.402748,30.4551814 962.718681,35.7572988 C960.034615,41.0594161 953.039327,52.8708143 953.039327,67.8554239 C953.039327,82.8400336 956.616444,107.490346 962.718681,118.828281 C968.820919,130.166216 980.600989,144.118273 983.791391,149.712527 C986.981793,155.306781 1000.72985,166 1004.37907,166 C1006.81188,166 1008.53626,163.389796 1009.55221,158.169387 C1011.98939,162.440631 1014.27909,163.508441 1016.42132,161.37282 C1019.63466,158.169387 1023.91803,153.231602 1023.91803,147.291484 C1023.91803,141.351366 1021.57479,136.949165 1023.91803,133.149706 C1026.26126,129.350247 1026.03021,112.898237 1026.03021,108.618599 C1026.03021,104.338961 1026.29895,95.7931163 1023.91803,81.8242701 C1021.5371,67.8554239 1022.87769,62.8725036 1009.83569,41.8266953 C1001.14102,27.7961564 995.999563,15.187258 994.411316,4 Z" id="Path-34" fill="#FFFAF0"></path>
            <text id="1" font-family="Gopher-Bold, Gopher" font-size="15" font-weight="bold" line-spacing="23" fill="#000000">
                <tspan x="987.039327" y="98">1</tspan>
            </text>
            <path d="M740.842153,337.448582 C734.887462,342.450731 730.277892,346.109897 727.013444,348.426077 C722.116772,351.900348 709.604979,365.182476 706.715214,370.741443 C703.825449,376.300409 696.293709,388.683799 696.296373,404.395688 C696.299038,420.107578 700.155934,445.954949 706.729986,457.844285 C713.304038,469.733621 725.993514,484.364992 729.430533,490.231346 C732.867552,496.0977 747.675947,507.31309 751.60611,507.31309 C754.226218,507.31309 756.082889,504.576513 757.176124,499.103361 C759.801698,503.582354 762.267872,504.702409 764.574646,502.463526 C768.034808,499.1052 772.647061,493.92854 772.646005,487.700118 C772.644949,481.471696 770.120532,476.855406 772.643491,472.871968 C775.166449,468.888529 774.914689,451.637976 774.913928,447.150626 C774.913167,442.663275 775.201071,433.702706 772.634364,419.055445 C770.067656,404.408185 771.510562,399.183663 757.460742,377.114014 C748.094196,362.400915 742.554666,349.179104 740.842153,337.448582 Z" id="Path-34-Copy-5" stroke="#FFFAF0" transform="translate(735.609811, 422.380836) rotate(-165.000000) translate(-735.609811, -422.380836) "></path>
            <path d="M739.220218,362.716543 C734.545047,366.64385 730.925963,369.516748 728.362967,371.335237 C724.518472,374.06297 714.695163,384.491088 712.42634,388.855566 C710.157516,393.220044 704.244166,402.94254 704.246258,415.278321 C704.24835,427.614102 707.276492,447.907492 712.437938,457.242095 C717.599384,466.576698 727.562195,478.064137 730.260681,482.669953 C732.959167,487.275768 744.585593,496.081239 747.671258,496.081239 C749.728368,496.081239 751.186085,493.932687 752.04441,489.635584 C754.105811,493.152149 756.042063,494.031531 757.853167,492.27373 C760.569823,489.637028 764.191013,485.572708 764.190184,480.682625 C764.189355,475.792542 762.207375,472.168182 764.18821,469.040688 C766.169045,465.913195 765.971382,452.369373 765.970785,448.846246 C765.970187,445.32312 766.196228,438.287962 764.181044,426.788047 C762.165861,415.288132 763.298721,411.186234 752.26787,393.858824 C744.91397,382.307218 740.564753,371.926457 739.220218,362.716543 Z" id="Path-34-Copy-5" stroke="#FFFAF0" stroke-width="2" fill="#FFFAF0" transform="translate(735.112180, 429.398891) rotate(-165.000000) translate(-735.112180, -429.398891) "></path>
            <text id="10" font-family="Gopher-Bold, Gopher" font-size="15" font-weight="bold" line-spacing="23" fill="#000000">
                <tspan x="728.039327" y="424">10</tspan>
            </text>
            <path d="M245.119551,361.670722 C239.164036,366.675181 234.553874,370.336091 231.289067,372.65345 C226.391857,376.12949 213.877732,389.417036 210.986889,394.977762 C208.096045,400.538487 200.56121,412.926032 200.56121,428.641123 C200.56121,444.356214 204.411594,470.208017 210.982782,482.098352 C217.553969,493.988687 230.239719,508.62029 233.675316,514.487095 C237.110914,520.3539 251.916231,531.567516 255.846221,531.567516 C258.466215,531.567516 260.323398,528.82998 261.417771,523.354907 C264.042259,527.834244 266.508083,528.953993 268.815241,526.714154 C272.275979,523.354395 276.889153,518.17568 276.889447,511.945989 C276.889741,505.716298 274.366435,501.099614 276.890146,497.114817 C279.413857,493.13002 279.165848,475.876006 279.166059,471.387741 C279.166271,466.899476 279.456104,457.937018 276.892684,443.287329 C274.329263,428.63764 275.773238,423.41174 261.728816,401.340638 C252.365868,386.62657 246.829447,373.403264 245.119551,361.670722 Z" id="Path-34-Copy-16" stroke="#FFFAF0" transform="translate(239.868612, 446.619119) rotate(94.000000) translate(-239.868612, -446.619119) "></path>
            <path d="M647.693507,76.5013359 C641.734764,81.5068946 637.122164,85.1686782 633.855705,87.4866865 C628.956017,90.9636991 616.434348,104.253257 613.541076,109.814179 C610.647804,115.375101 603.10796,127.763385 603.102886,143.476784 C603.097823,159.190182 606.943024,185.038141 613.512978,196.925388 C620.082932,208.812634 632.768591,223.439172 636.203639,229.3044 C639.638688,235.169628 654.445513,246.376881 658.376724,246.376881 C660.997531,246.376881 662.856044,243.639129 663.952265,238.163624 C666.576334,242.641757 669.042615,243.760707 671.351107,241.520473 C674.813844,238.160124 679.429876,232.980698 679.431885,226.751678 C679.433895,220.522658 676.911077,215.907165 679.436669,211.922103 C681.962261,207.937041 681.718925,190.684953 681.720373,186.197172 C681.72182,181.70939 682.014212,172.747818 679.454029,158.100411 C676.893847,143.453005 678.339709,138.227271 664.297005,116.16241 C654.935202,101.452502 649.400702,88.2321441 647.693507,76.5013359 Z" id="Path-34-Copy-10" stroke="#FFFAF0" transform="translate(642.417019, 161.439108) rotate(144.000000) translate(-642.417019, -161.439108) "></path>
            <path d="M854.797681,400.785921 C848.839019,405.791302 844.226477,409.452951 840.960055,411.770868 C836.060421,415.247744 823.53897,428.536888 820.645793,434.097679 C817.752615,439.65847 810.212979,452.046441 810.208185,467.759613 C810.203399,483.472786 814.049064,509.320441 820.619237,521.207633 C827.18941,533.094824 839.875346,547.721376 843.310503,553.58658 C846.74566,559.451785 861.552704,570.659209 865.48392,570.659209 C868.104731,570.659209 869.963199,567.921529 871.059324,562.446169 C873.683476,566.924284 876.14978,568.043261 878.458235,565.803101 C881.920918,562.442861 886.536865,557.263592 886.538764,551.034662 C886.540663,544.805731 884.01776,540.19026 886.543285,536.2053 C889.068809,532.22034 888.825168,514.968497 888.826536,510.48078 C888.827905,505.993063 889.120138,497.031625 886.559692,482.384384 C883.999247,467.737144 885.445019,462.51151 871.401904,440.446718 C862.039828,425.736856 856.505087,412.516591 854.797681,400.785921 Z" id="Path-34-Copy-11" stroke="#FFFAF0" transform="translate(849.522723, 485.722565) rotate(148.000000) translate(-849.522723, -485.722565) "></path>
            <path d="M859.687355,424.219512 C855.010313,428.149356 851.389861,431.024204 848.825997,432.844056 C844.980203,435.573834 835.15193,446.007459 832.881032,450.373369 C830.610134,454.739279 824.692162,464.465372 824.688397,476.80216 C824.68464,489.138948 827.703157,509.432562 832.860182,518.765481 C838.017208,528.098401 847.974585,539.582057 850.67089,544.18697 C853.367195,548.791883 864.989462,557.591101 868.075131,557.591101 C870.132244,557.591101 871.590983,555.441683 872.451348,551.142847 C874.511084,554.658723 876.446922,555.537259 878.258863,553.778456 C880.976774,551.140251 884.599899,547.073883 884.60139,542.1834 C884.602881,537.292918 882.622617,533.669201 884.604939,530.540514 C886.587261,527.411826 886.396025,513.866991 886.397099,510.343576 C886.398173,506.820162 886.627552,499.784322 884.617821,488.284423 C882.608091,476.784523 883.742899,472.681753 872.720252,455.358155 C865.371821,443.809089 861.027522,433.429542 859.687355,424.219512 Z" id="Path-34-Copy-11" stroke="#FFFAF0" stroke-width="2" fill="#FFFAF0" transform="translate(855.546957, 490.905307) rotate(148.000000) translate(-855.546957, -490.905307) "></path>
            <text id="9" font-family="Gopher-Bold, Gopher" font-size="15" font-weight="bold" line-spacing="23" fill="#000000">
                <tspan x="850.298497" y="491.884499">9</tspan>
            </text>
            <path d="M96.540894,349.536073 C90.5869809,354.539315 85.9780207,358.199287 82.7140132,360.515989 C77.818002,363.991042 65.3077564,377.275967 62.4182699,382.83603 C59.5287835,388.396094 51.9978355,400.78196 52,416.496692 C52.0021654,432.211424 55.8576323,458.06335 62.4302718,469.95463 C69.0029112,481.84591 81.6899241,496.479529 85.1262156,502.346836 C88.5625071,508.214143 103.368215,519.430972 107.297758,519.430972 C109.917454,519.430972 111.77392,516.693843 112.867156,511.219583 C115.492174,515.699304 117.957925,516.819484 120.264407,514.580123 C123.72413,511.221081 128.335822,506.043339 128.334964,499.813791 C128.334106,493.584242 125.810234,488.967196 128.332921,484.982958 C130.855608,480.998719 130.604437,463.745054 130.603819,459.256891 C130.6032,454.768728 130.891344,445.806529 128.325506,431.1567 C125.759668,416.506871 127.202513,411.281358 113.155606,389.208158 C103.791002,374.492692 98.2527645,361.268664 96.540894,349.536073 Z" id="Path-34-Copy-22" stroke="#FFFAF0" transform="translate(91.306615, 434.483523) rotate(78.000000) translate(-91.306615, -434.483523) "></path>
            <path d="M294.232217,445.203122 C288.279533,450.205016 283.671488,453.863958 280.408081,456.179949 C275.512971,459.653935 263.005784,472.935849 260.117432,478.495054 C257.22908,484.05426 249.700727,496.438029 249.705588,512.151741 C249.710454,527.865454 253.570121,553.716364 260.144394,565.608002 C266.718668,577.49964 279.407405,592.134489 282.844491,598.002006 C286.281576,603.869524 301.08829,615.088844 305.017589,615.088844 C307.637122,615.088844 309.493003,612.352211 310.585231,606.878945 C313.210856,611.358826 315.676645,612.479357 317.982599,610.240538 C321.441531,606.882309 326.052047,601.705696 326.050119,595.476551 C326.048191,589.247407 323.523683,584.630227 326.045529,580.64668 C328.567376,576.663133 328.313257,559.410545 328.311868,554.922673 C328.310479,550.434802 328.597065,541.473234 326.028871,526.823914 C323.460676,512.174595 324.902534,506.949669 310.85271,484.875488 C301.48616,470.159367 295.945996,456.935245 294.232217,445.203122 Z" id="Path-34-Copy-17" stroke="#FFFAF0" transform="translate(289.013185, 530.145983) rotate(57.000000) translate(-289.013185, -530.145983) "></path>
            <path d="M340.195256,483 C339.238587,483.826768 338.498018,484.431559 337.973548,484.814373 C337.186844,485.388592 335.176791,487.583969 334.712602,488.502851 C334.248413,489.421733 333.038524,491.468649 333.039327,494.065958 C333.040131,496.663268 333.660468,500.936143 334.717058,502.901696 C335.773649,504.867248 337.812919,507.286215 338.365313,508.256048 C338.917707,509.225881 341.297359,511.080289 341.92885,511.080289 C342.349844,511.080289 342.648105,510.62795 342.823633,509.723272 C343.245612,510.463745 343.641899,510.648954 344.012493,510.278897 C344.568385,509.723813 345.309349,508.868167 345.309031,507.838556 C345.308712,506.808944 344.902983,506.045777 345.308272,505.387336 C345.713561,504.728894 345.672696,501.877225 345.672466,501.135428 C345.672237,500.39363 345.718282,498.912378 345.305519,496.491004 C344.892755,494.069631 345.124473,493.206005 342.866447,489.557397 C341.361097,487.124992 340.4707,484.939193 340.195256,483 Z" id="Path-34-Copy-17" stroke="#FFFAF0" stroke-width="2" fill="#FFFAF0" transform="translate(339.356611, 497.040145) rotate(57.000000) translate(-339.356611, -497.040145) "></path>
            <path d="M934.162947,390.719731 C929.484779,384.47325 926.075742,379.649118 923.935838,376.247335 C920.725982,371.14466 908.133276,357.872569 902.741347,354.674899 C897.349417,351.477229 885.394788,343.254782 869.731989,342.423049 C854.069189,341.591316 828.103108,344.092469 815.910646,350.063975 C803.718184,356.03548 788.475648,368.003634 782.44972,371.144198 C776.423791,374.284761 764.477489,388.562584 764.273338,392.509964 C764.137237,395.14155 766.769108,397.151703 772.168952,398.540422 C767.568051,400.939657 766.323817,403.357174 768.436251,405.792975 C771.604901,409.446677 776.526539,414.354094 782.735501,414.683805 C788.944463,415.013516 793.676993,412.723175 797.517323,415.468756 C801.357653,418.214338 818.567192,418.877596 823.040523,419.115141 C827.513854,419.352686 836.431441,420.117722 851.165703,418.317617 C865.899964,416.517513 871.03341,418.244211 893.761351,405.304765 C908.913313,396.678468 922.380511,391.81679 934.162947,390.719731 Z" id="Path-34-Copy-6" stroke="#FFFAF0" transform="translate(849.215633, 380.874095) rotate(-165.000000) translate(-849.215633, -380.874095) "></path>
            <path d="M920.827204,389.551501 C916.728971,384.065527 913.742541,379.828731 911.867913,376.841113 C909.055971,372.359687 898.024339,360.703469 893.30083,357.895115 C888.57732,355.086761 878.104667,347.865396 864.383536,347.134932 C850.662405,346.404467 827.915261,348.601117 817.234263,353.8456 C806.553266,359.090084 793.200305,369.601129 787.921393,372.359333 C782.642482,375.117537 772.177131,387.657049 771.99829,391.123838 C771.879062,393.435031 774.184669,395.200448 778.915111,396.420089 C774.884571,398.52722 773.794582,400.650407 775.645144,402.78965 C778.420988,405.998515 782.732508,410.308455 788.171764,410.598022 C793.61102,410.887589 797.756872,408.876093 801.121129,411.2874 C804.485386,413.698708 819.561511,414.281209 823.480297,414.489831 C827.399083,414.698453 835.211185,415.370343 848.118884,413.789394 C861.026584,412.208446 865.523652,413.724918 885.434076,402.360832 C898.707691,394.784775 910.505401,390.514998 920.827204,389.551501 Z" id="Path-34-Copy-6" stroke="#FFFAF0" stroke-width="2" fill="#FFFAF0" transform="translate(846.410548, 380.904597) rotate(-165.000000) translate(-846.410548, -380.904597) "></path>
            <text id="8" font-family="Gopher-Bold, Gopher" font-size="15" font-weight="bold" line-spacing="23" fill="#000000">
                <tspan x="850.039327" y="385">8</tspan>
            </text>
            <path d="M373.947651,359.612711 C369.26934,353.3644 365.860167,348.53888 363.72013,345.136151 C360.510075,340.032056 347.917425,326.755746 342.525827,323.556767 C337.134229,320.357788 325.180196,312.132211 309.519407,311.298365 C293.858619,310.464519 267.896353,312.962945 255.706277,318.93413 C243.516201,324.905314 228.277206,336.873967 222.25248,340.014409 C216.227754,343.154852 204.284833,357.434045 204.081198,361.382189 C203.945442,364.014285 206.577207,366.025167 211.976494,367.414835 C207.376511,369.813977 206.132745,372.231824 208.245195,374.668374 C211.413871,378.3232 216.335452,383.23221 222.543617,383.562759 C228.751781,383.893307 233.483389,381.603096 237.323541,384.349704 C241.163692,387.096312 258.37099,387.761842 262.843746,387.99999 C267.316502,388.238138 276.232981,389.004435 290.96503,387.205802 C305.69708,385.407169 310.830046,387.13485 333.553316,374.195641 C348.702163,365.569502 362.166941,360.708525 373.947651,359.612711 Z" id="Path-34-Copy-18" stroke="#FFFAF0" transform="translate(289.011927, 349.754436) rotate(60.000000) translate(-289.011927, -349.754436) "></path>
            <path d="M291.572209,424.873145 C289.843186,426.362073 288.50475,427.451268 287.556901,428.140729 C286.135128,429.174921 282.501988,433.128236 281.662708,434.782665 C280.823428,436.437095 278.635884,440.122643 278.635884,444.798206 C278.635884,449.47377 279.753724,457.165216 281.661486,460.702839 C283.569248,464.240461 287.252205,468.593669 288.249635,470.339166 C289.247066,472.084662 293.545383,475.420951 294.686349,475.420951 C295.446993,475.420951 295.986176,474.606478 296.303899,472.977532 C297.065847,474.310228 297.781731,474.643378 298.451553,473.97698 C299.456285,472.977383 300.795596,471.436611 300.795684,469.583149 C300.795771,467.729687 300.0632,466.356128 300.795892,465.170569 C301.528584,463.985011 301.456587,458.851586 301.45665,457.516234 C301.456713,456.180883 301.540861,453.514367 300.796647,449.155781 C300.052432,444.797195 300.471653,443.242383 296.394244,436.67577 C293.675972,432.298028 292.068627,428.363819 291.572209,424.873145 Z" id="Path-34-Copy-16" stroke="#FFFAF0" stroke-width="2" fill="#FFFAF0" transform="translate(290.047713, 450.147048) rotate(94.000000) translate(-290.047713, -450.147048) "></path>
            <path d="M336.893386,397.561594 C335.501492,395.702593 334.487192,394.266901 333.850487,393.254518 C332.895429,391.735945 329.148856,387.785968 327.544744,386.834206 C325.940632,385.882443 322.38406,383.435164 317.724652,383.187078 C313.065244,382.938992 305.340934,383.682325 301.714134,385.458876 C298.087335,387.235427 293.553419,390.796348 291.760938,391.730695 C289.968458,392.665041 286.415192,396.913396 286.354607,398.08805 C286.314216,398.871153 287.097221,399.469432 288.70362,399.882887 C287.33503,400.596682 286.964984,401.316041 287.593482,402.040965 C288.536228,403.128351 290.0005,404.588883 291.847557,404.687228 C293.694615,404.785573 295.102366,404.104188 296.24489,404.921361 C297.387415,405.738533 302.506941,405.936542 303.837679,406.007396 C305.168416,406.07825 307.821253,406.306239 312.204342,405.771109 C316.587431,405.235978 318.114594,405.749999 324.875237,401.900317 C329.382332,399.333863 333.388381,397.887622 336.893386,397.561594 Z" id="Path-34-Copy-18" stroke="#FFFAF0" stroke-width="2" fill="#FFFAF0" transform="translate(311.623253, 394.628554) rotate(60.000000) translate(-311.623253, -394.628554) "></path>
            <path d="M732.693892,414.320371 C728.018676,408.07547 724.611884,403.25249 722.473516,399.851429 C719.265963,394.749837 706.680006,381.482002 701.290123,378.286157 C695.900241,375.090312 683.950535,366.87191 668.290816,366.045485 C652.631097,365.21906 626.668808,367.729017 614.4765,373.704661 C602.284192,379.680304 587.040323,391.653636 581.014407,394.796244 C574.988491,397.938853 563.039483,412.220738 562.83403,416.168191 C562.697062,418.799826 565.327782,420.809089 570.72619,422.195979 C566.125298,424.596775 564.880467,427.014716 566.991698,429.449804 C570.158543,433.102434 575.077639,438.008188 581.285379,438.335794 C587.49312,438.663401 592.225581,436.371454 596.064294,439.115736 C599.903007,441.860018 617.109246,442.517444 621.581697,442.753473 C626.054148,442.989502 634.969884,443.751516 649.702122,441.946415 C664.434361,440.141315 669.566304,441.866275 692.294571,428.919113 C707.446749,420.287672 720.913189,415.421425 732.693892,414.320371 Z" id="Path-34-Copy-12" stroke="#FFFAF0" transform="translate(647.761419, 404.503831) scale(1, -1) rotate(-255.000000) translate(-647.761419, -404.503831) "></path>
            <path d="M703.536107,395.388143 C700.213226,390.949619 697.79187,387.521715 696.272038,385.104432 C693.992289,381.478508 685.046898,372.048476 681.216073,369.777049 C677.385248,367.505622 668.892068,361.664444 657.76202,361.077067 C646.631972,360.489691 628.179435,362.273627 619.513828,366.520779 C610.848221,370.767931 600.013736,379.277902 595.730853,381.511492 C591.447971,383.745081 582.955287,393.895843 582.809263,396.70147 C582.711914,398.571888 584.581682,399.999959 588.418567,400.985683 C585.148511,402.692034 584.263755,404.410571 585.764299,406.141294 C588.015115,408.737378 591.511332,412.224112 595.923445,412.456957 C600.335558,412.689801 603.699126,411.060814 606.427467,413.011295 C609.155809,414.961777 621.385037,415.429038 624.563803,415.596794 C627.74257,415.76455 634.079374,416.306147 644.550221,415.023183 C655.021069,413.740219 658.668565,414.966224 674.82254,405.764109 C685.591856,399.629366 695.163045,396.170711 703.536107,395.388143 Z" id="Path-34-Copy-12" fill="#FFFAF0" transform="translate(643.170878, 388.411098) scale(1, -1) rotate(-255.000000) translate(-643.170878, -388.411098) "></path>
            <text id="13" font-family="Gopher-Bold, Gopher" font-size="15" font-weight="bold" line-spacing="23" fill="#000000">
                <tspan x="635.039327" y="395">13</tspan>
            </text>
            <path d="M596.772628,381.207725 C589.032003,381.899903 583.162249,382.261197 579.163365,382.291608 C573.16504,382.337225 555.309217,386.062345 549.754746,388.963654 C544.200276,391.864962 530.932145,397.702118 521.912955,410.575353 C512.893765,423.448588 501.206233,446.829558 499.754581,460.329696 C498.302928,473.829834 500.2768,493.074021 499.718573,499.84572 C499.160346,506.617419 504.828384,524.274478 508.041277,526.522857 C510.183206,528.021777 513.272481,526.841794 517.309103,522.982908 C516.884031,528.153932 518.257252,530.482033 521.428766,529.967211 C526.186037,529.194977 532.929293,527.592034 536.504631,522.488896 C540.079969,517.385758 540.666579,512.160112 545.016523,510.339735 C549.366467,508.519359 559.06546,494.243131 561.64136,490.566506 C564.217261,486.889881 569.597581,479.713745 575.909143,466.246201 C582.220705,452.778656 586.400204,449.323812 587.584994,423.207896 C588.374854,405.797284 591.437399,391.797227 596.772628,381.207725 Z" id="Path-34-Copy-13" stroke="#FFFAF0" transform="translate(547.991361, 455.622429) rotate(-255.000000) translate(-547.991361, -455.622429) "></path>
            <path d="M576.039327,266 C568.342229,266.691717 562.505454,267.05246 558.529001,267.08223 C552.564323,267.126883 534.809265,270.853564 529.286433,273.757507 C523.763601,276.661451 510.570862,282.503551 501.604421,295.391128 C492.63798,308.278706 481.01993,331.686523 479.578692,345.203062 C478.137454,358.719601 480.103497,377.987854 479.549541,384.767809 C478.995585,391.547764 484.63481,409.227558 487.830063,411.479256 C489.960232,412.980388 493.031984,411.799474 497.045318,407.936515 C496.623501,413.113845 497.989412,415.44505 501.143053,414.930131 C505.873515,414.157753 512.578684,412.553979 516.133112,407.445155 C519.68754,402.336331 520.26998,397.10434 524.595222,395.282458 C528.920465,393.460576 538.56266,379.168391 541.123496,375.487669 C543.684332,371.806948 549.03327,364.622877 555.307168,351.139797 C561.581066,337.656717 565.736544,334.198323 566.910291,308.050403 C567.69279,290.618456 570.735802,276.601655 576.039327,266 Z" id="Path-34-Copy-14" stroke="#FFFAF0" transform="translate(527.539327, 340.500000) rotate(-90.000000) translate(-527.539327, -340.500000) "></path>
            <path d="M550.039327,280 C544.246666,280.515306 539.854041,280.784048 536.861453,280.806225 C532.372571,280.83949 519.010517,283.615742 514.854159,285.779083 C510.697801,287.942423 500.769245,292.294591 494.021305,301.895404 C487.273365,311.496217 478.529884,328.934255 477.445241,339.003623 C476.360598,349.072991 477.840197,363.427193 477.423302,368.478032 C477.006407,373.528871 481.250361,386.699725 483.655036,388.377164 C485.258153,389.495457 487.569883,388.615716 490.590227,385.737941 C490.272777,389.594877 491.300731,391.331547 493.67409,390.94795 C497.234128,390.372554 502.280286,389.177796 504.955268,385.371894 C507.63025,381.565992 508.068582,377.668334 511.323661,376.311093 C514.57874,374.953852 521.835238,364.306653 523.762465,361.56464 C525.689691,358.822626 529.715181,353.470734 534.436774,343.426292 C539.158367,333.381849 542.285686,330.805462 543.169022,311.326139 C543.757913,298.339924 546.048014,287.897877 550.039327,280 Z" id="Path-34-Copy-14" fill="#FFFAF0" transform="translate(513.539327, 335.500000) rotate(-90.000000) translate(-513.539327, -335.500000) "></path>
            <text id="14" font-family="Gopher-Bold, Gopher" font-size="15" font-weight="bold" line-spacing="23" fill="#000000">
                <tspan x="504.039327" y="344">14</tspan>
            </text>
            <path d="M229.039327,282 C221.342229,282.691717 215.505454,283.05246 211.529001,283.08223 C205.564323,283.126883 187.809265,286.853564 182.286433,289.757507 C176.763601,292.661451 163.570862,298.503551 154.604421,311.391128 C145.63798,324.278706 134.01993,347.686523 132.578692,361.203062 C131.137454,374.719601 133.103497,393.987854 132.549541,400.767809 C131.995585,407.547764 137.63481,425.227558 140.830063,427.479256 C142.960232,428.980388 146.031984,427.799474 150.045318,423.936515 C149.623501,429.113845 150.989412,431.44505 154.143053,430.930131 C158.873515,430.157753 165.578684,428.553979 169.133112,423.445155 C172.68754,418.336331 173.26998,413.10434 177.595222,411.282458 C181.920465,409.460576 191.56266,395.168391 194.123496,391.487669 C196.684332,387.806948 202.03327,380.622877 208.307168,367.139797 C214.581066,353.656717 218.736544,350.198323 219.910291,324.050403 C220.69279,306.618456 223.735802,292.601655 229.039327,282 Z" id="Path-34-Copy-20" stroke="#FFFAF0" transform="translate(180.539327, 356.500000) rotate(-90.000000) translate(-180.539327, -356.500000) "></path>
            <path d="M451.039327,348 C443.342229,348.691717 437.505454,349.05246 433.529001,349.08223 C427.564323,349.126883 409.809265,352.853564 404.286433,355.757507 C398.763601,358.661451 385.570862,364.503551 376.604421,377.391128 C367.63798,390.278706 356.01993,413.686523 354.578692,427.203062 C353.137454,440.719601 355.103497,459.987854 354.549541,466.767809 C353.995585,473.547764 359.63481,491.227558 362.830063,493.479256 C364.960232,494.980388 368.031984,493.799474 372.045318,489.936515 C371.623501,495.113845 372.989412,497.44505 376.143053,496.930131 C380.873515,496.157753 387.578684,494.553979 391.133112,489.445155 C394.68754,484.336331 395.26998,479.10434 399.595222,477.282458 C403.920465,475.460576 413.56266,461.168391 416.123496,457.487669 C418.684332,453.806948 424.03327,446.622877 430.307168,433.139797 C436.581066,419.656717 440.736544,416.198323 441.910291,390.050403 C442.69279,372.618456 445.735802,358.601655 451.039327,348 Z" id="Path-34-Copy-15" stroke="#FFFAF0" transform="translate(402.539327, 422.500000) scale(-1, 1) rotate(-90.000000) translate(-402.539327, -422.500000) "></path>
            <path d="M459.539327,371.5 C456.04786,371.811041 453.40025,371.973254 451.596499,371.98664 C448.890872,372.006719 440.837031,373.682475 438.331829,374.988275 C435.826626,376.294075 429.842291,378.92106 425.77504,384.716145 C421.707788,390.51123 416.437745,401.036893 415.783987,407.1148 C415.13023,413.192707 416.022043,421.856955 415.770764,424.905659 C415.519485,427.954364 418.077484,435.904338 419.526878,436.916847 C420.49314,437.591852 421.886512,437.060837 423.706993,435.323802 C423.515653,437.651863 424.135242,438.700123 425.56576,438.468582 C427.711536,438.121271 430.753056,437.400111 432.365374,435.102855 C433.977692,432.805599 434.241891,430.452958 436.203857,429.633723 C438.165822,428.814487 442.539602,422.3878 443.701218,420.73271 C444.862834,419.077621 447.289157,415.8472 450.135049,409.784338 C452.98094,403.721477 454.865899,402.16636 455.398321,390.40857 C455.753269,382.570044 457.133604,376.267187 459.539327,371.5 Z" id="Path-34-Copy-15" stroke="#FFFAF0" stroke-width="2" fill="#FFFAF0" transform="translate(437.539327, 405.000000) scale(-1, 1) rotate(-90.000000) translate(-437.539327, -405.000000) "></path>
            <text id="17" font-family="Gopher-Bold, Gopher" font-size="15" font-weight="bold" line-spacing="23" fill="#000000">
                <tspan x="431.039327" y="412">17</tspan>
            </text>
            <path d="M874.960163,198.559933 C867.216686,199.251143 861.344748,199.611714 857.344352,199.641646 C851.343757,199.686542 833.481607,203.409301 827.925376,206.309769 C822.369146,209.210236 809.09668,215.045449 800.075606,227.91682 C791.054532,240.788191 779.365357,264.166335 777.914765,277.665475 C776.464173,291.164615 778.441089,310.407862 777.883458,317.17908 C777.325828,323.950299 782.998123,341.606956 786.212503,343.855582 C788.355422,345.354666 791.445728,344.175124 795.48342,340.316956 C795.058804,345.487614 796.432824,347.815737 799.605479,347.301325 C804.364462,346.529707 811.110084,344.927668 814.686169,339.825269 C818.262254,334.72287 818.848463,329.497613 823.199839,327.677868 C827.551215,325.858123 837.252183,311.583926 839.828622,307.907834 C842.405061,304.231741 847.786565,297.056687 854.098913,283.590719 C860.411262,270.124752 864.591933,266.670619 865.774057,240.556439 C866.562139,223.146986 869.624175,209.148151 874.960163,198.559933 Z" id="Path-34-Copy-7" stroke="#FFFAF0" transform="translate(826.165851, 272.965539) rotate(-165.000000) translate(-826.165851, -272.965539) "></path>
            <path d="M865.792437,214.00243 C859.281056,214.589304 854.343428,214.895447 850.979552,214.920859 C845.933737,214.958976 830.913709,218.119801 826.241552,220.582461 C821.569396,223.04512 810.408766,227.99954 802.823069,238.928059 C795.237371,249.856578 785.408101,269.705941 784.188314,281.167474 C782.968526,292.629007 784.630879,308.967614 784.161972,314.716761 C783.693066,320.465909 788.46281,335.457413 791.165735,337.366625 C792.967686,338.639433 795.56628,337.637936 798.96152,334.362135 C798.604464,338.752316 799.759856,340.729025 802.427697,340.292261 C806.429458,339.637116 812.101756,338.276897 815.108837,333.944673 C818.115918,329.612449 818.608855,325.17591 822.267866,323.630845 C825.926877,322.08578 834.084288,309.966183 836.25078,306.844974 C838.417272,303.723764 842.942505,297.631739 848.250474,286.198373 C853.558444,274.765007 857.073912,271.832254 858.067954,249.659838 C858.730648,234.878227 861.305476,222.992425 865.792437,214.00243 Z" id="Path-34-Copy-7" stroke="#FFFAF0" stroke-width="2" fill="#FFFAF0" transform="translate(824.761977, 277.176986) rotate(-165.000000) translate(-824.761977, -277.176986) "></path>
            <text id="7" font-family="Gopher-Bold, Gopher" font-size="15" font-weight="bold" line-spacing="23" fill="#000000">
                <tspan x="825.039327" y="283">7</tspan>
            </text>
            <path d="M482.074781,430.464527 C474.331781,431.156155 468.460214,431.517031 464.46008,431.547155 C458.459879,431.592343 440.598728,435.316202 435.042724,438.217127 C429.486721,441.118052 416.214851,446.954286 407.193755,459.826938 C398.172659,472.699589 386.483135,496.079835 385.031992,509.579935 C383.580848,523.080034 385.556712,542.324455 384.998794,549.096147 C384.440875,555.867839 390.11195,573.525389 393.32601,575.774009 C395.468717,577.273089 398.558876,576.093322 402.596486,572.234706 C402.17165,577.405725 403.545468,579.733936 406.717938,579.219338 C411.476645,578.447441 418.221898,576.844973 421.797992,571.742067 C425.374086,566.63916 425.960507,561.41353 430.311683,559.593457 C434.66286,557.773383 444.363871,543.49778 446.940317,539.821322 C449.516762,536.144864 454.898255,528.969078 461.210832,515.501921 C467.52341,502.034763 471.703971,498.580202 472.887268,472.464243 C473.676133,455.053605 476.738637,441.053699 482.074781,430.464527 Z" id="Path-34-Copy-19" stroke="#FFFAF0" transform="translate(433.281497, 504.876864) rotate(-141.000000) translate(-433.281497, -504.876864) "></path>
            <path d="M597.149992,419.763783 C592.025747,420.21981 588.139983,420.457575 585.4927,420.477079 C581.521776,420.506336 569.701644,422.964005 566.024969,424.879372 C562.348294,426.79474 553.565551,430.647972 547.596657,439.148812 C541.627763,447.649651 533.893934,463.089954 532.934891,472.005931 C531.975847,480.921908 533.285358,493.63205 532.916791,498.104348 C532.548224,502.576647 536.303067,514.239103 538.43035,515.724515 C539.848539,516.71479 541.893488,515.935917 544.565198,513.387896 C544.284548,516.803046 545.193968,518.340843 547.293456,518.001288 C550.442689,517.491956 554.906536,516.434269 557.272693,513.064412 C559.638849,509.694556 560.02643,506.243354 562.905857,505.041715 C565.785285,503.840076 572.204009,494.412727 573.908739,491.984868 C575.613468,489.557009 579.174234,484.818299 583.350574,475.924554 C587.526914,467.030809 590.293268,464.749659 591.073815,447.501531 C591.59418,436.002779 593.619572,426.756863 597.149992,419.763783 Z" id="Path-34-Copy-13" stroke="#FFFAF0" stroke-width="2" fill="#FFFAF0" transform="translate(564.863105, 468.905567) rotate(-255.000000) translate(-564.863105, -468.905567) "></path>
            <text id="15" font-family="Gopher-Bold, Gopher" font-size="15" font-weight="bold" line-spacing="23" fill="#000000">
                <tspan x="557.750888" y="465.87508">15</tspan>
            </text>
            <path d="M446.667477,466.087337 C441.654023,466.537544 437.852289,466.772452 435.262274,466.792061 C431.377252,466.821473 419.812477,469.245489 416.215063,471.133825 C412.61765,473.022161 404.024351,476.821214 398.183349,485.200579 C392.342347,493.579943 384.773583,508.799156 383.833989,517.586956 C382.894395,526.374756 384.173725,538.901786 383.812481,543.309774 C383.451236,547.717762 387.123149,559.211829 389.204195,560.675554 C390.591558,561.651372 392.592381,560.883411 395.206662,558.371672 C394.931587,561.737712 395.821108,563.253246 397.875226,562.918273 C400.956403,562.415813 405.323834,561.3727 407.639292,558.050998 C409.95475,554.729296 410.334449,551.327707 413.151758,550.142943 C415.969067,548.95818 422.250303,539.665574 423.918506,537.272408 C425.586709,534.879243 429.071132,530.208215 433.158416,521.441859 C437.245701,512.675504 439.952541,510.426782 440.718713,493.426772 C441.229495,482.093432 443.212416,472.980287 446.667477,466.087337 Z" id="Path-34-Copy-19" stroke="#FFFAF0" stroke-width="2" fill="#FFFAF0" transform="translate(415.074687, 514.525543) rotate(-141.000000) translate(-415.074687, -514.525543) "></path>
            <text id="16" font-family="Gopher-Bold, Gopher" font-size="15" font-weight="bold" line-spacing="23" fill="#000000">
                <tspan x="408.505011" y="520.428306">16</tspan>
            </text>
            <text id="18" font-family="Gopher-Bold, Gopher" font-size="15" font-weight="bold" line-spacing="23" fill="#000000">
                <tspan x="304.911149" y="398.812238">18</tspan>
            </text>
            <text id="19" font-family="Gopher-Bold, Gopher" font-size="15" font-weight="bold" line-spacing="23" fill="#000000">
                <tspan x="283.31145" y="454.432757">19</tspan>
            </text>
            <text id="20" font-family="Gopher-Bold, Gopher" font-size="15" font-weight="bold" line-spacing="23" fill="#FFFAF0">
                <tspan x="299.039327" y="523">20</tspan>
            </text>
            <text id="21" font-family="Gopher-Bold, Gopher" font-size="15" font-weight="bold" line-spacing="23" fill="#FFFAF0">
                <tspan x="162.039327" y="540">21</tspan>
            </text>
            <text id="22" font-family="Gopher-Bold, Gopher" font-size="15" font-weight="bold" line-spacing="23" fill="#FFFAF0">
                <tspan x="84.039327" y="436">22</tspan>
            </text>
            <text id="23" font-family="Gopher-Bold, Gopher" font-size="15" font-weight="bold" line-spacing="23" fill="#FFFAF0">
                <tspan x="175.039327" y="368">23</tspan>
            </text>
            <path d="M209.950912,460.44385 C202.207912,461.135477 196.336344,461.496353 192.33621,461.526478 C186.336009,461.571665 168.474859,465.295525 162.918855,468.19645 C157.362851,471.097375 144.090981,476.933609 135.069885,489.806261 C126.048789,502.678912 114.359265,526.059158 112.908122,539.559257 C111.456979,553.059357 113.432843,572.303778 112.874924,579.07547 C112.317006,585.847162 117.988081,603.504712 121.202141,605.753332 C123.344848,607.252412 126.435006,606.072644 130.472617,602.214029 C130.047781,607.385048 131.421598,609.713259 134.594069,609.198661 C139.352775,608.426764 146.098029,606.824296 149.674123,601.721389 C153.250217,596.618483 153.836637,591.392853 158.187814,589.572779 C162.53899,587.752706 172.240002,573.477103 174.816447,569.800645 C177.392893,566.124187 182.774386,558.948401 189.086963,545.481243 C195.39954,532.014085 199.580102,528.559524 200.763399,502.443566 C201.552263,485.032927 204.614768,471.033022 209.950912,460.44385 Z" id="Path-34-Copy-21" stroke="#FFFAF0" transform="translate(161.157627, 534.856187) rotate(-141.000000) translate(-161.157627, -534.856187) "></path>
            <path d="M724.238396,316.177052 C717.31767,319.693672 712.156221,322.49917 708.754049,324.593546 C703.650792,327.735109 686.559903,334.040862 680.321225,334.523634 C674.082547,335.006406 659.758606,337.087428 645.308927,330.944571 C630.859247,324.801714 608.589349,311.156285 600.215763,300.469149 C591.842177,289.782014 583.329374,272.404042 579.273049,266.953258 C575.216725,261.502474 570.671901,243.512782 572.202575,239.901255 C573.223025,237.49357 576.463344,236.857039 581.923533,237.991662 C578.827049,233.828681 578.757781,231.124882 581.715728,229.880265 C586.152647,228.01334 592.71083,225.798432 598.438893,228.23355 C604.166957,230.668668 607.42913,234.792358 612.075829,234.030893 C616.722528,233.269428 632.490311,240.242497 636.617172,241.996911 C640.744033,243.751325 649.097524,246.988687 661.569018,255.071468 C674.040511,263.154249 679.407859,263.870232 694.231858,285.405144 C704.114523,299.761752 714.116703,310.019054 724.238396,316.177052 Z" id="Path-34-Copy-8" stroke="#FFFAF0" transform="translate(648.068531, 281.206426) rotate(-165.000000) translate(-648.068531, -281.206426) "></path>
            <path d="M745.015622,316.731199 C739.262292,311.530289 734.801224,307.716852 731.632417,305.29089 C726.879206,301.651946 714.886458,287.957514 712.202813,282.308106 C709.519168,276.658698 702.451773,264.035543 702.998316,248.353931 C703.544859,232.672319 708.278232,207.009566 715.232713,195.373113 C722.187194,183.736661 735.323051,169.577436 738.946863,163.842622 C742.570675,158.107808 757.697142,147.432813 761.608712,147.568372 C764.216425,147.660482 765.969571,150.457206 766.868151,155.958542 C769.636335,151.580029 772.1296,150.548423 774.347946,152.863726 C777.675464,156.336679 782.086673,161.66479 781.870016,167.881209 C781.653358,174.097629 778.981099,178.616715 781.354214,182.680786 C783.727329,186.744857 782.879607,203.953459 782.723514,208.432163 C782.56742,212.910867 782.543776,221.864296 779.482189,236.393602 C776.420602,250.922908 777.675819,256.187884 762.928573,277.723495 C753.097077,292.080569 747.126093,305.083137 745.015622,316.731199 Z" id="Path-34-Copy-9" stroke="#FFFAF0" transform="translate(742.983163, 232.149785) rotate(-197.000000) translate(-742.983163, -232.149785) "></path>
            <path d="M745.441425,305.851444 C740.469414,301.319556 736.614171,297.996664 733.875696,295.882769 C729.767983,292.711925 719.403889,280.779075 717.084698,275.856372 C714.765506,270.933668 708.657896,259.93428 709.130252,246.269829 C709.602608,232.605378 713.69324,210.243672 719.703322,200.104024 C725.713403,189.964375 737.065431,177.626447 740.197138,172.629305 C743.328846,167.632163 756.40115,158.330273 759.781525,158.448383 C762.035108,158.528637 763.55017,160.965606 764.326709,165.75929 C766.718982,161.943987 768.873662,161.045073 770.790749,163.062546 C773.66638,166.088755 777.478532,170.731485 777.291283,176.148272 C777.104034,181.56506 774.794661,185.502853 776.845496,189.044146 C778.896331,192.585439 778.163694,207.580461 778.028788,211.483059 C777.893882,215.385657 777.87343,223.187385 775.227578,235.847761 C772.581725,248.508137 773.666471,253.095863 760.921868,271.861341 C752.425465,284.37166 747.265318,295.701694 745.441425,305.851444 Z" id="Path-34-Copy-9" stroke="#FFFAF0" stroke-width="2" fill="#FFFAF0" transform="translate(743.685177, 232.149914) rotate(164.000000) translate(-743.685177, -232.149914) "></path>
            <text id="6" font-family="Gopher-Bold, Gopher" font-size="15" font-weight="bold" line-spacing="23" fill="#000000">
                <tspan x="740.039327" y="243">6</tspan>
            </text>
            <path d="M977.039327,164.30333 C972.359327,158.075278 968.949001,153.265344 966.808352,149.873528 C963.597377,144.785803 950.999138,131.553316 945.604418,128.365586 C940.209697,125.177856 928.249073,116.980647 912.576731,116.153908 C896.904389,115.327169 870.921831,117.825645 858.720817,123.782349 C846.519804,129.739053 831.265814,141.675987 825.235627,144.8087 C819.20544,147.941413 807.249329,162.180937 807.044382,166.117206 C806.907751,168.741384 809.540908,170.745417 814.943854,172.129302 C810.339702,174.522539 809.094289,176.933441 811.207615,179.362007 C814.377604,183.004856 819.301452,187.897585 825.514197,188.225316 C831.726941,188.553047 836.462786,186.268374 840.305024,189.005554 C844.147262,191.742734 861.367328,192.401213 865.843384,192.637331 C870.31944,192.87345 879.242412,193.634819 893.986088,191.837309 C908.729764,190.039798 913.86609,191.760754 936.610279,178.854006 C951.773071,170.249507 965.249421,165.399282 977.039327,164.30333 Z" id="Path-34-Copy-3" stroke="#FFFAF0"></path>
            <path d="M968.039327,160.868328 C963.735716,155.125579 960.599667,150.690445 958.631179,147.562926 C955.678448,142.871647 944.093424,130.670263 939.132575,127.730927 C934.171726,124.791592 922.500762,119.904233 908.08887,119.141915 C893.676979,118.379597 869.784071,120.683387 858.564326,126.175932 C847.344581,131.668477 833.317395,142.67526 827.772187,145.563866 C822.226979,148.452472 811.23244,161.582423 811.043975,165.211969 C810.918333,167.631666 813.339718,169.47954 818.308132,170.755591 C814.074269,172.962341 812.929018,175.18538 814.87238,177.424708 C817.787422,180.783698 822.315269,185.295175 828.028353,185.597369 C833.741436,185.899563 838.0964,183.792916 841.629626,186.316809 C845.162851,188.840703 860.997991,189.447871 865.11406,189.665591 C869.230128,189.883311 877.435468,190.585353 890.993382,188.927908 C904.551296,187.270463 909.274532,188.857318 930.189516,176.956291 C944.132839,169.022273 956.749443,163.659618 968.039327,160.868328 Z" id="Path-34-Copy-3" fill="#FFFAF0"></path>
            <text id="5" font-family="Gopher-Bold, Gopher" font-size="15" font-weight="bold" line-spacing="23" fill="#000000">
                <tspan x="884.039327" y="157">5</tspan>
            </text>
            <path d="M991.039327,179 C983.342229,179.691717 977.505454,180.05246 973.529001,180.08223 C967.564323,180.126883 949.809265,183.853564 944.286433,186.757507 C938.763601,189.661451 925.570862,195.503551 916.604421,208.391128 C907.63798,221.278706 896.01993,244.686523 894.578692,258.203062 C893.137454,271.719601 895.103497,290.987854 894.549541,297.767809 C893.995585,304.547764 899.63481,322.227558 902.830063,324.479256 C904.960232,325.980388 908.031984,324.799474 912.045318,320.936515 C911.623501,326.113845 912.989412,328.44505 916.143053,327.930131 C920.873515,327.157753 927.578684,325.553979 931.133112,320.445155 C934.68754,315.336331 935.26998,310.10434 939.595222,308.282458 C943.920465,306.460576 953.56266,292.168391 956.123496,288.487669 C958.684332,284.806948 964.03327,277.622877 970.307168,264.139797 C976.581066,250.656717 980.736544,247.198323 981.910291,221.050403 C982.69279,203.618456 985.735802,189.601655 991.039327,179 Z" id="Path-34-Copy-4" stroke="#FFFAF0"></path>
            <path d="M987.039327,184 C979.89769,184.636008 974.482125,184.967698 970.792633,184.99507 C965.258395,185.036128 948.78463,188.462673 943.660353,191.132742 C938.536076,193.80281 926.295391,199.174406 917.976012,211.024058 C909.656634,222.87371 898.877,244.396333 897.539769,256.824292 C896.202538,269.252251 898.026701,286.968698 897.512721,293.202616 C896.998741,299.436534 902.231012,315.692453 905.19568,317.762806 C907.172126,319.143041 910.022205,318.057235 913.745917,314.505387 C913.35454,319.26575 914.62188,321.409207 917.547939,320.935758 C921.937027,320.225585 928.158318,318.750974 931.456241,314.053599 C934.754164,309.356224 935.294572,304.545602 939.307684,302.870448 C943.320795,301.195295 952.267162,288.054158 954.643195,284.669871 C957.019228,281.285583 961.982161,274.680095 967.803303,262.2829 C973.624445,249.885706 977.480043,246.70584 978.569088,222.663793 C979.295117,206.635761 982.11853,193.74783 987.039327,184 Z" id="Path-34-Copy-4" fill="#FFFAF0"></path>
            <text id="4" font-family="Gopher-Bold, Gopher" font-size="15" font-weight="bold" line-spacing="23" fill="#000000">
                <tspan x="931.039327" y="248">4</tspan>
            </text>
            <path d="M1188.03933,233.120721 C1181.08895,236.601345 1175.9054,239.378143 1172.48867,241.451116 C1167.36358,244.560575 1150.19935,250.801549 1143.93381,251.279117 C1137.66827,251.756685 1123.2827,253.815898 1108.77044,247.734605 C1094.25817,241.653311 1071.89161,228.145123 1063.4814,217.565924 C1055.07119,206.986726 1046.52082,189.78452 1042.44674,184.388798 C1038.37266,178.993076 1033.80735,161.185548 1035.34444,157.610713 C1036.36916,155.22749 1039.62341,154.597573 1045.10719,155.720963 C1041.99715,151.600035 1041.92745,148.923645 1044.89808,147.691794 C1049.35403,145.844016 1055.94037,143.65189 1061.69324,146.062603 C1067.44611,148.473317 1070.72255,152.55536 1075.38924,151.801845 C1080.05592,151.048331 1095.89201,157.951485 1100.03675,159.688316 C1104.18148,161.425148 1112.57114,164.630102 1125.09679,172.631553 C1137.62243,180.633005 1143.01295,181.341995 1157.90192,202.659308 C1167.8279,216.870851 1177.8737,227.024655 1188.03933,233.120721 Z" id="Path-34-Copy" stroke="#FFFAF0"></path>
            <path d="M1183.03933,230.826489 C1176.45237,234.176995 1171.53985,236.849988 1168.30178,238.845466 C1163.44466,241.838684 1147.17791,247.846351 1141.23998,248.306066 C1135.30205,248.765781 1121.66867,250.748014 1107.91521,244.894059 C1094.16176,239.040103 1072.96469,226.036894 1064.99423,215.853179 C1057.02377,205.669465 1048.92048,189.110332 1045.05943,183.916319 C1041.19837,178.722307 1036.87176,161.580481 1038.32848,158.139285 C1039.29963,155.845154 1042.38372,155.238785 1047.58077,156.32018 C1044.63335,152.353305 1044.56729,149.776967 1047.38259,148.591166 C1051.60555,146.812464 1057.8475,144.702287 1063.29957,147.02288 C1068.75164,149.343473 1071.85676,153.272916 1076.27944,152.547571 C1080.70211,151.822226 1095.71017,158.467318 1099.63819,160.139221 C1103.56621,161.811123 1111.51719,164.896266 1123.3879,172.598598 C1135.25861,180.30093 1140.36727,180.983416 1154.47773,201.50382 C1163.88471,215.18409 1173.40524,224.958313 1183.03933,230.826489 Z" id="Path-34-Copy" fill="#FFFAF0"></path>
            <text id="2" font-family="Gopher-Bold, Gopher" font-size="15" font-weight="bold" line-spacing="23" fill="#000000">
                <tspan x="1100.03933" y="203">2</tspan>
            </text>
            <path d="M1034.64223,355.172812 C1028.88895,349.971502 1024.42793,346.157765 1021.25916,343.731599 C1016.50601,340.092352 1004.51327,326.396975 1001.82953,320.747255 C999.145803,315.097535 992.078255,302.473645 992.624243,286.791438 C993.170231,271.10923 997.902545,245.445634 1004.85636,233.808962 C1011.81017,222.172291 1024.94503,208.012959 1028.56851,202.278044 C1032.19198,196.543128 1047.31749,185.86823 1051.22891,186.003925 C1053.83653,186.096129 1055.5897,188.893022 1056.48843,194.394604 C1059.25636,190.016014 1061.74949,188.984453 1063.96783,191.299922 C1067.29534,194.773125 1071.70655,200.101593 1071.49012,206.318249 C1071.27368,212.534904 1068.60168,217.054076 1070.97484,221.118387 C1073.348,225.182698 1072.5009,242.391946 1072.34496,246.870819 C1072.18903,251.349693 1072.16569,260.303472 1069.10471,274.833242 C1066.04374,289.363013 1067.29909,294.628238 1052.55315,316.16419 C1042.72253,330.521492 1036.75222,343.524365 1034.64223,355.172812 Z" id="Path-34-Copy-2" stroke="#FFFAF0" transform="translate(1032.606684, 270.588368) rotate(-32.000000) translate(-1032.606684, -270.588368) "></path>
            <path d="M1034.24786,346.749325 C1029.04973,342.087566 1025.01915,338.669442 1022.15615,336.494951 C1017.86164,333.233216 1007.0261,320.958514 1004.60133,315.894862 C1002.17655,310.831211 995.790971,299.516849 996.284286,285.461427 C996.777601,271.406004 1001.05331,248.40461 1007.33614,237.975067 C1013.61898,227.545523 1025.48645,214.85501 1028.7603,209.715006 C1032.03414,204.575001 1045.70018,195.007467 1049.23419,195.129088 C1051.59019,195.21173 1053.17419,197.71849 1053.9862,202.649369 C1056.48705,198.724991 1058.73962,197.80044 1060.74391,199.875716 C1063.75033,202.988631 1067.7359,207.764357 1067.54035,213.336131 C1067.34479,218.907905 1064.93061,222.958281 1067.07478,226.600984 C1069.21895,230.243688 1068.45357,245.667743 1068.31268,249.682003 C1068.17179,253.696263 1068.1507,261.721227 1065.38507,274.743758 C1062.61945,287.766289 1063.75366,292.48533 1050.43056,311.787252 C1041.5485,324.655201 1036.15427,336.309225 1034.24786,346.749325 Z" id="Path-34-Copy-2" stroke="#FFFAF0" stroke-width="2" fill="#FFFAF0" transform="translate(1032.408789, 270.939206) rotate(-32.000000) translate(-1032.408789, -270.939206) "></path>
            <text id="3" font-family="Gopher-Bold, Gopher" font-size="15" font-weight="bold" line-spacing="23" fill="#000000">
                <tspan x="1026.03933" y="269">3</tspan>
            </text>
            <path d="M654.72046,107.117683 C650.292009,110.838878 646.863925,113.561015 644.436208,115.284094 C640.794632,117.868713 631.48957,127.749361 629.340305,131.884577 C627.191039,136.019793 621.589417,145.231636 621.590531,156.91898 C621.591644,168.606324 624.458377,187.832769 629.346479,196.67633 C634.234581,205.519892 643.670234,216.402789 646.225831,220.766307 C648.781428,225.129826 659.792994,233.471399 662.715638,233.471399 C664.664067,233.471399 666.044922,231.435685 666.858203,227.364257 C668.810449,230.695827 670.644345,231.528847 672.359889,229.863319 C674.933205,227.365026 678.363369,223.514095 678.362927,218.881062 C678.362486,214.248028 676.485472,210.814324 678.361876,207.85109 C680.238281,204.887856 680.052014,192.055986 680.051696,188.718054 C680.051378,185.380123 680.265971,178.714756 678.358062,167.819482 C676.450152,156.924207 677.52345,153.037849 667.076595,136.622038 C660.112025,125.678164 655.993314,115.843379 654.72046,107.117683 Z" id="Path-34-Copy-10" stroke="#FFFAF0" stroke-width="2" fill="#FFFAF0" transform="translate(650.824659, 170.294541) rotate(144.000000) translate(-650.824659, -170.294541) "></path>
            <text id="11" font-family="Gopher-Bold, Gopher" font-size="15" font-weight="bold" line-spacing="23" fill="#000000">
                <tspan x="639.039327" y="169">11</tspan>
            </text>
            <path d="M696.242949,295.754219 C691.203895,298.311761 687.44579,300.352123 684.968633,301.875306 C681.252897,304.160079 668.80884,308.746082 664.266392,309.097189 C659.723945,309.448296 649.294532,310.961768 638.773567,306.494236 C628.252601,302.026705 612.037652,292.102757 605.940755,284.330295 C599.843858,276.557833 593.645595,263.919308 590.692142,259.955102 C587.738689,255.990895 584.429554,242.907483 585.544054,240.280918 C586.287054,238.529875 588.646364,238.066943 592.621986,238.892123 C590.367403,235.864501 590.316968,233.898101 592.47068,232.992925 C595.701248,231.635161 600.476331,230.024319 604.646994,231.795314 C608.817658,233.566308 611.192881,236.565355 614.576192,236.011562 C617.959503,235.45777 629.440193,240.529092 632.445004,241.805029 C635.449816,243.080966 641.532081,245.435411 650.612708,251.313797 C659.693335,257.192183 663.601358,257.712897 674.394869,273.374651 C681.590544,283.815819 688.873237,291.275676 696.242949,295.754219 Z" id="Path-34-Copy-8" stroke="#FFFAF0" stroke-width="2" fill="#FFFAF0" transform="translate(640.782862, 270.321040) rotate(-165.000000) translate(-640.782862, -270.321040) "></path>
            <text id="12" font-family="Gopher-Bold, Gopher" font-size="15" font-weight="bold" line-spacing="23" fill="#000000">
                <tspan x="639.039327" y="271">12</tspan>
            </text>
        </g>
        <g id="Group-8" transform="translate(348.000000, 132.000000)">
            <path d="M68.5,-14 C64.2150175,-13.6146811 60.9656788,-13.4137302 58.7519837,-13.3971473 C55.431441,-13.372273 45.5471818,-11.2963367 42.4726155,-9.67870391 C39.3980492,-8.06107113 32.0536382,-4.80674694 27.062011,2.37223936 C22.0703839,9.55122565 15.6026038,22.5904792 14.8002651,30.1198265 C13.9979264,37.6491738 15.0924244,48.3824959 14.7840365,52.1592492 C14.4756486,55.9360026 17.6150111,65.7844788 19.393812,67.0387802 C20.5796793,67.8749811 22.2897265,67.2171568 24.5239537,65.0653072 C24.2891275,67.9493228 25.0495321,69.2479136 26.8051673,68.9610796 C29.4386202,68.5308287 33.1713947,67.6374511 35.1501484,64.7915964 C37.1289021,61.9457417 37.4531472,59.0312769 39.861014,58.0164029 C42.2688807,57.001529 47.636701,49.0401102 49.0623209,46.9897756 C50.4879408,44.939441 53.4657002,40.9375757 56.9583856,33.4268667 C60.4510709,25.9161577 62.7644298,23.9896697 63.4178565,9.4240498 C63.8534742,-0.286363504 65.5475221,-8.0943801 68.5,-14 Z" id="Path-34-Copy-23" stroke="#FFFAF0" stroke-dasharray="2,2" transform="translate(41.500000, 27.500000) rotate(-90.000000) translate(-41.500000, -27.500000) "></path>
            <path d="M46,-4.5 C43.3020481,-4.2585954 41.2561681,-4.13269845 39.8623601,-4.12230917 C37.7716481,-4.10672524 31.5482256,-2.80613865 29.6123875,-1.79268197 C27.6765495,-0.779225287 23.0522907,1.25962842 19.9094144,5.75730659 C16.766538,10.2549847 12.694232,18.4241557 12.1890558,23.1413371 C11.6838796,27.8585185 12.373008,34.5830095 12.1788378,36.9491682 C11.9846676,39.3153269 13.9613033,45.4854566 15.0812891,46.271284 C15.8279462,46.7951689 16.9046426,46.383038 18.3113783,45.0348913 C18.1635247,46.8417444 18.642298,47.6553194 19.7476979,47.4756162 C21.4057979,47.2060614 23.7560633,46.6463549 25.0019453,44.8634098 C26.2478272,43.0804646 26.4519816,41.2545349 27.9680458,40.6187103 C29.4841101,39.9828856 32.8638488,34.9950088 33.7614613,33.7104618 C34.6590738,32.4259149 36.5339594,29.9187221 38.7330576,25.2132177 C40.9321558,20.5077132 42.3887151,19.300757 42.8001318,10.1753083 C43.0744097,4.09167588 44.1410324,-0.800093558 46,-4.5 Z" id="Path-34-Copy-24" fill="#FFFAF0" transform="translate(29.000000, 21.500000) rotate(-90.000000) translate(-29.000000, -21.500000) "></path>
            <text id="forest" font-family="Courier-Bold, Courier" font-size="10" font-weight="bold" line-spacing="12" fill="#FFFAF0">
                <tspan x="97" y="40.5">forest</tspan>
            </text>
            <text id="percentage-of-area-c" font-family="Courier-Bold, Courier" font-size="10" font-weight="bold" line-spacing="12" fill="#FFFAF0">
                <tspan x="97" y="66.5">percentage of area </tspan>
                <tspan x="97" y="78.5">converted into cocoa </tspan>
                <tspan x="97" y="90.5">plantation</tspan>
            </text>
            <path id="Path-30" d="M95.206857,13 C107.009666,13 114.47455,18.1380041 117.479696,28.3589608 L117.479696,28.3589608 L116.520304,28.6410392 C113.645089,18.8619959 106.581211,14 95.206857,14 C86.8600259,14 80.0314734,15.9189566 74.7602258,19.7048829 L74.7602258,19.7048829 L70.365,23.89 L77.4115259,22.1018545 L77.6575642,23.0711147 L67.8993744,25.5481466 L70.8498136,15.9225109 L71.8059074,16.2155717 L69.674,23.167 L74.1234386,18.9369053 C79.491878,15.0752616 86.3112758,13.1000525 94.5688245,13.0037056 Z" fill="#FFFAF0" fill-rule="nonzero"></path>
            <path id="Path-30-Copy" d="M44.9952513,49.2089371 C51.0205793,44.6185281 58.3761456,43.3952492 67.0177899,45.529076 C78.3998519,48.339577 86.3568503,55.4207816 90.8517966,66.7337163 L90.8517966,66.7337163 L89.9224662,67.1029654 C85.5454321,56.0867938 77.8429616,49.2321022 66.7780662,46.4999172 C58.4174701,44.4354878 51.3732574,45.6069865 45.6539731,49.958043 L45.6539731,49.958043 L41.377,54.287 L48.3660683,52.2842347 L48.6415947,53.2455283 L38.96361,56.0194366 L41.6186893,46.3081798 L42.5832876,46.5719032 L40.666,53.584 Z" fill="#FFFAF0" fill-rule="nonzero"></path>
        </g>
    </g>
</svg>