<?xml version="1.0" encoding="UTF-8"?>
<svg width="200px" height="198px" viewBox="0 0 300 300" version="1.1" xmlns="http://www.w3.org/2000/svg" xmlns:xlink="http://www.w3.org/1999/xlink">
    <!-- Generator: Sketch 59.1 (86144) - https://sketch.com -->
    <title>Path 2</title>
    <desc>Created with Sketch.</desc>
    <g id="Page-1" stroke="none" stroke-width="1" fill="none" fill-rule="evenodd">
        <g id="3.0" transform="translate(-946.000000, -455.000000)" fill="#FFFAF0" stroke="#FFFAF0" stroke-width="2">
            <polygon id="Path-2" transform="translate(1053.000000, 655.000000) rotate(90.000000) translate(-1053.000000, -555.000000) " points="890.503494 660 885.783584 641.87623 893.655162 626.212021 893.655162 614.227368 878.048659 603.849802 878.048659 594.742249 865.556949 594.742249 856 585.160616 865.556949 575.578982 865.556949 565.914711 856 556.333078 865.556949 556.333078 881.716567 540.131723 865.556949 523.930369 878.048659 523.930369 885.783584 523.930369 885.783584 514.596649 874.827581 514.596649 874.827581 506.089307 879.54749 501.357206 867.747716 489.526956 867.747716 474.82178 886.119791 456.402253 910.623844 456.402253 917.009604 450 931.92851 450 931.92851 462.804507 939.893357 462.804507 946.279118 456.402253 956.777446 456.402253 979.322823 479.005861 994.629994 479.005861 1005.92003 479.005861 1014.4098 470.49417 1029.62804 470.49417 1050 490.91875 1050 535.734524 1040.0049 545.755442 1040.0049 565.914711 1025.69659 580.259978 1025.69659 594.742249 1045.13151 614.227368 1045.13151 635.041215 1032.41747 635.041215 1023.61102 626.212021 960.323886 626.212021 946.279118 640.293064 931.92851 640.293064 917.009604 640.293064 902.33472 655.005851 896.720066 655.005851"></polygon>
        </g>
    </g>
</svg>