<?xml version="1.0" encoding="UTF-8"?>
<svg width="1440px" height="700px" viewBox="0 0 1440 700" version="1.1" xmlns="http://www.w3.org/2000/svg" xmlns:xlink="http://www.w3.org/1999/xlink">
    <!-- Generator: Sketch 59.1 (86144) - https://sketch.com -->
    <title>3-4</title>
    <desc>Created with Sketch.</desc>
    <g id="3-4" stroke="none" stroke-width="1" fill="none" fill-rule="evenodd">
        <rect fill="#000000" x="0" y="0" width="1440" height="700"></rect>
        <rect id="Rectangle" fill="#000000" x="600.818642" y="303" width="92" height="91" rx="4"></rect>
        <rect id="Rectangle-Copy-12" fill="#FF6347" x="804" y="303" width="91" height="91" rx="4"></rect>
        <rect id="Rectangle-Copy-72" fill="#FF6347" x="-7.18135838" y="303" width="92" height="91" rx="4"></rect>
        <rect id="Rectangle-Copy-17" fill="#FF6347" x="398" y="303" width="92" height="91" rx="4"></rect>
        <rect id="Rectangle-Copy" fill="#FF6347" x="600.818642" y="200" width="92" height="92" rx="4"></rect>
        <rect id="Rectangle-Copy-18" fill="#FF6347" x="397.818642" y="200" width="92" height="92" rx="4"></rect>
        <rect id="Rectangle-Copy-73" fill="#FF6347" x="-7.18135838" y="200" width="92" height="92" rx="4"></rect>
        <rect id="Rectangle-Copy-9" fill="#FF6347" x="600.818642" y="99" width="92" height="92" rx="4"></rect>
        <rect id="Rectangle-Copy-10" fill="#FF6347" x="499" y="99" width="92" height="92" rx="4"></rect>
        <rect id="Rectangle-Copy-19" fill="#FF6347" x="397.818642" y="99" width="92" height="92" rx="4"></rect>
        <rect id="Rectangle-Copy-11" fill="#FF6347" x="703" y="99" width="92" height="92" rx="4"></rect>
        <rect id="Rectangle-Copy-14" fill="#FF6347" x="804" y="99" width="91" height="92" rx="4"></rect>
        <rect id="Rectangle-Copy-74" fill="#FF6347" x="-7.18135838" y="99" width="92" height="92" rx="4"></rect>
        <rect id="Rectangle-Copy-2" fill="#FF6347" x="600.818642" y="405" width="92" height="92" rx="4"></rect>
        <rect id="Rectangle-Copy-8" fill="#FF6347" x="499" y="405" width="92" height="92" rx="4"></rect>
        <rect id="Rectangle-Copy-60" fill="#FF6347" x="296.818642" y="405" width="92" height="92" rx="4"></rect>
        <rect id="Rectangle-Copy-61" fill="#FF6347" x="195.818642" y="405" width="92" height="92" rx="4"></rect>
        <rect id="Rectangle-Copy-7" fill="#FF6347" x="702.818642" y="405" width="92" height="92" rx="4"></rect>
        <rect id="Rectangle-Copy-15" fill="#FF6347" transform="translate(849.318642, 451.000000) scale(-1, 1) translate(-849.318642, -451.000000) " x="803.818642" y="405" width="91" height="92" rx="4"></rect>
        <rect id="Rectangle-Copy-62" fill="#FF6347" x="94.8186416" y="405" width="91" height="92" rx="4"></rect>
        <rect id="Rectangle-Copy-75" fill="#FF6347" x="-7.18135838" y="405" width="92" height="92" rx="4"></rect>
        <rect id="Rectangle-Copy-22" fill="#FF6347" x="600.818642" y="-3" width="92" height="92" rx="4"></rect>
        <rect id="Rectangle-Copy-23" fill="#FF6347" x="498.818642" y="-3" width="92" height="92" rx="4"></rect>
        <rect id="Rectangle-Copy-24" fill="#FF6347" x="397.818642" y="-3" width="92" height="92" rx="4"></rect>
        <rect id="Rectangle-Copy-25" fill="#FF6347" x="702.818642" y="-3" width="92" height="92" rx="4"></rect>
        <rect id="Rectangle-Copy-26" fill="#FF6347" x="803.818642" y="-3" width="91" height="92" rx="4"></rect>
        <rect id="Rectangle-Copy-76" fill="#FF6347" x="-7.18135838" y="-3" width="92" height="92" rx="4"></rect>
        <g id="Group-5" transform="translate(609.818642, 324.000000)">
            <path d="M24.4864688,15.6060702 C17.5157717,11.99033 13.4237074,11.9309947 6.90291329,19.2218105 C0.382119209,26.5126263 4.09335272,33.564247 4.09335272,38.8691869 C4.09335272,42.4058136 4.09335272,46.3893087 4.09335272,50.8196721 C8.45672786,49.8567109 12.9464243,45.8732158 17.5624421,38.8691869 C24.4864688,28.3631436 31.457166,19.2218105 24.4864688,15.6060702 Z" id="Path-12" fill="#FFFAF0"></path>
            <path d="M63.9923698,1.70995192 C59.3337589,-0.824577638 56.5989771,-0.866169918 52.2410424,4.24448148 C47.8831077,9.35513288 50.3633751,14.2981154 50.3633751,18.0167252 C50.3633751,20.4957984 50.3633751,23.2881134 50.3633751,26.3936703 C53.2794776,25.7186623 56.2800024,22.9263472 59.3649493,18.0167252 C63.9923698,10.6522921 68.6509808,4.24448148 63.9923698,1.70995192 Z" id="Path-12-Copy" fill="#FFFAF0" transform="translate(57.791667, 13.213115) scale(-1, 1) rotate(90.000000) translate(-57.791667, -13.213115) "></path>
            <path d="M17.9446916,6.69765199 C28.7562716,11.593815 35.0412983,18.0734445 36.7997718,26.1365404 C38.5582452,34.1996363 40.2160613,43.4394309 41.7732198,53.8559243 L41.7732198,60.5535763 C44.9651524,62.4821412 47.5761823,62.4821412 49.6063096,60.5535763 C51.6364369,58.6250113 49.9125265,49.8900945 44.4345785,34.348826 C52.0481622,26.7174147 59.2827646,22.901709 66.1383857,22.901709 C72.9940067,22.901709 73.821702,22.0570275 68.6214715,20.3676643 C54.9788791,24.2135817 47.0935224,26.1365404 44.9654014,26.1365404 C42.8372804,26.1365404 36.698508,17.4243602 26.5490842,0 C23.8483115,0.93313641 23.8483115,3.16568707 26.5490842,6.69765199 C30.6002433,11.9955994 14.4465422,0 7.92685018,0 C3.58038886,0 6.91966934,2.23255066 17.9446916,6.69765199 Z" id="Path-13" fill="#FFFAF0"></path>
            <path d="M36.0845256,27.411788 C33.6936583,11.2316421 22.4085439,13.6858487 2.22918241,34.7744077" id="Path-14" stroke="#FFFAF0" stroke-width="2" transform="translate(19.156854, 25.824660) rotate(-26.000000) translate(-19.156854, -25.824660) "></path>
            <path d="M42.4560192,28.4590164 C40.2867715,25.7081747 42.0982672,21.1301108 47.8905063,14.7248245 C53.6827455,8.31953831 59.01091,6.58096062 63.875,9.50909147" id="Path-15" stroke="#FFFAF0" stroke-width="2"></path>
        </g>
        <g id="Group-7" transform="translate(540.818642, 450.500000) scale(-1, 1) translate(-540.818642, -450.500000) translate(499.818642, 408.000000)" fill="#FFFAF0">
            <path d="M34.6554963,4.21985816 C25.5126293,8.61201073 19.8835224,13.4254135 17.7681754,18.6600664 C14.5951551,26.5120458 22.1643696,18.6600664 26.8227143,18.6600664 C31.481059,18.6600664 26.7268059,27.0928135 17.7681754,31.241818 C8.80954496,35.3908225 17.4510904,42.1370202 22.1369024,38.7639213 C26.8227143,35.3908225 26.5056293,41.4377759 22.1369024,46.822654 C17.7681754,52.2075322 30.5374859,53.8708509 33.7647059,58.4751773 C38.1594832,51.7359488 42.0095209,55.2739857 42.0095209,46.822654 C42.0095209,38.3713224 39.0502736,42.3553888 39.0502736,35.1747769 C39.0502736,27.994165 44.2093634,43.67257 46.8830556,43.67257 C49.5567478,43.67257 58.2513203,39.1077358 50.5532007,35.1747769 C42.855081,31.241818 34.6554963,25.3830334 39.0502736,21.6359201 C43.4450509,17.8888069 46.3919491,31.0908184 50.5532007,26.5120458 C53.3273684,23.4595307 48.0281336,16.0288015 34.6554963,4.21985816 Z" id="Combined-Shape" transform="translate(33.764706, 31.347518) rotate(120.000000) translate(-33.764706, -31.347518) "></path>
            <path d="M57.9272594,42.1985816 C51.2779015,45.4194934 47.1840056,48.9493221 45.6455714,52.7880676 C43.3379203,58.5461858 48.8428036,52.7880676 52.2306906,52.7880676 C55.6185777,52.7880676 52.1609391,58.9720822 45.6455714,62.0146855 C39.1302038,65.0572887 45.4149642,70.0045004 48.8228274,67.5308946 C52.2306906,65.0572887 52.0000834,69.4917212 48.8228274,73.4406319 C45.6455714,77.3895425 54.9323427,78.6093096 57.2794118,81.9858156 C60.4756134,77.0437147 63.2756409,79.6382751 63.2756409,73.4406319 C63.2756409,67.2429887 61.123461,70.1646374 61.123461,64.8988553 C61.123461,59.6330732 64.8755263,71.1305702 66.8200298,71.1305702 C68.7645332,71.1305702 75.0878586,67.7830252 69.4892261,64.8988553 C63.8905937,62.0146855 57.9272594,57.7182434 61.123461,54.9703603 C64.3196627,52.2224773 66.4628614,61.9039524 69.4892261,58.5461858 C71.5068027,56.3076748 67.6528137,50.8584734 57.9272594,42.1985816 Z" id="Combined-Shape-Copy" transform="translate(57.279412, 62.092199) scale(-1, 1) rotate(120.000000) translate(-57.279412, -62.092199) "></path>
        </g>
        <g id="Group-7-Copy-4" transform="translate(848.818642, 450.500000) scale(-1, 1) translate(-848.818642, -450.500000) translate(807.818642, 408.000000)" fill="#FFFAF0">
            <path d="M34.6554963,4.21985816 C25.5126293,8.61201073 19.8835224,13.4254135 17.7681754,18.6600664 C14.5951551,26.5120458 22.1643696,18.6600664 26.8227143,18.6600664 C31.481059,18.6600664 26.7268059,27.0928135 17.7681754,31.241818 C8.80954496,35.3908225 17.4510904,42.1370202 22.1369024,38.7639213 C26.8227143,35.3908225 26.5056293,41.4377759 22.1369024,46.822654 C17.7681754,52.2075322 30.5374859,53.8708509 33.7647059,58.4751773 C38.1594832,51.7359488 42.0095209,55.2739857 42.0095209,46.822654 C42.0095209,38.3713224 39.0502736,42.3553888 39.0502736,35.1747769 C39.0502736,27.994165 44.2093634,43.67257 46.8830556,43.67257 C49.5567478,43.67257 58.2513203,39.1077358 50.5532007,35.1747769 C42.855081,31.241818 34.6554963,25.3830334 39.0502736,21.6359201 C43.4450509,17.8888069 46.3919491,31.0908184 50.5532007,26.5120458 C53.3273684,23.4595307 48.0281336,16.0288015 34.6554963,4.21985816 Z" id="Combined-Shape" transform="translate(33.764706, 31.347518) rotate(120.000000) translate(-33.764706, -31.347518) "></path>
            <path d="M57.9272594,42.1985816 C51.2779015,45.4194934 47.1840056,48.9493221 45.6455714,52.7880676 C43.3379203,58.5461858 48.8428036,52.7880676 52.2306906,52.7880676 C55.6185777,52.7880676 52.1609391,58.9720822 45.6455714,62.0146855 C39.1302038,65.0572887 45.4149642,70.0045004 48.8228274,67.5308946 C52.2306906,65.0572887 52.0000834,69.4917212 48.8228274,73.4406319 C45.6455714,77.3895425 54.9323427,78.6093096 57.2794118,81.9858156 C60.4756134,77.0437147 63.2756409,79.6382751 63.2756409,73.4406319 C63.2756409,67.2429887 61.123461,70.1646374 61.123461,64.8988553 C61.123461,59.6330732 64.8755263,71.1305702 66.8200298,71.1305702 C68.7645332,71.1305702 75.0878586,67.7830252 69.4892261,64.8988553 C63.8905937,62.0146855 57.9272594,57.7182434 61.123461,54.9703603 C64.3196627,52.2224773 66.4628614,61.9039524 69.4892261,58.5461858 C71.5068027,56.3076748 67.6528137,50.8584734 57.9272594,42.1985816 Z" id="Combined-Shape-Copy" transform="translate(57.279412, 62.092199) scale(-1, 1) rotate(120.000000) translate(-57.279412, -62.092199) "></path>
        </g>
        <g id="Group-7-Copy-3" transform="translate(748.818642, 144.500000) scale(-1, 1) translate(-748.818642, -144.500000) translate(707.818642, 102.000000)" fill="#FFFAF0">
            <path d="M34.6554963,4.21985816 C25.5126293,8.61201073 19.8835224,13.4254135 17.7681754,18.6600664 C14.5951551,26.5120458 22.1643696,18.6600664 26.8227143,18.6600664 C31.481059,18.6600664 26.7268059,27.0928135 17.7681754,31.241818 C8.80954496,35.3908225 17.4510904,42.1370202 22.1369024,38.7639213 C26.8227143,35.3908225 26.5056293,41.4377759 22.1369024,46.822654 C17.7681754,52.2075322 30.5374859,53.8708509 33.7647059,58.4751773 C38.1594832,51.7359488 42.0095209,55.2739857 42.0095209,46.822654 C42.0095209,38.3713224 39.0502736,42.3553888 39.0502736,35.1747769 C39.0502736,27.994165 44.2093634,43.67257 46.8830556,43.67257 C49.5567478,43.67257 58.2513203,39.1077358 50.5532007,35.1747769 C42.855081,31.241818 34.6554963,25.3830334 39.0502736,21.6359201 C43.4450509,17.8888069 46.3919491,31.0908184 50.5532007,26.5120458 C53.3273684,23.4595307 48.0281336,16.0288015 34.6554963,4.21985816 Z" id="Combined-Shape" transform="translate(33.764706, 31.347518) rotate(120.000000) translate(-33.764706, -31.347518) "></path>
            <path d="M57.9272594,42.1985816 C51.2779015,45.4194934 47.1840056,48.9493221 45.6455714,52.7880676 C43.3379203,58.5461858 48.8428036,52.7880676 52.2306906,52.7880676 C55.6185777,52.7880676 52.1609391,58.9720822 45.6455714,62.0146855 C39.1302038,65.0572887 45.4149642,70.0045004 48.8228274,67.5308946 C52.2306906,65.0572887 52.0000834,69.4917212 48.8228274,73.4406319 C45.6455714,77.3895425 54.9323427,78.6093096 57.2794118,81.9858156 C60.4756134,77.0437147 63.2756409,79.6382751 63.2756409,73.4406319 C63.2756409,67.2429887 61.123461,70.1646374 61.123461,64.8988553 C61.123461,59.6330732 64.8755263,71.1305702 66.8200298,71.1305702 C68.7645332,71.1305702 75.0878586,67.7830252 69.4892261,64.8988553 C63.8905937,62.0146855 57.9272594,57.7182434 61.123461,54.9703603 C64.3196627,52.2224773 66.4628614,61.9039524 69.4892261,58.5461858 C71.5068027,56.3076748 67.6528137,50.8584734 57.9272594,42.1985816 Z" id="Combined-Shape-Copy" transform="translate(57.279412, 62.092199) scale(-1, 1) rotate(120.000000) translate(-57.279412, -62.092199) "></path>
        </g>
        <g id="Group-7-Copy-2" transform="translate(442.818642, 348.500000) scale(-1, 1) translate(-442.818642, -348.500000) translate(401.818642, 306.000000)" fill="#FFFAF0">
            <path d="M34.6554963,4.21985816 C25.5126293,8.61201073 19.8835224,13.4254135 17.7681754,18.6600664 C14.5951551,26.5120458 22.1643696,18.6600664 26.8227143,18.6600664 C31.481059,18.6600664 26.7268059,27.0928135 17.7681754,31.241818 C8.80954496,35.3908225 17.4510904,42.1370202 22.1369024,38.7639213 C26.8227143,35.3908225 26.5056293,41.4377759 22.1369024,46.822654 C17.7681754,52.2075322 30.5374859,53.8708509 33.7647059,58.4751773 C38.1594832,51.7359488 42.0095209,55.2739857 42.0095209,46.822654 C42.0095209,38.3713224 39.0502736,42.3553888 39.0502736,35.1747769 C39.0502736,27.994165 44.2093634,43.67257 46.8830556,43.67257 C49.5567478,43.67257 58.2513203,39.1077358 50.5532007,35.1747769 C42.855081,31.241818 34.6554963,25.3830334 39.0502736,21.6359201 C43.4450509,17.8888069 46.3919491,31.0908184 50.5532007,26.5120458 C53.3273684,23.4595307 48.0281336,16.0288015 34.6554963,4.21985816 Z" id="Combined-Shape" transform="translate(33.764706, 31.347518) rotate(120.000000) translate(-33.764706, -31.347518) "></path>
            <path d="M57.9272594,42.1985816 C51.2779015,45.4194934 47.1840056,48.9493221 45.6455714,52.7880676 C43.3379203,58.5461858 48.8428036,52.7880676 52.2306906,52.7880676 C55.6185777,52.7880676 52.1609391,58.9720822 45.6455714,62.0146855 C39.1302038,65.0572887 45.4149642,70.0045004 48.8228274,67.5308946 C52.2306906,65.0572887 52.0000834,69.4917212 48.8228274,73.4406319 C45.6455714,77.3895425 54.9323427,78.6093096 57.2794118,81.9858156 C60.4756134,77.0437147 63.2756409,79.6382751 63.2756409,73.4406319 C63.2756409,67.2429887 61.123461,70.1646374 61.123461,64.8988553 C61.123461,59.6330732 64.8755263,71.1305702 66.8200298,71.1305702 C68.7645332,71.1305702 75.0878586,67.7830252 69.4892261,64.8988553 C63.8905937,62.0146855 57.9272594,57.7182434 61.123461,54.9703603 C64.3196627,52.2224773 66.4628614,61.9039524 69.4892261,58.5461858 C71.5068027,56.3076748 67.6528137,50.8584734 57.9272594,42.1985816 Z" id="Combined-Shape-Copy" transform="translate(57.279412, 62.092199) scale(-1, 1) rotate(120.000000) translate(-57.279412, -62.092199) "></path>
        </g>
        <g id="Group-7-Copy-5" transform="translate(445.318642, 146.000000) scale(-1, 1) translate(-445.318642, -146.000000) translate(403.818642, 103.000000)" fill="#FFFAF0">
            <path d="M35.0781243,4.26950355 C25.8237589,8.7133285 20.1260043,13.5833595 17.9848605,18.8795966 C14.7731448,26.8239522 22.4346668,18.8795966 27.1498206,18.8795966 C31.8649744,18.8795966 27.0527426,27.4115525 17.9848605,31.6093688 C8.91697844,35.8071851 17.6639086,42.6327498 22.4068646,39.2199675 C27.1498206,35.8071851 26.8288687,41.9252791 22.4068646,47.3735088 C17.9848605,52.8217385 30.9098943,54.5046256 34.1764706,59.1631206 C38.6248427,52.3446071 42.5218322,55.9242679 42.5218322,47.3735088 C42.5218322,38.8227497 39.5264965,42.8536875 39.5264965,35.5885978 C39.5264965,28.3235081 44.748502,44.1863649 47.4548002,44.1863649 C50.1610984,44.1863649 58.9617023,39.5678268 51.1697031,35.5885978 C43.3777039,31.6093688 35.0781243,25.6816573 39.5264965,21.8904604 C43.9748686,18.0992634 46.9577046,31.4565927 51.1697031,26.8239522 C53.9777021,23.7355252 48.6138425,16.2173757 35.0781243,4.26950355 Z" id="Combined-Shape" transform="translate(34.176471, 31.716312) rotate(120.000000) translate(-34.176471, -31.716312) "></path>
            <path d="M58.6336894,42.6950355 C51.9032418,45.9538404 47.7594203,49.5251965 46.2022247,53.4091037 C43.8664315,59.2349645 49.4384475,53.4091037 52.8676503,53.4091037 C56.296853,53.4091037 52.7970481,59.6658714 46.2022247,62.74427 C39.6074014,65.8226686 45.9688052,70.8280827 49.4182277,68.3253757 C52.8676503,65.8226686 52.6342307,70.3092709 49.4182277,74.3046393 C46.2022247,78.3000077 55.6022493,79.534125 57.9779412,82.9503546 C61.2131209,77.9501114 64.0472951,80.575196 64.0472951,74.3046393 C64.0472951,68.0340826 61.8688691,70.9901037 61.8688691,65.6623713 C61.8688691,60.3346388 65.6666913,71.9674005 67.6349082,71.9674005 C69.603125,71.9674005 76.0035642,68.5804725 70.3366557,65.6623713 C64.6697472,62.74427 58.6336894,58.3972816 61.8688691,55.6170705 C65.1040488,52.8368594 67.2733841,62.6322342 70.3366557,59.2349645 C72.3788368,56.970118 68.477848,51.4568083 58.6336894,42.6950355 Z" id="Combined-Shape-Copy" transform="translate(57.977941, 62.822695) scale(-1, 1) rotate(120.000000) translate(-57.977941, -62.822695) "></path>
        </g>
        <g id="Group-6" transform="translate(604.818642, 203.000000)" fill="#FFFAF0">
            <path d="M34.6554963,4.26950355 C25.5126293,8.7133285 19.8835224,13.5833595 17.7681754,18.8795966 C14.5951551,26.8239522 22.1643696,18.8795966 26.8227143,18.8795966 C31.481059,18.8795966 26.7268059,27.4115525 17.7681754,31.6093688 C8.80954496,35.8071851 17.4510904,42.6327498 22.1369024,39.2199675 C26.8227143,35.8071851 26.5056293,41.9252791 22.1369024,47.3735088 C17.7681754,52.8217385 30.5374859,54.5046256 33.7647059,59.1631206 C38.1594832,52.3446071 42.0095209,55.9242679 42.0095209,47.3735088 C42.0095209,38.8227497 39.0502736,42.8536875 39.0502736,35.5885978 C39.0502736,28.3235081 44.2093634,44.1863649 46.8830556,44.1863649 C49.5567478,44.1863649 58.2513203,39.5678268 50.5532007,35.5885978 C42.855081,31.6093688 34.6554963,25.6816573 39.0502736,21.8904604 C43.4450509,18.0992634 46.3919491,31.4565927 50.5532007,26.8239522 C53.3273684,23.7355252 48.0281336,16.2173757 34.6554963,4.26950355 Z" id="Combined-Shape-Copy-2" transform="translate(33.764706, 31.716312) rotate(120.000000) translate(-33.764706, -31.716312) "></path>
            <path d="M57.9272594,42.6950355 C51.2779015,45.9538404 47.1840056,49.5251965 45.6455714,53.4091037 C43.3379203,59.2349645 48.8428036,53.4091037 52.2306906,53.4091037 C55.6185777,53.4091037 52.1609391,59.6658714 45.6455714,62.74427 C39.1302038,65.8226686 45.4149642,70.8280827 48.8228274,68.3253757 C52.2306906,65.8226686 52.0000834,70.3092709 48.8228274,74.3046393 C45.6455714,78.3000077 54.9323427,79.534125 57.2794118,82.9503546 C60.4756134,77.9501114 63.2756409,80.575196 63.2756409,74.3046393 C63.2756409,68.0340826 61.123461,70.9901037 61.123461,65.6623713 C61.123461,60.3346388 64.8755263,71.9674005 66.8200298,71.9674005 C68.7645332,71.9674005 75.0878586,68.5804725 69.4892261,65.6623713 C63.8905937,62.74427 57.9272594,58.3972816 61.123461,55.6170705 C64.3196627,52.8368594 66.4628614,62.6322342 69.4892261,59.2349645 C71.5068027,56.970118 67.6528137,51.4568083 57.9272594,42.6950355 Z" id="Combined-Shape-Copy-3" transform="translate(57.279412, 62.822695) scale(-1, 1) rotate(120.000000) translate(-57.279412, -62.822695) "></path>
        </g>
        <g id="Group-4-Copy-5" transform="translate(544.818642, 145.500000) scale(-1, -1) translate(-544.818642, -145.500000) translate(521.818642, 121.000000)">
            <g id="Group-3" fill="#FFFAF0">
                <path d="M23,0 L29.4181967,12.899575 C30.8943169,15.8663465 29.6859052,19.4680219 26.7191337,20.9441421 C25.8887448,21.3573029 24.9738771,21.572327 24.0463817,21.572327 L21.9536183,21.572327 C18.6399098,21.572327 15.9536183,18.8860355 15.9536183,15.572327 C15.9536183,14.6448316 16.1686424,13.729964 16.5818033,12.899575 L23,0 L23,0 Z" id="Triangle" transform="translate(23.000000, 10.786164) scale(-1, -1) translate(-23.000000, -10.786164) "></path>
                <path d="M33.4114775,9.28232128 L39.8364822,22.0571577 C41.3253817,25.0175365 40.1325121,28.6243891 37.1721334,30.1132886 C36.3342072,30.5347171 35.4091508,30.7538324 34.471216,30.7530466 L32.3586796,30.7512769 C29.0449722,30.7485009 26.360932,28.05996 26.363708,24.7462527 C26.3644892,23.8137551 26.5826086,22.8942745 27.0007553,22.0607844 L33.4114775,9.28232128 L33.4114775,9.28232128 Z" id="Triangle-Copy" transform="translate(33.429546, 20.021765) scale(-1, -1) rotate(80.000000) translate(-33.429546, -20.021765) "></path>
                <path d="M12.5523845,9.28232128 L18.9773893,22.0571577 C20.4662888,25.0175365 19.2734192,28.6243891 16.3130404,30.1132886 C15.4751142,30.5347171 14.5500579,30.7538324 13.6121231,30.7530466 L11.4995866,30.7512769 C8.1858793,30.7485009 5.50183911,28.05996 5.50461508,24.7462527 C5.50539626,23.8137551 5.72351563,22.8942745 6.1416624,22.0607844 L12.5523845,9.28232128 L12.5523845,9.28232128 Z" id="Triangle-Copy-2" transform="translate(12.570454, 20.021765) scale(1, -1) rotate(80.000000) translate(-12.570454, -20.021765) "></path>
            </g>
            <path d="M23.4622738,20.4166667 C19.7995146,32.9852246 21.1787567,42.5130024 27.6,49" id="Path-19" stroke="#FFFAF0" stroke-width="2"></path>
        </g>
        <g id="Group-4-Copy-3" transform="translate(824.818642, 325.000000)">
            <g id="Group-3" fill="#FFFAF0">
                <path d="M23,0 L29.2462769,12.1670099 C30.7596786,15.1149378 29.5967654,18.7315601 26.6488374,20.2449619 C25.8009834,20.6802316 24.8616374,20.9072662 23.9085811,20.9072662 L22.0914189,20.9072662 C18.7777104,20.9072662 16.0914189,18.2209747 16.0914189,14.9072662 C16.0914189,13.9542099 16.3184534,13.0148639 16.7537231,12.1670099 L23,0 L23,0 Z" id="Triangle" transform="translate(23.000000, 10.453633) scale(-1, -1) translate(-23.000000, -10.453633) "></path>
                <path d="M33.5541881,8.70802685 L39.7686342,21.5380663 C41.2131544,24.5203515 39.9665495,28.1089864 36.9842642,29.5535066 C36.1772397,29.9444026 35.2928606,30.1494391 34.3961602,30.1535387 L32.6767851,30.1613996 C29.3631112,30.1765494 26.6645665,27.5025673 26.6494167,24.1888934 C26.6451819,23.2626303 26.8554602,22.347964 27.2637793,21.5165454 L33.5541881,8.70802685 L33.5541881,8.70802685 Z" id="Triangle-Copy" transform="translate(33.458525, 19.456842) scale(-1, -1) rotate(80.000000) translate(-33.458525, -19.456842) "></path>
                <path d="M12.6371381,8.70802685 L18.8515843,21.5380663 C20.2961045,24.5203515 19.0494996,28.1089864 16.0672143,29.5535066 C15.2601897,29.9444026 14.3758106,30.1494391 13.4791102,30.1535387 L11.7597351,30.1613996 C8.44606127,30.1765494 5.74751651,27.5025673 5.73236671,24.1888934 C5.72813193,23.2626303 5.9384102,22.347964 6.34672931,21.5165454 L12.6371381,8.70802685 L12.6371381,8.70802685 Z" id="Triangle-Copy-2" transform="translate(12.541475, 19.456842) scale(1, -1) rotate(80.000000) translate(-12.541475, -19.456842) "></path>
            </g>
            <path d="M23.4622738,19.4042553 C19.7995146,31.9782707 21.1787567,41.5101856 27.6,48" id="Path-19" stroke="#FFFAF0" stroke-width="2"></path>
        </g>
        <g id="Group-9" transform="translate(613.818642, 414.000000)">
            <g id="Group-8">
                <path d="M40.3599728,4.00152717 C32.1071627,4.03121524 26.3576728,12.7235185 26.3366597,18.522508 C26.3156465,24.3214974 26.2994493,28.7914587 33.4521918,32.2082333 C38.2206868,34.4860831 41.0056529,39.1333202 41.80709,46.1499447 C44.3619146,36.8264608 47.9801914,30.3502572 52.6619204,26.7213341 C59.6845139,21.2779494 58.2936521,22.8412036 57.2398656,14.8624881 C56.186079,6.88377267 48.6127829,3.97228144 40.3599728,4.00152717 Z" id="Path-20" fill="#FFFAF0" transform="translate(42.221003, 25.075736) rotate(13.000000) translate(-42.221003, -25.075736) "></path>
                <path d="M16.5657429,22.5159602 C11.231153,22.5540229 7.49421887,28.3449541 7.4669392,32.1997804 C7.43965953,36.0546067 7.4186319,39.0259734 12.034011,41.2812036 C15.1109303,42.7846905 16.9001233,45.8676275 17.4015899,50.5300148 C19.0750205,44.3266687 21.4291291,40.0136229 24.4639155,37.5908775 C29.0160951,33.9567595 28.1133659,34.9990196 27.4510561,29.6976638 C26.7887462,24.3963079 21.9003327,22.4778976 16.5657429,22.5159602 Z" id="Path-20-Copy" fill="#FFFAF0" transform="translate(17.730392, 36.522710) scale(-1, 1) rotate(60.000000) translate(-17.730392, -36.522710) "></path>
                <path d="M19.5728155,39.5084746 C30.0278567,41.4967082 36.3125527,46.7560095 38.4269035,55.2863785 C40.5412543,63.8167475 39.4410536,69.3033413 35.1263016,71.74616" id="Path-21" stroke="#FFFAF0" stroke-width="2"></path>
            </g>
            <path d="M43.6935484,25.3428571 C40.6305604,31.6148041 39.003348,36.3567782 38.8119113,39.5687793 C38.5247561,44.386781 36.2275151,45.52159 38.8119113,53.7428571" id="Path-22" stroke="#FFFAF0" stroke-width="2"></path>
        </g>
        <g id="Group-9-Copy-3" transform="translate(611.818642, 106.000000)">
            <g id="Group-8">
                <path d="M40.2947547,3.04986404 C32.0361536,3.05425238 26.3094002,11.845038 26.3061446,17.7215054 C26.3031483,23.5979729 26.3007388,28.1276555 33.4691272,31.6121999 C38.2480528,33.9352294 41.0493504,38.653206 41.8730198,45.7661295 C44.4008826,36.3258609 48.0017454,29.774229 52.6756082,26.1112338 C59.6864024,20.6167409 58.2993753,22.1966048 57.2202065,14.1079465 C56.1410376,6.01928813 48.5533557,3.04548537 40.2947547,3.04986404 Z" id="Path-20" fill="#FFFAF0" transform="translate(42.206524, 24.407997) rotate(13.000000) translate(-42.206524, -24.407997) "></path>
                <path d="M16.4943368,21.9446492 C11.1036278,21.9503237 7.36253656,27.7388548 7.35847843,31.6070881 C7.35442029,35.4753213 7.35129222,38.4570223 12.0291794,40.7483417 C15.1477709,42.2758879 16.9746659,45.3805922 17.5098645,50.0624547 C19.1631394,43.8474717 21.515811,39.5335963 24.5678793,37.1208286 C29.1459817,33.5016771 28.2400731,34.5421016 27.5384353,29.2180397 C26.8367974,23.8939778 21.8850458,21.9389993 16.4943368,21.9446492 Z" id="Path-20-Copy" fill="#FFFAF0" transform="translate(17.736693, 36.003552) scale(-1, 1) rotate(60.000000) translate(-17.736693, -36.003552) "></path>
                <path d="M19.5728155,39.0508475 C30.0278567,41.0670844 36.3125527,46.4004604 38.4269035,55.0509754 C40.5412543,63.7014904 39.4410536,69.2653602 35.1263016,71.7425847" id="Path-21" stroke="#FFFAF0" stroke-width="2"></path>
            </g>
            <path d="M43.6935484,24.3380282 C40.6305604,30.8326846 39.003348,35.7430406 38.8119113,39.0690962 C38.5247561,44.0581795 36.2275151,45.2332842 38.8119113,53.7464789" id="Path-22" stroke="#FFFAF0" stroke-width="2"></path>
        </g>
        <g id="Group-9-Copy" transform="translate(743.818642, 450.500000) scale(1, -1) translate(-743.818642, -450.500000) translate(712.818642, 415.000000)">
            <g id="Group-8">
                <path d="M39.6458438,3.00831275 C31.5175043,3.00904347 25.8848998,11.6743617 25.8843699,17.4686201 C25.8838578,23.2628786 25.8834562,27.7291931 32.9402958,31.1681087 C37.6448556,33.460719 40.4040211,38.1139127 41.2177925,45.1276897 C43.7016788,35.8205831 47.2428974,29.3621698 51.8414481,25.7524499 C58.7392743,20.3378701 57.3748113,21.8950296 56.309146,13.9190565 C55.2434808,5.94308348 47.7741832,3.0075823 39.6458438,3.00831275 Z" id="Path-20" fill="#FFFAF0" transform="translate(41.534427, 24.068001) rotate(13.000000) translate(-41.534427, -24.068001) "></path>
                <path d="M16.222535,21.6574527 C10.9093757,21.6583968 7.227073,27.3547036 7.22638033,31.1634516 C7.22572029,34.9721996 7.22519894,37.9080484 11.8377637,40.1681531 C14.9128069,41.6748896 16.7160896,44.7334226 17.2476118,49.3437519 C18.8717649,43.225757 21.1868872,38.9802373 24.1929788,36.6071929 C28.7021162,33.0476263 27.8101329,34.0712739 27.1140139,28.8284772 C26.4178948,23.5856805 21.5356942,21.6565094 16.222535,21.6574527 Z" id="Path-20-Copy" fill="#FFFAF0" transform="translate(17.456110, 35.500602) scale(-1, 1) rotate(60.000000) translate(-17.456110, -35.500602) "></path>
                <path d="M19.2621359,38.5084746 C29.5512241,40.4967082 35.736163,45.7560095 37.8169526,54.2863785 C39.8977423,62.8167475 38.8150052,68.3033413 34.5687412,70.74616" id="Path-21" stroke="#FFFAF0" stroke-width="2"></path>
            </g>
            <path d="M42.6885246,24.3428571 C39.6247396,30.6148041 37.9971038,35.3567782 37.8056172,38.5687793 C37.5183873,43.386781 35.2205486,44.52159 37.8056172,52.7428571" id="Path-22" stroke="#FFFAF0" stroke-width="2"></path>
        </g>
        <g id="Group-9-Copy-4" transform="translate(848.818642, 145.000000) scale(-1, 1) translate(-848.818642, -145.000000) translate(817.818642, 109.000000)">
            <g id="Group-8">
                <path d="M39.5806824,3.05615158 C31.446552,3.03184941 25.8366839,11.7956499 25.8540099,17.6673863 C25.8714163,23.5391228 25.8848025,28.0651587 32.957288,31.571844 C37.6722783,33.9096342 40.4477754,38.6335673 41.2837791,45.7436432 C43.7407036,36.319752 47.2645081,29.7859104 51.8551927,26.1421184 C58.7412196,20.6764303 57.3805913,22.2501996 56.2895437,14.1642837 C55.1984961,6.07836774 47.7148128,3.08055503 39.5806824,3.05615158 Z" id="Path-20" fill="#FFFAF0" transform="translate(41.518962, 24.399897) rotate(13.000000) translate(-41.518962, -24.399897) "></path>
                <path d="M16.1536882,22.0845469 C10.7844098,22.05322 7.09794999,27.7471267 7.12039234,31.5692816 C7.14304035,35.3914366 7.16041857,38.3376197 11.8354915,40.6338135 C14.9522067,42.1646095 16.7931915,45.2449097 17.3584457,49.8747142 C18.9624431,43.7450824 21.2761285,39.4987331 24.2995019,37.1356664 C28.834562,33.5910663 27.9393994,34.6128783 27.2039524,29.3473756 C26.4685054,24.0818729 21.5229666,22.1161334 16.1536882,22.0845469 Z" id="Path-20-Copy" fill="#FFFAF0" transform="translate(17.463071, 35.979631) scale(-1, 1) rotate(60.000000) translate(-17.463071, -35.979631) "></path>
                <path d="M19.2621359,39.0508475 C29.5512241,41.0670844 35.736163,46.4004604 37.8169526,55.0509754 C39.8977423,63.7014904 38.8150052,69.2653602 34.5687412,71.7425847" id="Path-21" stroke="#FFFAF0" stroke-width="2"></path>
            </g>
            <path d="M42.6885246,24.3380282 C39.6247396,30.8326846 37.9971038,35.7430406 37.8056172,39.0690962 C37.5183873,44.0581795 35.2205486,45.2332842 37.8056172,53.7464789" id="Path-22" stroke="#FFFAF0" stroke-width="2"></path>
        </g>
        <g id="Group-9-Copy-2" transform="translate(442.818642, 246.500000) scale(1, -1) translate(-442.818642, -246.500000) translate(411.818642, 211.000000)">
            <g id="Group-8">
                <path d="M39.6458438,3.00831275 C31.5175043,3.00904347 25.8848998,11.6743617 25.8843699,17.4686201 C25.8838578,23.2628786 25.8834562,27.7291931 32.9402958,31.1681087 C37.6448556,33.460719 40.4040211,38.1139127 41.2177925,45.1276897 C43.7016788,35.8205831 47.2428974,29.3621698 51.8414481,25.7524499 C58.7392743,20.3378701 57.3748113,21.8950296 56.309146,13.9190565 C55.2434808,5.94308348 47.7741832,3.0075823 39.6458438,3.00831275 Z" id="Path-20" fill="#FFFAF0" transform="translate(41.534427, 24.068001) rotate(13.000000) translate(-41.534427, -24.068001) "></path>
                <path d="M16.222535,21.6574527 C10.9093757,21.6583968 7.227073,27.3547036 7.22638033,31.1634516 C7.22572029,34.9721996 7.22519894,37.9080484 11.8377637,40.1681531 C14.9128069,41.6748896 16.7160896,44.7334226 17.2476118,49.3437519 C18.8717649,43.225757 21.1868872,38.9802373 24.1929788,36.6071929 C28.7021162,33.0476263 27.8101329,34.0712739 27.1140139,28.8284772 C26.4178948,23.5856805 21.5356942,21.6565094 16.222535,21.6574527 Z" id="Path-20-Copy" fill="#FFFAF0" transform="translate(17.456110, 35.500602) scale(-1, 1) rotate(60.000000) translate(-17.456110, -35.500602) "></path>
                <path d="M19.2621359,38.5084746 C29.5512241,40.4967082 35.736163,45.7560095 37.8169526,54.2863785 C39.8977423,62.8167475 38.8150052,68.3033413 34.5687412,70.74616" id="Path-21" stroke="#FFFAF0" stroke-width="2"></path>
            </g>
            <path d="M42.6885246,24.3428571 C39.6247396,30.6148041 37.9971038,35.3567782 37.8056172,38.5687793 C37.5183873,43.386781 35.2205486,44.52159 37.8056172,52.7428571" id="Path-22" stroke="#FFFAF0" stroke-width="2"></path>
        </g>
        <rect id="Rectangle-Copy-59" fill="#FF6347" opacity="0" x="94.8186416" y="99" width="296" height="194" rx="4"></rect>
        <rect id="Rectangle-Copy-27" fill="#FF6347" x="1107.81864" y="303" width="92" height="91" rx="4"></rect>
        <rect id="Rectangle-Copy-30" fill="#FF6347" x="1310.81864" y="303" width="92" height="91" rx="4"></rect>
        <rect id="Rectangle-Copy-28" fill="#FF6347" x="1208.81864" y="303" width="91" height="91" rx="4"></rect>
        <rect id="Rectangle-Copy-31" fill="#FF6347" x="1412.81864" y="303" width="91" height="91" rx="4"></rect>
        <rect id="Rectangle-Copy-32" fill="#FF6347" x="1107.81864" y="200" width="92" height="92" rx="4"></rect>
        <rect id="Rectangle-Copy-33" fill="#FF6347" x="1310.81864" y="200" width="92" height="92" rx="4"></rect>
        <rect id="Rectangle-Copy-35" fill="#FF6347" x="1208.81864" y="200" width="91" height="92" rx="4"></rect>
        <rect id="Rectangle-Copy-38" fill="#FF6347" x="1412.81864" y="200" width="91" height="92" rx="4"></rect>
        <rect id="Rectangle-Copy-37" fill="#FF6347" x="1107.81864" y="99" width="92" height="92" rx="4"></rect>
        <rect id="Rectangle-Copy-39" fill="#FF6347" x="1310.81864" y="99" width="92" height="92" rx="4"></rect>
        <rect id="Rectangle-Copy-40" fill="#FF6347" x="1208.81864" y="99" width="91" height="92" rx="4"></rect>
        <rect id="Rectangle-Copy-43" fill="#FF6347" x="1412.81864" y="99" width="91" height="92" rx="4"></rect>
        <rect id="Rectangle-Copy-42" fill="#FF6347" x="1107.81864" y="405" width="92" height="92" rx="4"></rect>
        <rect id="Rectangle-Copy-44" fill="#FF6347" x="1310.81864" y="405" width="92" height="92" rx="4"></rect>
        <rect id="Rectangle-Copy-45" fill="#FF6347" x="1208.81864" y="405" width="91" height="92" rx="4"></rect>
        <rect id="Rectangle-Copy-46" fill="#FF6347" x="1412.81864" y="405" width="91" height="92" rx="4"></rect>
        <rect id="Rectangle-Copy-47" fill="#FF6347" x="1107.81864" y="506" width="92" height="92" rx="4"></rect>
        <rect id="Rectangle-Copy-48" fill="#FF6347" x="1310.81864" y="506" width="92" height="92" rx="4"></rect>
        <rect id="Rectangle-Copy-22" fill="#FF6347" x="1107.81864" y="608" width="92" height="92" rx="4"></rect>
        <rect id="Rectangle-Copy-34" fill="#FF6347" x="1310.81864" y="608" width="92" height="92" rx="4"></rect>
        <rect id="Rectangle-Copy-25" fill="#FF6347" x="1207.81864" y="608" width="92" height="92" rx="4"></rect>
        <rect id="Rectangle-Copy-49" fill="#FF6347" x="1411.81864" y="608" width="92" height="92" rx="4"></rect>
        <rect id="Rectangle-Copy-51" fill="#FF6347" x="1208.81864" y="-3" width="91" height="92" rx="4"></rect>
        <rect id="Rectangle-Copy-52" fill="#FF6347" x="1412.81864" y="-3" width="91" height="92" rx="4"></rect>
        <rect id="Rectangle-Copy-53" fill="#FF6347" x="1310.81864" y="-3" width="91" height="92" rx="4"></rect>
        <rect id="Rectangle-Copy-55" fill="#FF6347" x="1208.81864" y="506" width="91" height="92" rx="4"></rect>
        <rect id="Rectangle-Copy-56" fill="#FF6347" x="1412.81864" y="506" width="91" height="92" rx="4"></rect>
        <rect id="Rectangle-Copy-30" fill="#FF6347" x="1005.81864" y="303" width="92" height="91" rx="4"></rect>
        <rect id="Rectangle-Copy-31" fill="#FF6347" x="904.818642" y="303" width="92" height="91" rx="4"></rect>
        <rect id="Rectangle-Copy-33" fill="#FF6347" x="1005.81864" y="200" width="92" height="92" rx="4"></rect>
        <rect id="Rectangle-Copy-34" fill="#FF6347" x="905" y="200" width="92" height="92" rx="4"></rect>
        <rect id="Rectangle-Copy-38" fill="#FF6347" x="1005.81864" y="99" width="92" height="92" rx="4"></rect>
        <rect id="Rectangle-Copy-39" fill="#FF6347" x="904.818642" y="99" width="92" height="92" rx="4"></rect>
        <rect id="Rectangle-Copy-43" fill="#FF6347" x="1005.81864" y="405" width="92" height="92" rx="4"></rect>
        <rect id="Rectangle-Copy-44" fill="#FF6347" x="904.818642" y="405" width="92" height="92" rx="4"></rect>
        <rect id="Rectangle-Copy-2" fill="#FF6347" x="600.818642" y="506" width="92" height="92" rx="4"></rect>
        <g id="Group" transform="translate(396.818642, 608.000000)" fill="#FF6347">
            <rect id="Rectangle-Copy-22" x="203.265306" y="0" width="92.4857143" height="92" rx="4"></rect>
            <rect id="Rectangle-Copy-23" x="101.632653" y="0" width="92.4857143" height="92" rx="4"></rect>
            <rect id="Rectangle-Copy-24" x="0" y="0" width="92.4857143" height="92" rx="4"></rect>
            <rect id="Rectangle-Copy-25" x="303.881633" y="0" width="92.4857143" height="92" rx="4"></rect>
            <rect id="Rectangle-Copy-26" x="405.514286" y="0" width="92.4857143" height="92" rx="4"></rect>
        </g>
        <rect id="Rectangle-Copy-23" fill="#FF6347" x="1005.81864" y="608" width="92" height="92" rx="4"></rect>
        <rect id="Rectangle-Copy-24" fill="#FF6347" x="904.818642" y="608" width="92" height="92" rx="4"></rect>
        <rect id="Rectangle-Copy-48" fill="#FF6347" x="1107.81864" y="-3" width="92" height="92" rx="4"></rect>
        <rect id="Rectangle-Copy-49" fill="#FF6347" x="1005.81864" y="-3" width="92" height="92" rx="4"></rect>
        <rect id="Rectangle-Copy-50" fill="#FF6347" x="904.818642" y="-3" width="92" height="92" rx="4"></rect>
        <rect id="Rectangle-Copy-53" fill="#FF6347" x="1005.81864" y="506" width="92" height="92" rx="4"></rect>
        <rect id="Rectangle-Copy-66" fill="#FF6347" x="296.818642" y="506" width="92" height="92" rx="4"></rect>
        <rect id="Rectangle-Copy-69" fill="#FF6347" x="296.818642" y="608" width="92" height="92" rx="4"></rect>
        <rect id="Rectangle-Copy-21" fill="#FF6347" x="398" y="506" width="92" height="92" rx="4"></rect>
        <rect id="Rectangle-Copy-54" fill="#FF6347" x="904.818642" y="506" width="92" height="92" rx="4"></rect>
        <rect id="Rectangle-Copy-67" fill="#FF6347" x="195.818642" y="506" width="92" height="92" rx="4"></rect>
        <rect id="Rectangle-Copy-70" fill="#FF6347" x="195.818642" y="608" width="92" height="92" rx="4"></rect>
        <rect id="Rectangle-Copy-7" fill="#FF6347" x="702.818642" y="506" width="92" height="92" rx="4"></rect>
        <rect id="Rectangle-Copy-68" fill="#FF6347" x="94.8186416" y="506" width="91" height="92" rx="4"></rect>
        <rect id="Rectangle-Copy-77" fill="#FF6347" x="-7.18135838" y="506" width="92" height="92" rx="4"></rect>
        <rect id="Rectangle-Copy-71" fill="#FF6347" x="94.8186416" y="608" width="91" height="92" rx="4"></rect>
        <rect id="Rectangle-Copy-78" fill="#FF6347" x="-7.18135838" y="608" width="92" height="92" rx="4"></rect>
        <g id="Group-7-Copy" transform="translate(646.818642, 551.500000) scale(-1, 1) translate(-646.818642, -551.500000) translate(605.818642, 509.000000)" fill="#FFFAF0">
            <path d="M34.6554963,4.21985816 C25.5126293,8.61201073 19.8835224,13.4254135 17.7681754,18.6600664 C14.5951551,26.5120458 22.1643696,18.6600664 26.8227143,18.6600664 C31.481059,18.6600664 26.7268059,27.0928135 17.7681754,31.241818 C8.80954496,35.3908225 17.4510904,42.1370202 22.1369024,38.7639213 C26.8227143,35.3908225 26.5056293,41.4377759 22.1369024,46.822654 C17.7681754,52.2075322 30.5374859,53.8708509 33.7647059,58.4751773 C38.1594832,51.7359488 42.0095209,55.2739857 42.0095209,46.822654 C42.0095209,38.3713224 39.0502736,42.3553888 39.0502736,35.1747769 C39.0502736,27.994165 44.2093634,43.67257 46.8830556,43.67257 C49.5567478,43.67257 58.2513203,39.1077358 50.5532007,35.1747769 C42.855081,31.241818 34.6554963,25.3830334 39.0502736,21.6359201 C43.4450509,17.8888069 46.3919491,31.0908184 50.5532007,26.5120458 C53.3273684,23.4595307 48.0281336,16.0288015 34.6554963,4.21985816 Z" id="Combined-Shape" transform="translate(33.764706, 31.347518) rotate(120.000000) translate(-33.764706, -31.347518) "></path>
            <path d="M57.9272594,42.1985816 C51.2779015,45.4194934 47.1840056,48.9493221 45.6455714,52.7880676 C43.3379203,58.5461858 48.8428036,52.7880676 52.2306906,52.7880676 C55.6185777,52.7880676 52.1609391,58.9720822 45.6455714,62.0146855 C39.1302038,65.0572887 45.4149642,70.0045004 48.8228274,67.5308946 C52.2306906,65.0572887 52.0000834,69.4917212 48.8228274,73.4406319 C45.6455714,77.3895425 54.9323427,78.6093096 57.2794118,81.9858156 C60.4756134,77.0437147 63.2756409,79.6382751 63.2756409,73.4406319 C63.2756409,67.2429887 61.123461,70.1646374 61.123461,64.8988553 C61.123461,59.6330732 64.8755263,71.1305702 66.8200298,71.1305702 C68.7645332,71.1305702 75.0878586,67.7830252 69.4892261,64.8988553 C63.8905937,62.0146855 57.9272594,57.7182434 61.123461,54.9703603 C64.3196627,52.2224773 66.4628614,61.9039524 69.4892261,58.5461858 C71.5068027,56.3076748 67.6528137,50.8584734 57.9272594,42.1985816 Z" id="Combined-Shape-Copy" transform="translate(57.279412, 62.092199) scale(-1, 1) rotate(120.000000) translate(-57.279412, -62.092199) "></path>
        </g>
        <g id="Group-4-Copy-4" transform="translate(420.818642, 533.000000)">
            <g id="Group-3" fill="#FFFAF0">
                <path d="M22.5,0 L28.8014864,12.94645 C30.2517182,15.925962 29.0119917,19.5169789 26.0324798,20.9672107 C25.2143896,21.3654035 24.3164538,21.572327 23.4066027,21.572327 L21.5933973,21.572327 C18.2796888,21.572327 15.5933973,18.8860355 15.5933973,15.572327 C15.5933973,14.662476 15.8003208,13.7645401 16.1985136,12.94645 L22.5,0 L22.5,0 Z" id="Triangle" transform="translate(22.500000, 10.786164) scale(-1, -1) translate(-22.500000, -10.786164) "></path>
                <path d="M32.6177252,9.44590695 L38.9515565,21.714846 C40.471645,24.6593315 39.3169432,28.2785839 36.3724577,29.7986724 C35.5133167,30.2422034 34.5597132,30.4715382 33.5928504,30.467148 L31.6776144,30.4584516 C28.3639401,30.4434054 25.6898736,27.7449443 25.7049198,24.4312699 C25.7091758,23.4939493 25.9329772,22.5706628 26.3583824,21.7354272 L32.6177252,9.44590695 L32.6177252,9.44590695 Z" id="Triangle-Copy" transform="translate(32.715599, 19.979004) scale(-1, -1) rotate(80.000000) translate(-32.715599, -19.979004) "></path>
                <path d="M12.1865274,9.44590695 L18.5203587,21.714846 C20.0404472,24.6593315 18.8857454,28.2785839 15.9412599,29.7986724 C15.0821189,30.2422034 14.1285154,30.4715382 13.1616526,30.467148 L11.2464166,30.4584516 C7.93274229,30.4434054 5.25867583,27.7449443 5.27372201,24.4312699 C5.27797804,23.4939493 5.50177936,22.5706628 5.92718457,21.7354272 L12.1865274,9.44590695 L12.1865274,9.44590695 Z" id="Triangle-Copy-2" transform="translate(12.284401, 19.979004) scale(1, -1) rotate(80.000000) translate(-12.284401, -19.979004) "></path>
            </g>
            <path d="M22.4511386,20.4166667 C18.7865697,32.9852246 20.1664932,42.5130024 26.5909091,49" id="Path-19" stroke="#FFFAF0" stroke-width="2"></path>
        </g>
        <g id="Group-4-Copy-2" transform="translate(725.818642, 533.000000)">
            <g id="Group-3" fill="#FFFAF0">
                <path d="M23,0 L29.4181967,12.899575 C30.8943169,15.8663465 29.6859052,19.4680219 26.7191337,20.9441421 C25.8887448,21.3573029 24.9738771,21.572327 24.0463817,21.572327 L21.9536183,21.572327 C18.6399098,21.572327 15.9536183,18.8860355 15.9536183,15.572327 C15.9536183,14.6448316 16.1686424,13.729964 16.5818033,12.899575 L23,0 L23,0 Z" id="Triangle" transform="translate(23.000000, 10.786164) scale(-1, -1) translate(-23.000000, -10.786164) "></path>
                <path d="M33.4114775,9.28232128 L39.8364822,22.0571577 C41.3253817,25.0175365 40.1325121,28.6243891 37.1721334,30.1132886 C36.3342072,30.5347171 35.4091508,30.7538324 34.471216,30.7530466 L32.3586796,30.7512769 C29.0449722,30.7485009 26.360932,28.05996 26.363708,24.7462527 C26.3644892,23.8137551 26.5826086,22.8942745 27.0007553,22.0607844 L33.4114775,9.28232128 L33.4114775,9.28232128 Z" id="Triangle-Copy" transform="translate(33.429546, 20.021765) scale(-1, -1) rotate(80.000000) translate(-33.429546, -20.021765) "></path>
                <path d="M12.5523845,9.28232128 L18.9773893,22.0571577 C20.4662888,25.0175365 19.2734192,28.6243891 16.3130404,30.1132886 C15.4751142,30.5347171 14.5500579,30.7538324 13.6121231,30.7530466 L11.4995866,30.7512769 C8.1858793,30.7485009 5.50183911,28.05996 5.50461508,24.7462527 C5.50539626,23.8137551 5.72351563,22.8942745 6.1416624,22.0607844 L12.5523845,9.28232128 L12.5523845,9.28232128 Z" id="Triangle-Copy-2" transform="translate(12.570454, 20.021765) scale(1, -1) rotate(80.000000) translate(-12.570454, -20.021765) "></path>
            </g>
            <path d="M23.4622738,20.4166667 C19.7995146,32.9852246 21.1787567,42.5130024 27.6,49" id="Path-19" stroke="#FFFAF0" stroke-width="2"></path>
        </g>
        <text id="Then-they-would-cut" font-family="Courier" font-size="12" font-weight="normal" line-spacing="14" fill="#FFFAF0">
            <tspan x="109" y="219">Then they would cut down all the </tspan>
            <tspan x="109" y="233">tall weeds, the creepers and the </tspan>
            <tspan x="109" y="247">small trees. Make heaps of what they </tspan>
            <tspan x="109" y="261">have cut down and arrange the heaps </tspan>
            <tspan x="109" y="275">in rows.</tspan>
        </text>
        <g id="Group-2-Copy-2" transform="translate(842.000000, 238.000000)" fill="#FFFAF0">
            <polygon id="Rectangle" transform="translate(7.500000, 7.800000) scale(-1, 1) rotate(45.000000) translate(-7.500000, -7.800000) " points="-1.40470485 6.64953244 16.434512 6.43790181 16.4047049 8.95046756 -1.43451198 9.16209819"></polygon>
            <polygon id="Rectangle" transform="translate(7.500000, 7.800000) rotate(45.000000) translate(-7.500000, -7.800000) " points="-1.40470485 6.64953244 16.434512 6.43790181 16.4047049 8.95046756 -1.43451198 9.16209819"></polygon>
        </g>
        <g id="Group-2-Copy-8" transform="translate(842.000000, 544.000000)" fill="#FFFAF0">
            <polygon id="Rectangle" transform="translate(7.500000, 7.800000) scale(-1, 1) rotate(45.000000) translate(-7.500000, -7.800000) " points="-1.40470485 6.64953244 16.434512 6.43790181 16.4047049 8.95046756 -1.43451198 9.16209819"></polygon>
            <polygon id="Rectangle" transform="translate(7.500000, 7.800000) rotate(45.000000) translate(-7.500000, -7.800000) " points="-1.40470485 6.64953244 16.434512 6.43790181 16.4047049 8.95046756 -1.43451198 9.16209819"></polygon>
        </g>
        <g id="Group-2-Copy-3" transform="translate(741.000000, 238.000000)" fill="#FFFAF0">
            <polygon id="Rectangle" transform="translate(7.500000, 7.800000) scale(-1, 1) rotate(45.000000) translate(-7.500000, -7.800000) " points="-1.40470485 6.64953244 16.434512 6.43790181 16.4047049 8.95046756 -1.43451198 9.16209819"></polygon>
            <polygon id="Rectangle" transform="translate(7.500000, 7.800000) rotate(45.000000) translate(-7.500000, -7.800000) " points="-1.40470485 6.64953244 16.434512 6.43790181 16.4047049 8.95046756 -1.43451198 9.16209819"></polygon>
        </g>
        <g id="Group-2-Copy-5" transform="translate(741.000000, 341.000000)" fill="#FFFAF0">
            <polygon id="Rectangle" transform="translate(7.500000, 7.800000) scale(-1, 1) rotate(45.000000) translate(-7.500000, -7.800000) " points="-1.40470485 6.64953244 16.434512 6.43790181 16.4047049 8.95046756 -1.43451198 9.16209819"></polygon>
            <polygon id="Rectangle" transform="translate(7.500000, 7.800000) rotate(45.000000) translate(-7.500000, -7.800000) " points="-1.40470485 6.64953244 16.434512 6.43790181 16.4047049 8.95046756 -1.43451198 9.16209819"></polygon>
        </g>
        <g id="Group-2-Copy-4" transform="translate(537.000000, 238.000000)" fill="#FFFAF0">
            <polygon id="Rectangle" transform="translate(7.500000, 7.800000) scale(-1, 1) rotate(45.000000) translate(-7.500000, -7.800000) " points="-1.40470485 6.64953244 16.434512 6.43790181 16.4047049 8.95046756 -1.43451198 9.16209819"></polygon>
            <polygon id="Rectangle" transform="translate(7.500000, 7.800000) rotate(45.000000) translate(-7.500000, -7.800000) " points="-1.40470485 6.64953244 16.434512 6.43790181 16.4047049 8.95046756 -1.43451198 9.16209819"></polygon>
        </g>
        <g id="Group-2-Copy-6" transform="translate(537.000000, 341.000000)" fill="#FFFAF0">
            <polygon id="Rectangle" transform="translate(7.500000, 7.800000) scale(-1, 1) rotate(45.000000) translate(-7.500000, -7.800000) " points="-1.40470485 6.64953244 16.434512 6.43790181 16.4047049 8.95046756 -1.43451198 9.16209819"></polygon>
            <polygon id="Rectangle" transform="translate(7.500000, 7.800000) rotate(45.000000) translate(-7.500000, -7.800000) " points="-1.40470485 6.64953244 16.434512 6.43790181 16.4047049 8.95046756 -1.43451198 9.16209819"></polygon>
        </g>
        <g id="Group-2-Copy-9" transform="translate(436.000000, 443.000000)" fill="#FFFAF0">
            <polygon id="Rectangle" transform="translate(7.500000, 7.800000) scale(-1, 1) rotate(45.000000) translate(-7.500000, -7.800000) " points="-1.40470485 6.64953244 16.434512 6.43790181 16.4047049 8.95046756 -1.43451198 9.16209819"></polygon>
            <polygon id="Rectangle" transform="translate(7.500000, 7.800000) rotate(45.000000) translate(-7.500000, -7.800000) " points="-1.40470485 6.64953244 16.434512 6.43790181 16.4047049 8.95046756 -1.43451198 9.16209819"></polygon>
        </g>
        <g id="Group-2-Copy-7" transform="translate(537.000000, 544.000000)" fill="#FFFAF0">
            <polygon id="Rectangle" transform="translate(7.500000, 7.800000) scale(-1, 1) rotate(45.000000) translate(-7.500000, -7.800000) " points="-1.40470485 6.64953244 16.434512 6.43790181 16.4047049 8.95046756 -1.43451198 9.16209819"></polygon>
            <polygon id="Rectangle" transform="translate(7.500000, 7.800000) rotate(45.000000) translate(-7.500000, -7.800000) " points="-1.40470485 6.64953244 16.434512 6.43790181 16.4047049 8.95046756 -1.43451198 9.16209819"></polygon>
        </g>
        <text id="Monoculture-Cacao" font-family="Gopher-Bold, Gopher" font-size="22" font-weight="bold" fill="#FFFAF0">
            <tspan x="113" y="57">Monoculture Cacao</tspan>
        </text>
    </g>
</svg>