<?xml version="1.0" encoding="UTF-8"?>
<svg width="1440px" height="700px" viewBox="0 0 1440 700" version="1.1" xmlns="http://www.w3.org/2000/svg" xmlns:xlink="http://www.w3.org/1999/xlink">
    <!-- Generator: Sketch 59.1 (86144) - https://sketch.com -->
    <title>customers</title>
    <desc>Created with Sketch.</desc>
    <g id="customers" stroke="none" stroke-width="1" fill="none" fill-rule="evenodd">
        <rect fill="#000000" x="0" y="0" width="1440" height="700"></rect>
        <text id="As-customers-what-ca" font-family="Courier-Bold, Courier" font-size="14" font-weight="bold" fill="#FFFAF0">
            <tspan x="30" y="51">As customers what can we do? </tspan>
        </text>
        <text id="If-we-search-“chocol" font-family="Courier" font-size="12" font-weight="normal" fill="#FFFAF0">
            <tspan x="977" y="293">If we search “chocolate bath challenge” on </tspan>
            <tspan x="977" y="307">youtube, more than 100 videos would show up and </tspan>
            <tspan x="977" y="321">the lastest was uploaded two weeks ago.</tspan>
        </text>
        <path d="M951.428,262.729 L949.81,262.729 C949.638,262.729 949.497,262.588 949.497,262.416 L949.497,260.798 C949.497,259.523 948.46,258.485 947.185,258.485 L945.566,258.485 C945.394,258.485 945.254,258.345 945.254,258.173 L945.254,256.555 C945.254,255.281 944.217,254.243 942.942,254.243 L941.323,254.243 C941.151,254.243 941.01,254.102 941.01,253.93 L941.01,252.313 C941.012,251.037 939.975,250 938.7,250 L936.635,250 C935.71,250 934.876,250.55 934.51,251.401 L932.786,255.423 C929.898,258.914 926.886,262.312 923.781,265.625 C922.643,266.84 921.488,268.044 920.317,269.238 C920.258,269.298 920.2,269.359 920.14,269.419 C918.96,270.62 917.764,271.809 916.554,272.985 C916.513,273.025 916.472,273.066 916.43,273.106 C915.205,274.295 913.965,275.47 912.714,276.63 C912.684,276.658 912.654,276.686 912.624,276.714 C911.354,277.889 910.072,279.049 908.78,280.189 C908.759,280.208 908.738,280.227 908.717,280.245 L907.636,281.2 L907.64,281.202 C906.248,282.414 904.843,283.611 903.423,284.786 L899.369,286.523 C898.537,286.881 898,287.696 898,288.601 L898,290.753 C898,291.999 899.014,293.013 900.26,293.013 L901.984,293.013 C902.127,293.013 902.243,293.129 902.243,293.273 L902.243,294.996 C902.243,296.242 903.257,297.256 904.503,297.256 L906.227,297.256 C906.371,297.256 906.487,297.372 906.487,297.516 L906.487,299.24 C906.487,300.486 907.501,301.5 908.747,301.5 L910.471,301.5 C910.614,301.5 910.73,301.616 910.73,301.759 L910.73,303.483 C910.73,304.729 911.744,305.743 912.99,305.743 L915.142,305.743 C916.048,305.743 916.864,305.205 917.219,304.373 L918.956,300.32 C921.836,296.839 924.839,293.451 927.934,290.146 C929.099,288.902 930.282,287.669 931.48,286.448 C931.51,286.417 931.54,286.386 931.57,286.356 C932.78,285.124 934.006,283.905 935.246,282.701 C935.258,282.69 935.269,282.678 935.281,282.667 C937.795,280.226 940.367,277.844 942.978,275.541 L944.108,274.544 L944.102,274.541 C945.494,273.329 946.898,272.132 948.319,270.957 L952.342,269.233 C953.193,268.868 953.742,268.034 953.742,267.108 L953.742,265.04 C953.74,263.766 952.703,262.729 951.428,262.729 L951.428,262.729 L951.428,262.729 L951.428,262.729 Z M937.161,278.115 C937.084,278.187 937.006,278.259 936.929,278.331 C935.846,279.343 934.774,280.367 933.711,281.401 C933.625,281.485 933.539,281.569 933.453,281.653 C932.383,282.697 931.323,283.751 930.274,284.817 C930.229,284.863 930.184,284.909 930.139,284.955 C929.062,286.052 927.994,287.157 926.94,288.275 L911.213,280.702 C911.229,280.688 911.244,280.673 911.26,280.659 C912.361,279.673 913.451,278.676 914.532,277.668 C914.637,277.57 914.743,277.472 914.848,277.374 C915.909,276.382 916.959,275.379 918.001,274.366 C918.11,274.26 918.218,274.154 918.327,274.048 C919.374,273.025 920.413,271.993 921.44,270.95 C921.513,270.875 921.586,270.8 921.659,270.726 C922.716,269.649 923.765,268.563 924.8,267.465 L940.527,275.038 C939.394,276.052 938.273,277.078 937.161,278.115 L937.161,278.115 L937.161,278.115 L937.161,278.115 Z M917.321,299.154 L915.378,303.584 C915.338,303.679 915.244,303.74 915.14,303.74 L912.988,303.74 C912.844,303.74 912.728,303.624 912.728,303.48 L912.728,301.756 C912.728,300.511 911.714,299.497 910.469,299.497 L908.745,299.497 C908.601,299.497 908.485,299.381 908.485,299.237 L908.485,297.513 C908.485,296.267 907.471,295.253 906.225,295.253 L904.502,295.253 C904.358,295.253 904.242,295.137 904.242,294.993 L904.242,293.27 C904.242,292.024 903.228,291.01 901.983,291.01 L900.26,291.01 C900.116,291.01 900,290.894 900,290.75 L900,288.598 C900,288.494 900.063,288.4 900.157,288.359 L904.343,286.565 L904.586,286.417 C906.277,285.02 907.941,283.588 909.591,282.14 L925.512,289.806 C922.697,292.853 919.957,295.964 917.321,299.154 L917.321,299.154 L917.321,299.154 L917.321,299.154 Z M951.74,267.105 C951.74,267.23 951.666,267.342 951.552,267.392 L947.397,269.172 L947.154,269.32 C945.463,270.717 943.799,272.149 942.149,273.597 L926.229,265.931 C929.045,262.887 931.785,259.775 934.42,256.585 L936.349,252.189 C936.397,252.074 936.51,252 936.635,252 L938.7,252 C938.872,252 939.012,252.141 939.012,252.313 L939.012,253.931 C939.012,255.206 940.049,256.244 941.325,256.244 L942.944,256.244 C943.116,256.244 943.256,256.384 943.256,256.556 L943.256,258.175 C943.256,259.449 944.293,260.487 945.568,260.487 L947.187,260.487 C947.359,260.487 947.499,260.628 947.499,260.8 L947.499,262.418 C947.499,263.693 948.536,264.731 949.812,264.731 L951.43,264.731 C951.602,264.731 951.743,264.871 951.743,265.043 L951.743,267.105 L951.74,267.105 L951.74,267.105 L951.74,267.105 Z M921.98,273.274 C919.446,275.808 919.446,279.931 921.98,282.466 C923.248,283.734 924.912,284.366 926.577,284.366 C928.241,284.366 929.906,283.732 931.173,282.466 C932.401,281.238 933.077,279.606 933.077,277.869 C933.077,276.132 932.4,274.501 931.173,273.273 C929.946,272.045 928.314,271.369 926.577,271.369 C924.84,271.369 923.208,272.047 921.98,273.274 L921.98,273.274 L921.98,273.274 Z M931.077,277.87 C931.077,279.072 930.609,280.202 929.759,281.053 C928.005,282.807 925.151,282.807 923.395,281.053 C921.641,279.298 921.641,276.443 923.395,274.689 C924.246,273.838 925.375,273.371 926.578,273.371 C927.781,273.371 928.91,273.839 929.76,274.689 C930.609,275.538 931.077,276.668 931.077,277.87 L931.077,277.87 L931.077,277.87 Z M937.891,257.364 C937.5,256.973 936.868,256.973 936.477,257.364 L935.063,258.778 C934.672,259.169 934.672,259.801 935.063,260.192 C935.258,260.387 935.514,260.485 935.77,260.485 C936.026,260.485 936.282,260.387 936.477,260.192 L937.891,258.778 C938.281,258.388 938.281,257.755 937.891,257.364 L937.891,257.364 L937.891,257.364 Z M940.719,260.192 C940.328,259.801 939.696,259.801 939.305,260.192 L937.891,261.607 C937.5,261.998 937.5,262.631 937.891,263.021 C938.086,263.216 938.342,263.314 938.598,263.314 C938.854,263.314 939.11,263.216 939.305,263.021 L940.719,261.606 C941.109,261.216 941.109,260.582 940.719,260.192 L940.719,260.192 L940.719,260.192 Z M943.548,263.021 C943.157,262.63 942.525,262.63 942.134,263.021 L940.72,264.435 C940.329,264.826 940.329,265.458 940.72,265.849 C940.915,266.044 941.171,266.142 941.427,266.142 C941.683,266.142 941.939,266.044 942.134,265.849 L943.548,264.435 C943.938,264.045 943.938,263.412 943.548,263.021 L943.548,263.021 L943.548,263.021 Z M944.962,265.85 L943.548,267.264 C943.157,267.655 943.157,268.287 943.548,268.678 C943.743,268.873 943.999,268.971 944.255,268.971 C944.511,268.971 944.767,268.873 944.962,268.678 L946.376,267.264 C946.767,266.873 946.767,266.241 946.376,265.85 C945.985,265.459 945.353,265.459 944.962,265.85 L944.962,265.85 L944.962,265.85 Z M908.192,287.063 C907.801,286.672 907.169,286.672 906.778,287.063 L905.364,288.477 C904.973,288.868 904.973,289.5 905.364,289.891 C905.559,290.086 905.815,290.184 906.071,290.184 C906.327,290.184 906.583,290.086 906.778,289.891 L908.192,288.477 C908.583,288.086 908.583,287.453 908.192,287.063 L908.192,287.063 L908.192,287.063 Z M911.021,289.892 C910.63,289.501 909.998,289.501 909.607,289.892 L908.193,291.306 C907.802,291.697 907.802,292.329 908.193,292.72 C908.388,292.915 908.644,293.013 908.9,293.013 C909.156,293.013 909.412,292.915 909.607,292.72 L911.021,291.306 C911.411,290.915 911.411,290.282 911.021,289.892 L911.021,289.892 L911.021,289.892 Z M913.849,292.72 C913.458,292.329 912.826,292.329 912.435,292.72 L911.021,294.134 C910.63,294.525 910.63,295.157 911.021,295.548 C911.216,295.743 911.472,295.841 911.728,295.841 C911.984,295.841 912.24,295.743 912.435,295.548 L913.849,294.134 C914.239,293.743 914.239,293.11 913.849,292.72 L913.849,292.72 L913.849,292.72 Z M915.264,295.548 L913.85,296.962 C913.459,297.353 913.459,297.985 913.85,298.376 C914.045,298.571 914.301,298.669 914.557,298.669 C914.813,298.669 915.069,298.571 915.264,298.376 L916.678,296.962 C917.069,296.571 917.069,295.939 916.678,295.548 C916.287,295.157 915.654,295.157 915.264,295.548 L915.264,295.548 L915.264,295.548 Z" id="candy-1" fill="#FFFAF0"></path>
        <text id="Say-NO-to-Chocolate" font-family="Gopher-Bold, Gopher" font-size="20" font-weight="bold" fill="#FFFAF0">
            <tspan x="977" y="270">Say NO to Chocolate Bath Challenge</tspan>
        </text>
        <text id="Be-aware-that-differ" font-family="Courier" font-size="12" font-weight="normal" fill="#FFFAF0">
            <tspan x="977" y="399">Be aware that different types of chocolate may </tspan>
            <tspan x="977" y="413">require special storing conditions. Since they </tspan>
            <tspan x="977" y="427">came a long way from cocoa farms to our homes, </tspan>
            <tspan x="977" y="441">don’t just let them wasted inside our </tspan>
            <tspan x="977" y="455">refrigerators.</tspan>
        </text>
        <text id="Store-Chocolate-Bett" font-family="Gopher-Bold, Gopher" font-size="20" font-weight="bold" fill="#FFFAF0">
            <tspan x="977" y="376">Store Chocolate Better</tspan>
        </text>
        <text id="Are-they-mixed-in-wi" font-family="Courier" font-size="12" font-weight="normal" fill="#FFFAF0">
            <tspan x="977" y="562">Are they mixed in with ‘dirty’ cocoa? Are their </tspan>
            <tspan x="977" y="576">cocoa sources traceable on the website? There </tspan>
            <tspan x="977" y="590">are companies which have already taken actions </tspan>
            <tspan x="977" y="604">to slow down the wheel of deforestation, it’s </tspan>
            <tspan x="977" y="618">never too late for us to recognize and support </tspan>
            <tspan x="977" y="632">their efforts. </tspan>
        </text>
        <text id="Pay-attention-to-the" font-family="Gopher-Bold, Gopher" font-size="20" font-weight="bold" fill="#FFFAF0">
            <tspan x="977" y="511">Pay attention to the cocoa sources </tspan>
            <tspan x="977" y="537">of your favorite chocolate brand</tspan>
        </text>
        <text id="The-least-effort-we" font-family="Gopher-Bold, Gopher" font-size="50" font-weight="bold" fill="#FFFAF0">
            <tspan x="30" y="124">The least effort we can </tspan>
            <tspan x="30" y="187">contribute is to not waste any </tspan>
            <tspan x="30" y="250">chocolate (this is applicable </tspan>
            <tspan x="30" y="313">to other food too).</tspan>
        </text>
        <path d="M952.561854,368.17513 C952.131854,367.62813 951.424854,367.41113 950.758854,367.61513 L949.900854,367.88313 L950.311854,366.56513 C950.491854,365.98813 950.337854,365.36513 949.911854,364.93813 C949.485854,364.51013 948.861854,364.36013 948.283854,364.53613 L946.964854,364.94713 L947.375854,363.62813 C947.554854,363.05113 947.400854,362.42713 946.972854,362.00013 C946.544854,361.57313 945.919854,361.41813 945.346854,361.60013 L944.027854,362.01113 L944.438854,360.69213 C944.618854,360.11513 944.464854,359.49213 944.037854,359.06513 C943.610854,358.63713 942.986854,358.48513 942.410854,358.66313 L941.091854,359.07413 L941.397854,358.09513 C941.597854,357.45113 941.385854,356.76713 940.856854,356.35013 C940.327854,355.93213 939.610854,355.88413 939.030854,356.22913 C936.523854,357.71213 935.031854,359.04013 934.594854,360.17313 L932.793854,369.00213 C929.428854,367.96413 925.515854,368.44013 921.824854,370.20313 L921.822854,370.20113 L921.639854,370.29613 C920.554854,370.82813 919.491854,371.47213 918.466854,372.22313 C918.388854,372.28013 918.311854,372.33913 918.234854,372.39713 C917.908854,372.64313 917.586854,372.89913 917.269854,373.16713 C917.165854,373.25413 917.060854,373.34013 916.958854,373.42913 C916.573854,373.76513 916.194854,374.11313 915.825854,374.48113 C915.430854,374.87613 915.061854,375.28313 914.703854,375.69713 C914.622854,375.79013 914.544854,375.88513 914.465854,375.97913 C914.120854,376.39013 913.791854,376.80813 913.482854,377.23513 C913.481854,377.23613 913.480854,377.23713 913.480854,377.23813 C912.628854,378.41713 911.918854,379.64813 911.355854,380.90213 L911.340854,380.93213 L911.341854,380.93313 C909.769854,384.44913 909.359854,388.13913 910.311854,391.34213 L902.595854,392.48613 L902.381854,392.54013 C901.178854,393.00313 899.786854,394.50813 898.244854,397.01213 C897.884854,397.59713 897.924854,398.32513 898.344854,398.86613 C898.763854,399.40613 899.457854,399.62513 900.113854,399.42113 L901.027854,399.13613 L900.617854,400.45213 C900.437854,401.02913 900.591854,401.65413 901.019854,402.08113 C901.448854,402.51013 902.072854,402.66313 902.647854,402.48213 L903.963854,402.07213 L903.553854,403.38913 C903.373854,403.96513 903.527854,404.58913 903.954854,405.01713 C904.382854,405.44513 905.006854,405.59513 905.584854,405.41913 L906.900854,405.00813 L906.490854,406.32513 C906.310854,406.90213 906.464854,407.52713 906.892854,407.95413 C907.320854,408.38213 907.945854,408.53713 908.520854,408.35513 L909.836854,407.94513 L909.552854,408.85813 C909.347854,409.51213 909.565854,410.20713 910.106854,410.62713 C910.401854,410.85613 910.751854,410.97313 911.104854,410.97313 C911.398854,410.97313 911.694854,410.89213 911.960854,410.72813 C914.464854,409.18613 915.969854,407.79413 916.431854,406.59113 L917.681854,398.50013 C920.808854,399.33913 924.386854,398.90013 927.793854,397.38513 L927.803854,397.39513 L928.089854,397.25513 C928.715854,396.96413 929.332854,396.63413 929.941854,396.27113 C929.978854,396.24913 930.015854,396.22813 930.052854,396.20613 C930.532854,395.91613 931.005854,395.60913 931.470854,395.27613 C931.513854,395.24513 931.554854,395.21113 931.597854,395.18013 C931.982854,394.89913 932.360854,394.60213 932.732854,394.29213 C932.844854,394.19913 932.955854,394.10613 933.065854,394.01113 C933.470854,393.66013 933.870854,393.29713 934.256854,392.91213 C934.617854,392.55113 934.958854,392.17813 935.289854,391.80013 C935.396854,391.67813 935.497854,391.55413 935.601854,391.43013 C935.830854,391.15713 936.050854,390.88113 936.263854,390.60013 C936.362854,390.47013 936.462854,390.34013 936.558854,390.20713 C936.842854,389.81513 937.114854,389.42013 937.367854,389.01713 C937.373854,389.00713 937.380854,388.99913 937.385854,388.98913 C937.653854,388.56113 937.896854,388.12713 938.128854,387.68913 C938.150854,387.64713 938.177854,387.60713 938.199854,387.56513 L938.537854,386.91513 L938.528854,386.90613 C940.231854,383.32413 940.733854,379.52213 939.818854,376.23013 L948.642854,374.42413 L948.800854,374.37813 C949.216854,374.21813 950.481854,373.73213 952.680854,370.05313 C953.038854,369.45813 952.990854,368.72113 952.561854,368.17513 L952.561854,368.17513 L952.561854,368.17513 L952.561854,368.17513 Z M936.046854,387.33613 C935.865854,387.65013 935.672854,387.95913 935.473854,388.26413 C935.425854,388.33713 935.379854,388.41013 935.331854,388.48213 C935.151854,388.74913 934.961854,389.01013 934.767854,389.27013 C934.697854,389.36313 934.631854,389.45713 934.560854,389.54913 C934.367854,389.79813 934.164854,390.04013 933.958854,390.28113 C933.882854,390.37013 933.811854,390.46213 933.733854,390.55013 C933.448854,390.87313 933.152854,391.19013 932.844854,391.49913 C932.518854,391.82513 932.182854,392.13513 931.840854,392.43513 C931.747854,392.51613 931.652854,392.59213 931.559854,392.67113 C931.291854,392.89713 931.019854,393.11913 930.741854,393.32913 C930.661854,393.39013 930.580854,393.44913 930.500854,393.50813 C930.154854,393.76213 929.804854,394.00713 929.445854,394.23613 C929.443854,394.23713 929.441854,394.23813 929.439854,394.24013 C929.035854,394.49713 928.622854,394.73913 928.201854,394.96413 L924.494854,391.25813 L924.130854,391.22713 C922.370854,391.07613 920.715854,390.30713 919.470854,389.06113 C918.224854,387.81513 917.455854,386.16113 917.305854,384.40213 L917.274854,384.03813 L913.781854,380.54613 C913.858854,380.40213 913.940854,380.26013 914.021854,380.11813 C914.131854,379.92513 914.241854,379.73213 914.358854,379.54313 C914.473854,379.35613 914.594854,379.17113 914.717854,378.98713 C914.842854,378.79913 914.971854,378.61313 915.103854,378.42813 C915.226854,378.25613 915.351854,378.08413 915.481854,377.91413 C915.642854,377.70513 915.810854,377.49913 915.979854,377.29513 C916.092854,377.15913 916.201854,377.02213 916.317854,376.88813 C916.613854,376.55013 916.919854,376.21913 917.240854,375.89713 C917.544854,375.59313 917.856854,375.30213 918.174854,375.02113 C918.350854,374.86613 918.532854,374.72113 918.712854,374.57313 C918.854854,374.45613 918.993854,374.33613 919.138854,374.22413 C919.355854,374.05613 919.576854,373.89813 919.797854,373.74013 C919.911854,373.65913 920.023854,373.57413 920.139854,373.49613 C920.370854,373.33913 920.604854,373.19113 920.839854,373.04513 C920.952854,372.97513 921.065854,372.90313 921.179854,372.83613 C921.274854,372.78013 921.371854,372.73013 921.466854,372.67513 L925.050854,376.26013 L925.414854,376.29013 C927.175854,376.44013 928.831854,377.20913 930.077854,378.45613 C931.324854,379.70213 932.093854,381.35813 932.242854,383.11913 L932.273854,383.48313 L936.077854,387.28613 C936.066854,387.30113 936.056854,387.31813 936.046854,387.33613 L936.046854,387.33613 L936.046854,387.33613 L936.046854,387.33613 Z M917.231854,396.25313 L916.067854,395.80213 L914.528854,405.95913 C914.231854,406.58713 913.231854,407.49413 911.766854,408.47713 L911.960854,407.85313 C912.140854,407.27613 911.986854,406.65113 911.558854,406.22413 C911.248854,405.91413 910.836854,405.74813 910.414854,405.74813 C910.252854,405.74813 910.089854,405.77213 909.930854,405.82213 L908.614854,406.23213 L909.024854,404.91613 C909.204854,404.33913 909.050854,403.71613 908.623854,403.28813 C908.196854,402.85913 907.572854,402.70813 906.993854,402.88513 L905.677854,403.29613 L906.087854,401.97913 C906.267854,401.40213 906.113854,400.77713 905.685854,400.35013 C905.257854,399.92213 904.635854,399.77013 904.057854,399.94913 L902.741854,400.35913 L903.151854,399.04313 C903.331854,398.46613 903.177854,397.84113 902.749854,397.41413 C902.322854,396.98613 901.697854,396.83513 901.121854,397.01313 L900.496854,397.20813 C901.478854,395.74313 902.386854,394.74313 903.015854,394.44513 L913.089854,392.95213 L912.585854,391.76213 C911.441854,389.06413 911.619854,385.72713 912.889854,382.48013 L915.352854,384.94313 C915.614854,387.03213 916.566854,388.98413 918.057854,390.47413 C919.547854,391.96413 921.499854,392.91613 923.589854,393.17913 L926.278854,395.86813 C923.139854,397.10213 919.921854,397.29613 917.231854,396.25313 L917.231854,396.25313 L917.231854,396.25313 L917.231854,396.25313 Z M948.144854,372.48713 L937.147854,374.73713 L937.583854,375.84413 C938.699854,378.67913 938.434854,382.10113 937.020854,385.39913 L934.194854,382.57413 C933.932854,380.48413 932.981854,378.53013 931.489854,377.03913 C929.998854,375.54713 928.044854,374.59513 925.954854,374.33413 L923.353854,371.73213 C926.762854,370.28213 930.309854,370.03713 933.146854,371.25813 L934.277854,371.74413 L936.487854,360.82813 C936.705854,360.37013 937.517854,359.55413 939.178854,358.48413 L938.964854,359.17013 C938.785854,359.74613 938.939854,360.37013 939.365854,360.79713 C939.792854,361.22413 940.417854,361.37813 940.992854,361.19813 L942.311854,360.78713 L941.900854,362.10613 C941.721854,362.68313 941.875854,363.30713 942.302854,363.73413 C942.730854,364.16113 943.355854,364.31313 943.929854,364.13513 L945.248854,363.72413 L944.837854,365.04213 C944.657854,365.61813 944.810854,366.24113 945.237854,366.66913 C945.665854,367.09713 946.288854,367.25013 946.865854,367.07113 L948.184854,366.66013 L947.773854,367.97913 C947.594854,368.55513 947.748854,369.17913 948.174854,369.60613 C948.601854,370.03313 949.227854,370.18413 949.802854,370.00713 L950.488854,369.79313 C949.417854,371.45813 948.599854,372.27013 948.144854,372.48713 L948.144854,372.48713 L948.144854,372.48713 Z M920.883854,379.86713 C918.739854,382.01213 918.739854,385.50113 920.883854,387.64513 C921.955854,388.71713 923.363854,389.25313 924.772854,389.25313 C926.181854,389.25313 927.589854,388.71713 928.661854,387.64513 C930.805854,385.50013 930.805854,382.01113 928.661854,379.86713 C926.517854,377.72313 923.028854,377.72313 920.883854,379.86713 L920.883854,379.86713 L920.883854,379.86713 Z M927.247854,386.23113 C925.882854,387.59413 923.662854,387.59413 922.297854,386.23113 C920.933854,384.86613 920.933854,382.64613 922.297854,381.28113 C922.979854,380.59913 923.876854,380.25813 924.772854,380.25813 C925.668854,380.25813 926.564854,380.60013 927.247854,381.28113 C928.611854,382.64613 928.611854,384.86613 927.247854,386.23113 L927.247854,386.23113 L927.247854,386.23113 Z M941.058854,370.41013 C940.544854,370.47413 940.093854,370.49013 939.657854,370.50513 C939.296854,370.51813 938.941854,370.53213 938.586854,370.57413 C939.676854,368.86813 940.216854,366.71213 939.954854,364.62013 C939.886854,364.07113 939.382854,363.68813 938.838854,363.75213 C938.290854,363.82013 937.901854,364.32013 937.970854,364.86813 C938.292854,367.44113 937.017854,370.23013 935.005854,371.35613 C934.523854,371.62713 934.351854,372.23613 934.621854,372.71713 C934.781854,373.00213 935.061854,373.17113 935.362854,373.21113 C935.414854,373.39813 935.503854,373.57513 935.662854,373.71013 C935.850854,373.86913 936.079854,373.94613 936.307854,373.94613 C936.591854,373.94613 936.873854,373.82613 937.071854,373.59213 C937.940854,372.56513 938.463854,372.54713 939.727854,372.50313 C940.185854,372.48713 940.703854,372.46913 941.307854,372.39413 C941.855854,372.32613 942.244854,371.82613 942.175854,371.27813 C942.106854,370.73013 941.598854,370.34813 941.058854,370.41013 L941.058854,370.41013 L941.058854,370.41013 Z M914.316854,394.48713 C914.265854,394.29713 914.175854,394.11613 914.014854,393.98013 C913.593854,393.62313 912.961854,393.67513 912.605854,394.09813 C911.737854,395.12413 911.214854,395.14313 909.951854,395.18713 C909.493854,395.20313 908.973854,395.22013 908.369854,395.29613 C907.821854,395.36413 907.432854,395.86413 907.501854,396.41213 C907.564854,396.91813 907.995854,397.28813 908.492854,397.28813 C908.534854,397.28813 908.575854,397.28513 908.618854,397.28013 C909.133854,397.21613 909.584854,397.20013 910.020854,397.18413 C910.380854,397.17213 910.735854,397.15713 911.089854,397.11513 C910.000854,398.82113 909.459854,400.97813 909.721854,403.06913 C909.784854,403.57513 910.215854,403.94513 910.712854,403.94513 C910.754854,403.94513 910.795854,403.94213 910.837854,403.93713 C911.385854,403.86913 911.774854,403.36913 911.705854,402.82113 C911.383854,400.24713 912.658854,397.45813 914.670854,396.33213 C915.152854,396.06113 915.324854,395.45213 915.054854,394.97113 C914.895854,394.68813 914.616854,394.52913 914.316854,394.48713 L914.316854,394.48713 L914.316854,394.48713 Z" id="candy" fill="#FFFAF0"></path>
        <path d="M944.181,544.808 L944.181,495 L922.181,495 L922.181,496 L922.181,502 L916.181,502 L915.181,502 L915.181,503 L915.181,509 L909.181,509 L908.181,509 L908.181,525 L908.181,526 L908.181,544.808 L906,550.261 L906.495,550.728 C907.622,551.791 909.687,552.344 911.715,552.344 C913.321,552.344 914.904,551.996 915.979,551.281 C918.012,552.685 920.748,552.684 922.781,551.282 C924.813,552.684 927.548,552.685 929.581,551.282 C931.615,552.685 934.351,552.685 936.383,551.281 C937.446,551.988 939.008,552.335 940.597,552.342 C942.641,552.351 944.73,551.799 945.867,550.727 L946.362,550.26 L944.181,544.808 L944.181,544.808 L944.181,544.808 L944.181,544.808 Z M941.549,506.184 L933.521,535.618 L910.38,525.435 L915.88,522.038 L941.549,506.184 L941.549,506.184 L941.549,506.184 L941.549,506.184 Z M936.181,504 L936.181,507.148 L933.181,509.001 L933.181,509 L931.181,509 L931.181,504 L936.181,504 L936.181,504 L936.181,504 L936.181,504 Z M931.181,502 L931.181,497 L936.181,497 L936.181,502 L931.181,502 L931.181,502 L931.181,502 L931.181,502 Z M938.181,504 L941.278,504 L938.181,505.913 L938.181,504 L938.181,504 L938.181,504 L938.181,504 Z M929.181,509 L924.181,509 L924.181,504 L929.181,504 L929.181,509 L929.181,509 L929.181,509 L929.181,509 Z M929.181,511 L929.181,511.472 L924.181,514.56 L924.181,511 L929.181,511 L929.181,511 L929.181,511 L929.181,511 Z M922.181,515.795 L921.85,516 L917.181,516 L917.181,511 L922.181,511 L922.181,515.795 L922.181,515.795 L922.181,515.795 L922.181,515.795 Z M918.612,518 L917.181,518.884 L917.181,518 L918.612,518 L918.612,518 L918.612,518 L918.612,518 Z M915.181,520.119 L910.181,523.207 L910.181,518 L915.181,518 L915.181,520.119 L915.181,520.119 L915.181,520.119 L915.181,520.119 Z M942.181,502 L938.181,502 L938.181,497 L942.181,497 L942.181,502 L942.181,502 L942.181,502 L942.181,502 Z M924.181,497 L929.181,497 L929.181,502 L924.181,502 L924.181,497 L924.181,497 L924.181,497 L924.181,497 Z M917.181,504 L922.181,504 L922.181,509 L917.181,509 L917.181,504 L917.181,504 L917.181,504 L917.181,504 Z M915.181,511 L915.181,516 L910.181,516 L910.181,511 L915.181,511 L915.181,511 L915.181,511 L915.181,511 Z M913.181,544 L915.181,544 L915.181,546 L913.181,546 L913.181,544 L913.181,544 L913.181,544 L913.181,544 Z M916.181,544 L918.181,544 L918.181,546 L916.181,546 L916.181,544 L916.181,544 L916.181,544 L916.181,544 Z M919.181,544 L921.181,544 L921.181,546 L919.181,546 L919.181,544 L919.181,544 L919.181,544 L919.181,544 Z M922.181,544 L924.181,544 L924.181,546 L922.181,546 L922.181,544 L922.181,544 L922.181,544 L922.181,544 Z M925.181,544 L927.181,544 L927.181,546 L925.181,546 L925.181,544 L925.181,544 L925.181,544 L925.181,544 Z M928.181,544 L930.181,544 L930.181,546 L928.181,546 L928.181,544 L928.181,544 L928.181,544 L928.181,544 Z M931.181,544 L933.181,544 L933.181,546 L931.181,546 L931.181,544 L931.181,544 L931.181,544 L931.181,544 Z M934.181,544 L936.181,544 L936.181,546 L934.181,546 L934.181,544 L934.181,544 L934.181,544 L934.181,544 Z M937.181,544 L939.181,544 L939.181,546 L937.181,546 L937.181,544 L937.181,544 L937.181,544 L937.181,544 Z M928.563,549.552 C927.182,550.581 925.178,550.581 923.799,549.552 C923.199,549.103 922.362,549.103 921.762,549.552 C921.072,550.067 920.226,550.324 919.38,550.324 C918.534,550.324 917.688,550.066 916.998,549.551 C916.397,549.103 915.56,549.103 914.962,549.552 C914.801,549.672 914.606,549.775 914.394,549.867 C914.368,549.878 914.345,549.891 914.319,549.901 C914.113,549.985 913.887,550.056 913.648,550.115 C913.607,550.125 913.566,550.136 913.525,550.145 C913.285,550.199 913.033,550.242 912.773,550.273 C912.729,550.278 912.685,550.282 912.64,550.286 C912.372,550.313 912.098,550.331 911.82,550.334 C911.791,550.334 911.761,550.333 911.732,550.333 C911.454,550.333 911.175,550.323 910.899,550.299 C910.879,550.297 910.858,550.297 910.837,550.295 C910.559,550.27 910.288,550.23 910.024,550.18 C909.982,550.172 909.939,550.165 909.898,550.157 C909.645,550.105 909.404,550.042 909.176,549.969 C909.135,549.956 909.095,549.942 909.054,549.928 C908.83,549.85 908.62,549.762 908.432,549.663 C908.42,549.656 908.409,549.649 908.397,549.643 L910.177,545.193 L910.177,527.533 L933.774,537.916 C933.906,537.972 934.044,538 934.181,538 C934.328,538 934.475,537.968 934.612,537.902 C934.875,537.777 935.07,537.544 935.146,537.262 L942.181,511.466 L942.181,545.191 L943.961,549.642 C943.95,549.648 943.94,549.655 943.928,549.661 C943.738,549.762 943.526,549.851 943.299,549.929 C943.263,549.942 943.226,549.954 943.189,549.966 C942.957,550.041 942.711,550.105 942.453,550.158 C942.418,550.165 942.381,550.171 942.345,550.178 C942.076,550.229 941.798,550.27 941.514,550.295 C941.501,550.296 941.487,550.296 941.474,550.297 C941.19,550.322 940.902,550.333 940.615,550.332 C940.59,550.332 940.566,550.333 940.541,550.333 C940.262,550.33 939.987,550.313 939.717,550.285 C939.673,550.28 939.628,550.276 939.584,550.271 C939.325,550.24 939.074,550.198 938.835,550.144 C938.792,550.134 938.75,550.123 938.707,550.113 C938.47,550.054 938.245,549.984 938.041,549.901 C938.013,549.889 937.988,549.876 937.961,549.864 C937.751,549.772 937.557,549.67 937.396,549.55 C937.096,549.326 936.736,549.214 936.377,549.214 C936.197,549.214 936.018,549.242 935.846,549.298 C935.674,549.354 935.509,549.438 935.36,549.551 C934.67,550.066 933.824,550.323 932.978,550.323 C932.132,550.323 931.286,550.065 930.596,549.55 C929.998,549.103 929.161,549.103 928.563,549.552 L928.563,549.552 L928.563,549.552 L928.563,549.552 Z" id="chocolate" fill="#FFFFFF"></path>
    </g>
</svg>