<?xml version="1.0" encoding="UTF-8"?>
<svg width="1440px" height="500px" viewBox="0 0 1440 500" version="1.1" xmlns="http://www.w3.org/2000/svg" xmlns:xlink="http://www.w3.org/1999/xlink">
    <!-- Generator: Sketch 59.1 (86144) - https://sketch.com -->
    <title>1_1 definitions</title>
    <desc>Created with Sketch.</desc>
    <g id="1_1-definitions" stroke="none" stroke-width="1" fill="none" fill-rule="evenodd">
        <rect fill="#000000" x="0" y="0" width="1440" height="500"></rect>
        <g id="Group-15" transform="translate(383.000000, 159.000000)">
            <g id="Group-14" transform="translate(0.000000, -0.000000)">
                <g id="Group-11" transform="translate(2.324324, 0.000000)">
                    <g id="Group-7" opacity="0" transform="translate(0.000000, 0.000000)" fill="#FFFAF0">
                        <rect id="Rectangle-Copy" transform="translate(96.283784, 95.608108) scale(1, -1) rotate(-180.000000) translate(-96.283784, -95.608108) " x="91.8918919" y="91.2162162" width="8.78378378" height="8.78378378"></rect>
                        <rect id="Rectangle-Copy" transform="translate(96.283784, 75.337838) scale(1, -1) rotate(-180.000000) translate(-96.283784, -75.337838) " x="91.8918919" y="70.9459459" width="8.78378378" height="8.78378378"></rect>
                        <rect id="Rectangle-Copy" transform="translate(96.283784, 14.527027) scale(1, -1) rotate(-180.000000) translate(-96.283784, -14.527027) " x="91.8918919" y="10.1351351" width="8.78378378" height="8.78378378"></rect>
                        <rect id="Rectangle-Copy" transform="translate(96.283784, 85.472973) scale(1, -1) rotate(-180.000000) translate(-96.283784, -85.472973) " x="91.8918919" y="81.0810811" width="8.78378378" height="8.78378378"></rect>
                        <rect id="Rectangle-Copy" transform="translate(96.283784, 65.202703) scale(1, -1) rotate(-180.000000) translate(-96.283784, -65.202703) " x="91.8918919" y="60.8108108" width="8.78378378" height="8.78378378"></rect>
                        <rect id="Rectangle-Copy" transform="translate(96.283784, 24.662162) scale(1, -1) rotate(-180.000000) translate(-96.283784, -24.662162) " x="91.8918919" y="20.2702703" width="8.78378378" height="8.78378378"></rect>
                        <rect id="Rectangle-Copy" transform="translate(96.283784, 4.391892) scale(1, -1) rotate(-180.000000) translate(-96.283784, -4.391892) " x="91.8918919" y="2.06057393e-13" width="8.78378378" height="8.78378378"></rect>
                        <rect id="Rectangle-Copy-5" transform="translate(55.442943, 95.608108) scale(1, -1) rotate(-180.000000) translate(-55.442943, -95.608108) " x="51.0510511" y="91.2162162" width="8.78378378" height="8.78378378"></rect>
                        <rect id="Rectangle-Copy-5" transform="translate(55.442943, 55.067568) scale(1, -1) rotate(-180.000000) translate(-55.442943, -55.067568) " x="51.0510511" y="50.6756757" width="8.78378378" height="8.78378378"></rect>
                        <rect id="Rectangle-Copy-5" transform="translate(55.442943, 34.797297) scale(1, -1) rotate(-180.000000) translate(-55.442943, -34.797297) " x="51.0510511" y="30.4054054" width="8.78378378" height="8.78378378"></rect>
                        <rect id="Rectangle-Copy-5" transform="translate(55.442943, 85.472973) scale(1, -1) rotate(-180.000000) translate(-55.442943, -85.472973) " x="51.0510511" y="81.0810811" width="8.78378378" height="8.78378378"></rect>
                        <rect id="Rectangle-Copy-5" transform="translate(55.442943, 4.391892) scale(1, -1) rotate(-180.000000) translate(-55.442943, -4.391892) " x="51.0510511" y="2.06057393e-13" width="8.78378378" height="8.78378378"></rect>
                        <rect id="Rectangle-Copy-3" transform="translate(75.863363, 95.608108) scale(1, -1) rotate(-180.000000) translate(-75.863363, -95.608108) " x="71.4714715" y="91.2162162" width="8.78378378" height="8.78378378"></rect>
                        <rect id="Rectangle-Copy-3" transform="translate(75.863363, 55.067568) scale(1, -1) rotate(-180.000000) translate(-75.863363, -55.067568) " x="71.4714715" y="50.6756757" width="8.78378378" height="8.78378378"></rect>
                        <rect id="Rectangle-Copy-3" transform="translate(75.863363, 34.797297) scale(1, -1) rotate(-180.000000) translate(-75.863363, -34.797297) " x="71.4714715" y="30.4054054" width="8.78378378" height="8.78378378"></rect>
                        <rect id="Rectangle-Copy-3" transform="translate(75.863363, 85.472973) scale(1, -1) rotate(-180.000000) translate(-75.863363, -85.472973) " x="71.4714715" y="81.0810811" width="8.78378378" height="8.78378378"></rect>
                        <rect id="Rectangle-Copy-3" transform="translate(75.863363, 4.391892) scale(1, -1) rotate(-180.000000) translate(-75.863363, -4.391892) " x="71.4714715" y="2.06057393e-13" width="8.78378378" height="8.78378378"></rect>
                        <rect id="Rectangle-Copy-6" transform="translate(35.022523, 95.608108) scale(1, -1) rotate(-180.000000) translate(-35.022523, -95.608108) " x="30.6306306" y="91.2162162" width="8.78378378" height="8.78378378"></rect>
                        <rect id="Rectangle-Copy-6" transform="translate(35.022523, 55.067568) scale(1, -1) rotate(-180.000000) translate(-35.022523, -55.067568) " x="30.6306306" y="50.6756757" width="8.78378378" height="8.78378378"></rect>
                        <rect id="Rectangle-Copy-6" transform="translate(35.022523, 34.797297) scale(1, -1) rotate(-180.000000) translate(-35.022523, -34.797297) " x="30.6306306" y="30.4054054" width="8.78378378" height="8.78378378"></rect>
                        <rect id="Rectangle-Copy-6" transform="translate(35.022523, 85.472973) scale(1, -1) rotate(-180.000000) translate(-35.022523, -85.472973) " x="30.6306306" y="81.0810811" width="8.78378378" height="8.78378378"></rect>
                        <rect id="Rectangle-Copy-6" transform="translate(35.022523, 4.391892) scale(1, -1) rotate(-180.000000) translate(-35.022523, -4.391892) " x="30.6306306" y="2.06057393e-13" width="8.78378378" height="8.78378378"></rect>
                        <rect id="Rectangle-Copy-9" transform="translate(14.602102, 95.608108) scale(1, -1) rotate(-180.000000) translate(-14.602102, -95.608108) " x="10.2102102" y="91.2162162" width="8.78378378" height="8.78378378"></rect>
                        <rect id="Rectangle-Copy-9" transform="translate(14.602102, 75.337838) scale(1, -1) rotate(-180.000000) translate(-14.602102, -75.337838) " x="10.2102102" y="70.9459459" width="8.78378378" height="8.78378378"></rect>
                        <rect id="Rectangle-Copy-9" transform="translate(14.602102, 14.527027) scale(1, -1) rotate(-180.000000) translate(-14.602102, -14.527027) " x="10.2102102" y="10.1351351" width="8.78378378" height="8.78378378"></rect>
                        <rect id="Rectangle-Copy-9" transform="translate(14.602102, 85.472973) scale(1, -1) rotate(-180.000000) translate(-14.602102, -85.472973) " x="10.2102102" y="81.0810811" width="8.78378378" height="8.78378378"></rect>
                        <rect id="Rectangle-Copy-9" transform="translate(14.602102, 4.391892) scale(1, -1) rotate(-180.000000) translate(-14.602102, -4.391892) " x="10.2102102" y="2.06057393e-13" width="8.78378378" height="8.78378378"></rect>
                        <rect id="Rectangle-Copy-2" transform="translate(86.073574, 95.608108) scale(1, -1) rotate(-180.000000) translate(-86.073574, -95.608108) " x="81.6816817" y="91.2162162" width="8.78378378" height="8.78378378"></rect>
                        <rect id="Rectangle-Copy-2" transform="translate(86.073574, 75.337838) scale(1, -1) rotate(-180.000000) translate(-86.073574, -75.337838) " x="81.6816817" y="70.9459459" width="8.78378378" height="8.78378378"></rect>
                        <rect id="Rectangle-Copy-2" transform="translate(86.073574, 14.527027) scale(1, -1) rotate(-180.000000) translate(-86.073574, -14.527027) " x="81.6816817" y="10.1351351" width="8.78378378" height="8.78378378"></rect>
                        <rect id="Rectangle-Copy-2" transform="translate(86.073574, 85.472973) scale(1, -1) rotate(-180.000000) translate(-86.073574, -85.472973) " x="81.6816817" y="81.0810811" width="8.78378378" height="8.78378378"></rect>
                        <rect id="Rectangle-Copy-2" transform="translate(86.073574, 4.391892) scale(1, -1) rotate(-180.000000) translate(-86.073574, -4.391892) " x="81.6816817" y="2.06057393e-13" width="8.78378378" height="8.78378378"></rect>
                        <rect id="Rectangle-Copy-7" transform="translate(45.232733, 95.608108) scale(1, -1) rotate(-180.000000) translate(-45.232733, -95.608108) " x="40.8408408" y="91.2162162" width="8.78378378" height="8.78378378"></rect>
                        <rect id="Rectangle-Copy-7" transform="translate(45.232733, 55.067568) scale(1, -1) rotate(-180.000000) translate(-45.232733, -55.067568) " x="40.8408408" y="50.6756757" width="8.78378378" height="8.78378378"></rect>
                        <rect id="Rectangle-Copy-7" transform="translate(45.232733, 34.797297) scale(1, -1) rotate(-180.000000) translate(-45.232733, -34.797297) " x="40.8408408" y="30.4054054" width="8.78378378" height="8.78378378"></rect>
                        <rect id="Rectangle-Copy-7" transform="translate(45.232733, 85.472973) scale(1, -1) rotate(-180.000000) translate(-45.232733, -85.472973) " x="40.8408408" y="81.0810811" width="8.78378378" height="8.78378378"></rect>
                        <rect id="Rectangle-Copy-7" transform="translate(45.232733, 4.391892) scale(1, -1) rotate(-180.000000) translate(-45.232733, -4.391892) " x="40.8408408" y="2.06057393e-13" width="8.78378378" height="8.78378378"></rect>
                        <rect id="Rectangle-Copy-4" transform="translate(65.653153, 95.608108) scale(1, -1) rotate(-180.000000) translate(-65.653153, -95.608108) " x="61.2612613" y="91.2162162" width="8.78378378" height="8.78378378"></rect>
                        <rect id="Rectangle-Copy-4" transform="translate(65.653153, 55.067568) scale(1, -1) rotate(-180.000000) translate(-65.653153, -55.067568) " x="61.2612613" y="50.6756757" width="8.78378378" height="8.78378378"></rect>
                        <rect id="Rectangle-Copy-4" transform="translate(65.653153, 34.797297) scale(1, -1) rotate(-180.000000) translate(-65.653153, -34.797297) " x="61.2612613" y="30.4054054" width="8.78378378" height="8.78378378"></rect>
                        <rect id="Rectangle-Copy-4" transform="translate(65.653153, 85.472973) scale(1, -1) rotate(-180.000000) translate(-65.653153, -85.472973) " x="61.2612613" y="81.0810811" width="8.78378378" height="8.78378378"></rect>
                        <rect id="Rectangle-Copy-4" transform="translate(65.653153, 4.391892) scale(1, -1) rotate(-180.000000) translate(-65.653153, -4.391892) " x="61.2612613" y="2.06057393e-13" width="8.78378378" height="8.78378378"></rect>
                        <rect id="Rectangle-Copy-8" transform="translate(24.812312, 95.608108) scale(1, -1) rotate(-180.000000) translate(-24.812312, -95.608108) " x="20.4204204" y="91.2162162" width="8.78378378" height="8.78378378"></rect>
                        <rect id="Rectangle-Copy-8" transform="translate(24.812312, 55.067568) scale(1, -1) rotate(-180.000000) translate(-24.812312, -55.067568) " x="20.4204204" y="50.6756757" width="8.78378378" height="8.78378378"></rect>
                        <rect id="Rectangle-Copy-8" transform="translate(24.812312, 34.797297) scale(1, -1) rotate(-180.000000) translate(-24.812312, -34.797297) " x="20.4204204" y="30.4054054" width="8.78378378" height="8.78378378"></rect>
                        <rect id="Rectangle-Copy-8" transform="translate(24.812312, 85.472973) scale(1, -1) rotate(-180.000000) translate(-24.812312, -85.472973) " x="20.4204204" y="81.0810811" width="8.78378378" height="8.78378378"></rect>
                        <rect id="Rectangle-Copy-8" transform="translate(24.812312, 4.391892) scale(1, -1) rotate(-180.000000) translate(-24.812312, -4.391892) " x="20.4204204" y="2.06057393e-13" width="8.78378378" height="8.78378378"></rect>
                        <rect id="Rectangle-Copy-10" transform="translate(4.391892, 95.608108) scale(1, -1) rotate(-180.000000) translate(-4.391892, -95.608108) " x="-2.4158453e-13" y="91.2162162" width="8.78378378" height="8.78378378"></rect>
                        <rect id="Rectangle-Copy-10" transform="translate(4.391892, 75.337838) scale(1, -1) rotate(-180.000000) translate(-4.391892, -75.337838) " x="-2.4158453e-13" y="70.9459459" width="8.78378378" height="8.78378378"></rect>
                        <rect id="Rectangle-Copy-10" transform="translate(4.391892, 14.527027) scale(1, -1) rotate(-180.000000) translate(-4.391892, -14.527027) " x="-2.4158453e-13" y="10.1351351" width="8.78378378" height="8.78378378"></rect>
                        <rect id="Rectangle-Copy-10" transform="translate(4.391892, 85.472973) scale(1, -1) rotate(-180.000000) translate(-4.391892, -85.472973) " x="-2.4158453e-13" y="81.0810811" width="8.78378378" height="8.78378378"></rect>
                        <rect id="Rectangle-Copy-10" transform="translate(4.391892, 65.202703) scale(1, -1) rotate(-180.000000) translate(-4.391892, -65.202703) " x="-2.4158453e-13" y="60.8108108" width="8.78378378" height="8.78378378"></rect>
                        <rect id="Rectangle-Copy-10" transform="translate(4.391892, 24.662162) scale(1, -1) rotate(-180.000000) translate(-4.391892, -24.662162) " x="-2.4158453e-13" y="20.2702703" width="8.78378378" height="8.78378378"></rect>
                        <rect id="Rectangle-Copy-10" transform="translate(4.391892, 4.391892) scale(1, -1) rotate(-180.000000) translate(-4.391892, -4.391892) " x="-2.4158453e-13" y="2.06057393e-13" width="8.78378378" height="8.78378378"></rect>
                    </g>
                    <g id="Group-10" transform="translate(0.000000, 10.135135)" fill="#FF7154">
                        <rect id="Rectangle-Copy" transform="translate(96.283784, 44.932432) scale(1, -1) rotate(-180.000000) translate(-96.283784, -44.932432) " x="91.8918919" y="40.5405405" width="8.78378378" height="8.78378378"></rect>
                        <g id="Group-7">
                            <rect id="Rectangle-Copy" transform="translate(96.283784, 24.662162) scale(1, -1) rotate(-180.000000) translate(-96.283784, -24.662162) " x="91.8918919" y="20.2702703" width="8.78378378" height="8.78378378"></rect>
                            <rect id="Rectangle-Copy" transform="translate(96.283784, 34.797297) scale(1, -1) rotate(-180.000000) translate(-96.283784, -34.797297) " x="91.8918919" y="30.4054054" width="8.78378378" height="8.78378378"></rect>
                            <rect id="Rectangle-Copy-5" transform="translate(55.442943, 65.202703) scale(1, -1) rotate(-180.000000) translate(-55.442943, -65.202703) " x="51.0510511" y="60.8108108" width="8.78378378" height="8.78378378"></rect>
                            <rect id="Rectangle-Copy-5" transform="translate(55.442943, 4.391892) scale(1, -1) rotate(-180.000000) translate(-55.442943, -4.391892) " x="51.0510511" y="2.06057393e-13" width="8.78378378" height="8.78378378"></rect>
                            <rect id="Rectangle-Copy-5" transform="translate(55.442943, 34.797297) scale(1, -1) rotate(-180.000000) translate(-55.442943, -34.797297) " x="51.0510511" y="30.4054054" width="8.78378378" height="8.78378378"></rect>
                            <rect id="Rectangle-Copy-5" transform="translate(55.442943, 55.067568) scale(1, -1) rotate(-180.000000) translate(-55.442943, -55.067568) " x="51.0510511" y="50.6756757" width="8.78378378" height="8.78378378"></rect>
                            <rect id="Rectangle-Copy-5" transform="translate(55.442943, 14.527027) scale(1, -1) rotate(-180.000000) translate(-55.442943, -14.527027) " x="51.0510511" y="10.1351351" width="8.78378378" height="8.78378378"></rect>
                            <rect id="Rectangle-Copy-3" transform="translate(75.863363, 65.202703) scale(1, -1) rotate(-180.000000) translate(-75.863363, -65.202703) " x="71.4714715" y="60.8108108" width="8.78378378" height="8.78378378"></rect>
                            <rect id="Rectangle-Copy-3" transform="translate(75.863363, 4.391892) scale(1, -1) rotate(-180.000000) translate(-75.863363, -4.391892) " x="71.4714715" y="2.06057393e-13" width="8.78378378" height="8.78378378"></rect>
                            <rect id="Rectangle-Copy-3" transform="translate(75.863363, 34.797297) scale(1, -1) rotate(-180.000000) translate(-75.863363, -34.797297) " x="71.4714715" y="30.4054054" width="8.78378378" height="8.78378378"></rect>
                            <rect id="Rectangle-Copy-3" transform="translate(75.863363, 55.067568) scale(1, -1) rotate(-180.000000) translate(-75.863363, -55.067568) " x="71.4714715" y="50.6756757" width="8.78378378" height="8.78378378"></rect>
                            <rect id="Rectangle-Copy-3" transform="translate(75.863363, 14.527027) scale(1, -1) rotate(-180.000000) translate(-75.863363, -14.527027) " x="71.4714715" y="10.1351351" width="8.78378378" height="8.78378378"></rect>
                            <rect id="Rectangle-Copy-6" transform="translate(35.022523, 65.202703) scale(1, -1) rotate(-180.000000) translate(-35.022523, -65.202703) " x="30.6306306" y="60.8108108" width="8.78378378" height="8.78378378"></rect>
                            <rect id="Rectangle-Copy-6" transform="translate(35.022523, 4.391892) scale(1, -1) rotate(-180.000000) translate(-35.022523, -4.391892) " x="30.6306306" y="2.06057393e-13" width="8.78378378" height="8.78378378"></rect>
                            <rect id="Rectangle-Copy-6" transform="translate(35.022523, 34.797297) scale(1, -1) rotate(-180.000000) translate(-35.022523, -34.797297) " x="30.6306306" y="30.4054054" width="8.78378378" height="8.78378378"></rect>
                            <rect id="Rectangle-Copy-6" transform="translate(35.022523, 55.067568) scale(1, -1) rotate(-180.000000) translate(-35.022523, -55.067568) " x="30.6306306" y="50.6756757" width="8.78378378" height="8.78378378"></rect>
                            <rect id="Rectangle-Copy-6" transform="translate(35.022523, 14.527027) scale(1, -1) rotate(-180.000000) translate(-35.022523, -14.527027) " x="30.6306306" y="10.1351351" width="8.78378378" height="8.78378378"></rect>
                            <rect id="Rectangle-Copy-9" transform="translate(14.602102, 44.932432) scale(1, -1) rotate(-180.000000) translate(-14.602102, -44.932432) " x="10.2102102" y="40.5405405" width="8.78378378" height="8.78378378"></rect>
                            <rect id="Rectangle-Copy-9" transform="translate(14.602102, 24.662162) scale(1, -1) rotate(-180.000000) translate(-14.602102, -24.662162) " x="10.2102102" y="20.2702703" width="8.78378378" height="8.78378378"></rect>
                            <rect id="Rectangle-Copy-9" transform="translate(14.602102, 34.797297) scale(1, -1) rotate(-180.000000) translate(-14.602102, -34.797297) " x="10.2102102" y="30.4054054" width="8.78378378" height="8.78378378"></rect>
                            <rect id="Rectangle-Copy-9" transform="translate(14.602102, 55.067568) scale(1, -1) rotate(-180.000000) translate(-14.602102, -55.067568) " x="10.2102102" y="50.6756757" width="8.78378378" height="8.78378378"></rect>
                            <rect id="Rectangle-Copy-9" transform="translate(14.602102, 14.527027) scale(1, -1) rotate(-180.000000) translate(-14.602102, -14.527027) " x="10.2102102" y="10.1351351" width="8.78378378" height="8.78378378"></rect>
                            <rect id="Rectangle-Copy-2" transform="translate(86.073574, 24.662162) scale(1, -1) rotate(-180.000000) translate(-86.073574, -24.662162) " x="81.6816817" y="20.2702703" width="8.78378378" height="8.78378378"></rect>
                            <rect id="Rectangle-Copy-2" transform="translate(86.073574, 34.797297) scale(1, -1) rotate(-180.000000) translate(-86.073574, -34.797297) " x="81.6816817" y="30.4054054" width="8.78378378" height="8.78378378"></rect>
                            <rect id="Rectangle-Copy-2" transform="translate(86.073574, 55.067568) scale(1, -1) rotate(-180.000000) translate(-86.073574, -55.067568) " x="81.6816817" y="50.6756757" width="8.78378378" height="8.78378378"></rect>
                            <rect id="Rectangle-Copy-2" transform="translate(86.073574, 14.527027) scale(1, -1) rotate(-180.000000) translate(-86.073574, -14.527027) " x="81.6816817" y="10.1351351" width="8.78378378" height="8.78378378"></rect>
                            <rect id="Rectangle-Copy-7" transform="translate(45.232733, 65.202703) scale(1, -1) rotate(-180.000000) translate(-45.232733, -65.202703) " x="40.8408408" y="60.8108108" width="8.78378378" height="8.78378378"></rect>
                            <rect id="Rectangle-Copy-7" transform="translate(45.232733, 4.391892) scale(1, -1) rotate(-180.000000) translate(-45.232733, -4.391892) " x="40.8408408" y="2.06057393e-13" width="8.78378378" height="8.78378378"></rect>
                            <rect id="Rectangle-Copy-7" transform="translate(45.232733, 34.797297) scale(1, -1) rotate(-180.000000) translate(-45.232733, -34.797297) " x="40.8408408" y="30.4054054" width="8.78378378" height="8.78378378"></rect>
                            <rect id="Rectangle-Copy-7" transform="translate(45.232733, 55.067568) scale(1, -1) rotate(-180.000000) translate(-45.232733, -55.067568) " x="40.8408408" y="50.6756757" width="8.78378378" height="8.78378378"></rect>
                            <rect id="Rectangle-Copy-7" transform="translate(45.232733, 14.527027) scale(1, -1) rotate(-180.000000) translate(-45.232733, -14.527027) " x="40.8408408" y="10.1351351" width="8.78378378" height="8.78378378"></rect>
                            <rect id="Rectangle-Copy-4" transform="translate(65.653153, 65.202703) scale(1, -1) rotate(-180.000000) translate(-65.653153, -65.202703) " x="61.2612613" y="60.8108108" width="8.78378378" height="8.78378378"></rect>
                            <rect id="Rectangle-Copy-4" transform="translate(65.653153, 4.391892) scale(1, -1) rotate(-180.000000) translate(-65.653153, -4.391892) " x="61.2612613" y="2.06057393e-13" width="8.78378378" height="8.78378378"></rect>
                            <rect id="Rectangle-Copy-4" transform="translate(65.653153, 34.797297) scale(1, -1) rotate(-180.000000) translate(-65.653153, -34.797297) " x="61.2612613" y="30.4054054" width="8.78378378" height="8.78378378"></rect>
                            <rect id="Rectangle-Copy-4" transform="translate(65.653153, 55.067568) scale(1, -1) rotate(-180.000000) translate(-65.653153, -55.067568) " x="61.2612613" y="50.6756757" width="8.78378378" height="8.78378378"></rect>
                            <rect id="Rectangle-Copy-4" transform="translate(65.653153, 14.527027) scale(1, -1) rotate(-180.000000) translate(-65.653153, -14.527027) " x="61.2612613" y="10.1351351" width="8.78378378" height="8.78378378"></rect>
                            <rect id="Rectangle-Copy-8" transform="translate(24.812312, 65.202703) scale(1, -1) rotate(-180.000000) translate(-24.812312, -65.202703) " x="20.4204204" y="60.8108108" width="8.78378378" height="8.78378378"></rect>
                            <rect id="Rectangle-Copy-8" transform="translate(24.812312, 4.391892) scale(1, -1) rotate(-180.000000) translate(-24.812312, -4.391892) " x="20.4204204" y="2.06057393e-13" width="8.78378378" height="8.78378378"></rect>
                            <rect id="Rectangle-Copy-8" transform="translate(24.812312, 34.797297) scale(1, -1) rotate(-180.000000) translate(-24.812312, -34.797297) " x="20.4204204" y="30.4054054" width="8.78378378" height="8.78378378"></rect>
                            <rect id="Rectangle-Copy-8" transform="translate(24.812312, 55.067568) scale(1, -1) rotate(-180.000000) translate(-24.812312, -55.067568) " x="20.4204204" y="50.6756757" width="8.78378378" height="8.78378378"></rect>
                            <rect id="Rectangle-Copy-8" transform="translate(24.812312, 14.527027) scale(1, -1) rotate(-180.000000) translate(-24.812312, -14.527027) " x="20.4204204" y="10.1351351" width="8.78378378" height="8.78378378"></rect>
                            <rect id="Rectangle-Copy-10" transform="translate(4.391892, 44.932432) scale(1, -1) rotate(-180.000000) translate(-4.391892, -44.932432) " x="-2.4158453e-13" y="40.5405405" width="8.78378378" height="8.78378378"></rect>
                            <rect id="Rectangle-Copy-10" transform="translate(4.391892, 24.662162) scale(1, -1) rotate(-180.000000) translate(-4.391892, -24.662162) " x="-2.4158453e-13" y="20.2702703" width="8.78378378" height="8.78378378"></rect>
                            <rect id="Rectangle-Copy-10" transform="translate(4.391892, 34.797297) scale(1, -1) rotate(-180.000000) translate(-4.391892, -34.797297) " x="-2.4158453e-13" y="30.4054054" width="8.78378378" height="8.78378378"></rect>
                        </g>
                        <rect id="Rectangle-Copy-2" transform="translate(86.073574, 44.932432) scale(1, -1) rotate(-180.000000) translate(-86.073574, -44.932432) " x="81.6816817" y="40.5405405" width="8.78378378" height="8.78378378"></rect>
                    </g>
                </g>
                <text id="Cacao-[n.]-refers-to" font-family="Courier-Bold, Courier" font-size="14" font-weight="bold">
                    <tspan x="0" y="132" fill="#FF7154">Cacao</tspan>
                    <tspan x="42.0068359" y="132" font-family="Courier" font-weight="normal" fill="#FFFAF0"> </tspan>
                    <tspan x="0" y="149" font-family="Courier" font-weight="normal" fill="#FFFAF0">[n.] refers to the pod and beans </tspan>
                    <tspan x="0" y="166" font-family="Courier" font-weight="normal" fill="#FFFAF0">derived from the chocolate tree, </tspan>
                    <tspan x="0" y="183" font-family="Courier" font-weight="normal" fill="#FFFAF0">Theobroma cacao.</tspan>
                </text>
            </g>
            <g id="Group-13" transform="translate(403.000000, 0.000000)">
                <text id="Cocoa-[n.]-refers-to" font-family="Courier-Bold, Courier" font-size="14" font-weight="bold">
                    <tspan x="0" y="132" fill="#FF7154">Cocoa</tspan>
                    <tspan x="42.0068359" y="132" font-family="Courier" font-weight="normal" fill="#FFFAF0"> </tspan>
                    <tspan x="0" y="149" font-family="Courier" font-weight="normal" fill="#FFFAF0">[n.] refers to the powder left </tspan>
                    <tspan x="0" y="166" font-family="Courier" font-weight="normal" fill="#FFFAF0">after pressing the fat out of </tspan>
                    <tspan x="0" y="183" font-family="Courier" font-weight="normal" fill="#FFFAF0">the ground beans. </tspan>
                </text>
                <g id="Group-12">
                    <g id="Group-9" opacity="0" fill="#FFFAF0">
                        <rect id="Rectangle-Copy" transform="translate(4.391892, 4.391892) scale(1, -1) translate(-4.391892, -4.391892) " x="-2.46025422e-13" y="2.08721929e-13" width="8.78378378" height="8.78378378"></rect>
                        <rect id="Rectangle-Copy" transform="translate(4.391892, 44.932432) scale(1, -1) translate(-4.391892, -44.932432) " x="-2.46025422e-13" y="40.5405405" width="8.78378378" height="8.78378378"></rect>
                        <rect id="Rectangle-Copy" transform="translate(4.391892, 65.202703) scale(1, -1) translate(-4.391892, -65.202703) " x="-2.46025422e-13" y="60.8108108" width="8.78378378" height="8.78378378"></rect>
                        <rect id="Rectangle-Copy" transform="translate(4.391892, 85.472973) scale(1, -1) translate(-4.391892, -85.472973) " x="-2.46025422e-13" y="81.0810811" width="8.78378378" height="8.78378378"></rect>
                        <rect id="Rectangle-Copy" transform="translate(4.391892, 14.527027) scale(1, -1) translate(-4.391892, -14.527027) " x="-2.46025422e-13" y="10.1351351" width="8.78378378" height="8.78378378"></rect>
                        <rect id="Rectangle-Copy" transform="translate(4.391892, 55.067568) scale(1, -1) translate(-4.391892, -55.067568) " x="-2.46025422e-13" y="50.6756757" width="8.78378378" height="8.78378378"></rect>
                        <rect id="Rectangle-Copy" transform="translate(4.391892, 34.797297) scale(1, -1) translate(-4.391892, -34.797297) " x="-2.46025422e-13" y="30.4054054" width="8.78378378" height="8.78378378"></rect>
                        <rect id="Rectangle-Copy" transform="translate(4.391892, 75.337838) scale(1, -1) translate(-4.391892, -75.337838) " x="-2.46025422e-13" y="70.9459459" width="8.78378378" height="8.78378378"></rect>
                        <rect id="Rectangle-Copy" transform="translate(4.391892, 95.608108) scale(1, -1) translate(-4.391892, -95.608108) " x="-2.46025422e-13" y="91.2162162" width="8.78378378" height="8.78378378"></rect>
                        <rect id="Rectangle-Copy-5" transform="translate(45.232733, 4.391892) scale(1, -1) translate(-45.232733, -4.391892) " x="40.8408408" y="2.08721929e-13" width="8.78378378" height="8.78378378"></rect>
                        <rect id="Rectangle-Copy-5" transform="translate(45.232733, 85.472973) scale(1, -1) translate(-45.232733, -85.472973) " x="40.8408408" y="81.0810811" width="8.78378378" height="8.78378378"></rect>
                        <rect id="Rectangle-Copy-5" transform="translate(45.232733, 14.527027) scale(1, -1) translate(-45.232733, -14.527027) " x="40.8408408" y="10.1351351" width="8.78378378" height="8.78378378"></rect>
                        <rect id="Rectangle-Copy-5" transform="translate(45.232733, 75.337838) scale(1, -1) translate(-45.232733, -75.337838) " x="40.8408408" y="70.9459459" width="8.78378378" height="8.78378378"></rect>
                        <rect id="Rectangle-Copy-5" transform="translate(45.232733, 95.608108) scale(1, -1) translate(-45.232733, -95.608108) " x="40.8408408" y="91.2162162" width="8.78378378" height="8.78378378"></rect>
                        <rect id="Rectangle-Copy-3" transform="translate(24.812312, 4.391892) scale(1, -1) translate(-24.812312, -4.391892) " x="20.4204204" y="2.08721929e-13" width="8.78378378" height="8.78378378"></rect>
                        <rect id="Rectangle-Copy-3" transform="translate(24.812312, 44.932432) scale(1, -1) translate(-24.812312, -44.932432) " x="20.4204204" y="40.5405405" width="8.78378378" height="8.78378378"></rect>
                        <rect id="Rectangle-Copy-3" transform="translate(24.812312, 24.662162) scale(1, -1) translate(-24.812312, -24.662162) " x="20.4204204" y="20.2702703" width="8.78378378" height="8.78378378"></rect>
                        <rect id="Rectangle-Copy-3" transform="translate(24.812312, 65.202703) scale(1, -1) translate(-24.812312, -65.202703) " x="20.4204204" y="60.8108108" width="8.78378378" height="8.78378378"></rect>
                        <rect id="Rectangle-Copy-3" transform="translate(24.812312, 85.472973) scale(1, -1) translate(-24.812312, -85.472973) " x="20.4204204" y="81.0810811" width="8.78378378" height="8.78378378"></rect>
                        <rect id="Rectangle-Copy-3" transform="translate(24.812312, 14.527027) scale(1, -1) translate(-24.812312, -14.527027) " x="20.4204204" y="10.1351351" width="8.78378378" height="8.78378378"></rect>
                        <rect id="Rectangle-Copy-3" transform="translate(24.812312, 75.337838) scale(1, -1) translate(-24.812312, -75.337838) " x="20.4204204" y="70.9459459" width="8.78378378" height="8.78378378"></rect>
                        <rect id="Rectangle-Copy-6" transform="translate(65.653153, 4.391892) scale(1, -1) translate(-65.653153, -4.391892) " x="61.2612613" y="2.08721929e-13" width="8.78378378" height="8.78378378"></rect>
                        <rect id="Rectangle-Copy-6" transform="translate(65.653153, 65.202703) scale(1, -1) translate(-65.653153, -65.202703) " x="61.2612613" y="60.8108108" width="8.78378378" height="8.78378378"></rect>
                        <rect id="Rectangle-Copy-6" transform="translate(65.653153, 14.527027) scale(1, -1) translate(-65.653153, -14.527027) " x="61.2612613" y="10.1351351" width="8.78378378" height="8.78378378"></rect>
                        <rect id="Rectangle-Copy-6" transform="translate(65.653153, 34.797297) scale(1, -1) translate(-65.653153, -34.797297) " x="61.2612613" y="30.4054054" width="8.78378378" height="8.78378378"></rect>
                        <rect id="Rectangle-Copy-6" transform="translate(65.653153, 75.337838) scale(1, -1) translate(-65.653153, -75.337838) " x="61.2612613" y="70.9459459" width="8.78378378" height="8.78378378"></rect>
                        <rect id="Rectangle-Copy-6" transform="translate(65.653153, 95.608108) scale(1, -1) translate(-65.653153, -95.608108) " x="61.2612613" y="91.2162162" width="8.78378378" height="8.78378378"></rect>
                        <rect id="Rectangle-Copy-9" transform="translate(86.073574, 4.391892) scale(1, -1) translate(-86.073574, -4.391892) " x="81.6816817" y="2.08721929e-13" width="8.78378378" height="8.78378378"></rect>
                        <rect id="Rectangle-Copy-9" transform="translate(86.073574, 44.932432) scale(1, -1) translate(-86.073574, -44.932432) " x="81.6816817" y="40.5405405" width="8.78378378" height="8.78378378"></rect>
                        <rect id="Rectangle-Copy-9" transform="translate(86.073574, 24.662162) scale(1, -1) translate(-86.073574, -24.662162) " x="81.6816817" y="20.2702703" width="8.78378378" height="8.78378378"></rect>
                        <rect id="Rectangle-Copy-9" transform="translate(86.073574, 65.202703) scale(1, -1) translate(-86.073574, -65.202703) " x="81.6816817" y="60.8108108" width="8.78378378" height="8.78378378"></rect>
                        <rect id="Rectangle-Copy-9" transform="translate(86.073574, 85.472973) scale(1, -1) translate(-86.073574, -85.472973) " x="81.6816817" y="81.0810811" width="8.78378378" height="8.78378378"></rect>
                        <rect id="Rectangle-Copy-9" transform="translate(86.073574, 14.527027) scale(1, -1) translate(-86.073574, -14.527027) " x="81.6816817" y="10.1351351" width="8.78378378" height="8.78378378"></rect>
                        <rect id="Rectangle-Copy-9" transform="translate(86.073574, 55.067568) scale(1, -1) translate(-86.073574, -55.067568) " x="81.6816817" y="50.6756757" width="8.78378378" height="8.78378378"></rect>
                        <rect id="Rectangle-Copy-9" transform="translate(86.073574, 75.337838) scale(1, -1) translate(-86.073574, -75.337838) " x="81.6816817" y="70.9459459" width="8.78378378" height="8.78378378"></rect>
                        <rect id="Rectangle-Copy-9" transform="translate(86.073574, 95.608108) scale(1, -1) translate(-86.073574, -95.608108) " x="81.6816817" y="91.2162162" width="8.78378378" height="8.78378378"></rect>
                        <rect id="Rectangle-Copy-2" transform="translate(14.602102, 4.391892) scale(1, -1) translate(-14.602102, -4.391892) " x="10.2102102" y="2.08721929e-13" width="8.78378378" height="8.78378378"></rect>
                        <rect id="Rectangle-Copy-2" transform="translate(14.602102, 44.932432) scale(1, -1) translate(-14.602102, -44.932432) " x="10.2102102" y="40.5405405" width="8.78378378" height="8.78378378"></rect>
                        <rect id="Rectangle-Copy-2" transform="translate(14.602102, 24.662162) scale(1, -1) translate(-14.602102, -24.662162) " x="10.2102102" y="20.2702703" width="8.78378378" height="8.78378378"></rect>
                        <rect id="Rectangle-Copy-2" transform="translate(14.602102, 85.472973) scale(1, -1) translate(-14.602102, -85.472973) " x="10.2102102" y="81.0810811" width="8.78378378" height="8.78378378"></rect>
                        <rect id="Rectangle-Copy-2" transform="translate(14.602102, 14.527027) scale(1, -1) translate(-14.602102, -14.527027) " x="10.2102102" y="10.1351351" width="8.78378378" height="8.78378378"></rect>
                        <rect id="Rectangle-Copy-2" transform="translate(14.602102, 55.067568) scale(1, -1) translate(-14.602102, -55.067568) " x="10.2102102" y="50.6756757" width="8.78378378" height="8.78378378"></rect>
                        <rect id="Rectangle-Copy-2" transform="translate(14.602102, 34.797297) scale(1, -1) translate(-14.602102, -34.797297) " x="10.2102102" y="30.4054054" width="8.78378378" height="8.78378378"></rect>
                        <rect id="Rectangle-Copy-2" transform="translate(14.602102, 75.337838) scale(1, -1) translate(-14.602102, -75.337838) " x="10.2102102" y="70.9459459" width="8.78378378" height="8.78378378"></rect>
                        <rect id="Rectangle-Copy-2" transform="translate(14.602102, 95.608108) scale(1, -1) translate(-14.602102, -95.608108) " x="10.2102102" y="91.2162162" width="8.78378378" height="8.78378378"></rect>
                        <rect id="Rectangle-Copy-7" transform="translate(55.442943, 4.391892) scale(1, -1) translate(-55.442943, -4.391892) " x="51.0510511" y="2.08721929e-13" width="8.78378378" height="8.78378378"></rect>
                        <rect id="Rectangle-Copy-7" transform="translate(55.442943, 24.662162) scale(1, -1) translate(-55.442943, -24.662162) " x="51.0510511" y="20.2702703" width="8.78378378" height="8.78378378"></rect>
                        <rect id="Rectangle-Copy-7" transform="translate(55.442943, 85.472973) scale(1, -1) translate(-55.442943, -85.472973) " x="51.0510511" y="81.0810811" width="8.78378378" height="8.78378378"></rect>
                        <rect id="Rectangle-Copy-7" transform="translate(55.442943, 14.527027) scale(1, -1) translate(-55.442943, -14.527027) " x="51.0510511" y="10.1351351" width="8.78378378" height="8.78378378"></rect>
                        <rect id="Rectangle-Copy-7" transform="translate(55.442943, 95.608108) scale(1, -1) translate(-55.442943, -95.608108) " x="51.0510511" y="91.2162162" width="8.78378378" height="8.78378378"></rect>
                        <rect id="Rectangle-Copy-4" transform="translate(35.022523, 4.391892) scale(1, -1) translate(-35.022523, -4.391892) " x="30.6306306" y="2.08721929e-13" width="8.78378378" height="8.78378378"></rect>
                        <rect id="Rectangle-Copy-4" transform="translate(35.022523, 24.662162) scale(1, -1) translate(-35.022523, -24.662162) " x="30.6306306" y="20.2702703" width="8.78378378" height="8.78378378"></rect>
                        <rect id="Rectangle-Copy-4" transform="translate(35.022523, 65.202703) scale(1, -1) translate(-35.022523, -65.202703) " x="30.6306306" y="60.8108108" width="8.78378378" height="8.78378378"></rect>
                        <rect id="Rectangle-Copy-4" transform="translate(35.022523, 85.472973) scale(1, -1) translate(-35.022523, -85.472973) " x="30.6306306" y="81.0810811" width="8.78378378" height="8.78378378"></rect>
                        <rect id="Rectangle-Copy-4" transform="translate(35.022523, 34.797297) scale(1, -1) translate(-35.022523, -34.797297) " x="30.6306306" y="30.4054054" width="8.78378378" height="8.78378378"></rect>
                        <rect id="Rectangle-Copy-4" transform="translate(35.022523, 95.608108) scale(1, -1) translate(-35.022523, -95.608108) " x="30.6306306" y="91.2162162" width="8.78378378" height="8.78378378"></rect>
                        <rect id="Rectangle-Copy-8" transform="translate(75.863363, 24.662162) scale(1, -1) translate(-75.863363, -24.662162) " x="71.4714715" y="20.2702703" width="8.78378378" height="8.78378378"></rect>
                        <rect id="Rectangle-Copy-8" transform="translate(75.863363, 85.472973) scale(1, -1) translate(-75.863363, -85.472973) " x="71.4714715" y="81.0810811" width="8.78378378" height="8.78378378"></rect>
                        <rect id="Rectangle-Copy-8" transform="translate(75.863363, 14.527027) scale(1, -1) translate(-75.863363, -14.527027) " x="71.4714715" y="10.1351351" width="8.78378378" height="8.78378378"></rect>
                        <rect id="Rectangle-Copy-8" transform="translate(75.863363, 55.067568) scale(1, -1) translate(-75.863363, -55.067568) " x="71.4714715" y="50.6756757" width="8.78378378" height="8.78378378"></rect>
                        <rect id="Rectangle-Copy-8" transform="translate(75.863363, 34.797297) scale(1, -1) translate(-75.863363, -34.797297) " x="71.4714715" y="30.4054054" width="8.78378378" height="8.78378378"></rect>
                        <rect id="Rectangle-Copy-8" transform="translate(75.863363, 75.337838) scale(1, -1) translate(-75.863363, -75.337838) " x="71.4714715" y="70.9459459" width="8.78378378" height="8.78378378"></rect>
                        <rect id="Rectangle-Copy-8" transform="translate(75.863363, 95.608108) scale(1, -1) translate(-75.863363, -95.608108) " x="71.4714715" y="91.2162162" width="8.78378378" height="8.78378378"></rect>
                        <rect id="Rectangle-Copy-10" transform="translate(96.283784, 4.391892) scale(1, -1) translate(-96.283784, -4.391892) " x="91.8918919" y="2.08721929e-13" width="8.78378378" height="8.78378378"></rect>
                        <rect id="Rectangle-Copy-10" transform="translate(96.283784, 44.932432) scale(1, -1) translate(-96.283784, -44.932432) " x="91.8918919" y="40.5405405" width="8.78378378" height="8.78378378"></rect>
                        <rect id="Rectangle-Copy-10" transform="translate(96.283784, 24.662162) scale(1, -1) translate(-96.283784, -24.662162) " x="91.8918919" y="20.2702703" width="8.78378378" height="8.78378378"></rect>
                        <rect id="Rectangle-Copy-10" transform="translate(96.283784, 65.202703) scale(1, -1) translate(-96.283784, -65.202703) " x="91.8918919" y="60.8108108" width="8.78378378" height="8.78378378"></rect>
                        <rect id="Rectangle-Copy-10" transform="translate(96.283784, 85.472973) scale(1, -1) translate(-96.283784, -85.472973) " x="91.8918919" y="81.0810811" width="8.78378378" height="8.78378378"></rect>
                        <rect id="Rectangle-Copy-10" transform="translate(96.283784, 14.527027) scale(1, -1) translate(-96.283784, -14.527027) " x="91.8918919" y="10.1351351" width="8.78378378" height="8.78378378"></rect>
                        <rect id="Rectangle-Copy-10" transform="translate(96.283784, 55.067568) scale(1, -1) translate(-96.283784, -55.067568) " x="91.8918919" y="50.6756757" width="8.78378378" height="8.78378378"></rect>
                        <rect id="Rectangle-Copy-10" transform="translate(96.283784, 34.797297) scale(1, -1) translate(-96.283784, -34.797297) " x="91.8918919" y="30.4054054" width="8.78378378" height="8.78378378"></rect>
                        <rect id="Rectangle-Copy-10" transform="translate(96.283784, 95.608108) scale(1, -1) translate(-96.283784, -95.608108) " x="91.8918919" y="91.2162162" width="8.78378378" height="8.78378378"></rect>
                    </g>
                    <g id="Group-8" fill="#FF7154">
                        <rect id="Rectangle-Copy" transform="translate(4.391892, 24.662162) scale(1, -1) translate(-4.391892, -24.662162) " x="-2.46025422e-13" y="20.2702703" width="8.78378378" height="8.78378378"></rect>
                        <rect id="Rectangle-Copy-5" transform="translate(45.232733, 44.932432) scale(1, -1) translate(-45.232733, -44.932432) " x="40.8408408" y="40.5405405" width="8.78378378" height="8.78378378"></rect>
                        <rect id="Rectangle-Copy-5" transform="translate(45.232733, 24.662162) scale(1, -1) translate(-45.232733, -24.662162) " x="40.8408408" y="20.2702703" width="8.78378378" height="8.78378378"></rect>
                        <rect id="Rectangle-Copy-5" transform="translate(45.232733, 65.202703) scale(1, -1) translate(-45.232733, -65.202703) " x="40.8408408" y="60.8108108" width="8.78378378" height="8.78378378"></rect>
                        <rect id="Rectangle-Copy-5" transform="translate(45.232733, 55.067568) scale(1, -1) translate(-45.232733, -55.067568) " x="40.8408408" y="50.6756757" width="8.78378378" height="8.78378378"></rect>
                        <rect id="Rectangle-Copy-5" transform="translate(45.232733, 34.797297) scale(1, -1) translate(-45.232733, -34.797297) " x="40.8408408" y="30.4054054" width="8.78378378" height="8.78378378"></rect>
                        <rect id="Rectangle-Copy-3" transform="translate(24.812312, 55.067568) scale(1, -1) translate(-24.812312, -55.067568) " x="20.4204204" y="50.6756757" width="8.78378378" height="8.78378378"></rect>
                        <rect id="Rectangle-Copy-3" transform="translate(24.812312, 34.797297) scale(1, -1) translate(-24.812312, -34.797297) " x="20.4204204" y="30.4054054" width="8.78378378" height="8.78378378"></rect>
                        <rect id="Rectangle-Copy-3" transform="translate(24.812312, 95.608108) scale(1, -1) translate(-24.812312, -95.608108) " x="20.4204204" y="91.2162162" width="8.78378378" height="8.78378378"></rect>
                        <rect id="Rectangle-Copy-6" transform="translate(65.653153, 44.932432) scale(1, -1) translate(-65.653153, -44.932432) " x="61.2612613" y="40.5405405" width="8.78378378" height="8.78378378"></rect>
                        <rect id="Rectangle-Copy-6" transform="translate(65.653153, 24.662162) scale(1, -1) translate(-65.653153, -24.662162) " x="61.2612613" y="20.2702703" width="8.78378378" height="8.78378378"></rect>
                        <rect id="Rectangle-Copy-6" transform="translate(65.653153, 85.472973) scale(1, -1) translate(-65.653153, -85.472973) " x="61.2612613" y="81.0810811" width="8.78378378" height="8.78378378"></rect>
                        <rect id="Rectangle-Copy-6" transform="translate(65.653153, 55.067568) scale(1, -1) translate(-65.653153, -55.067568) " x="61.2612613" y="50.6756757" width="8.78378378" height="8.78378378"></rect>
                        <rect id="Rectangle-Copy-9" transform="translate(86.073574, 34.797297) scale(1, -1) translate(-86.073574, -34.797297) " x="81.6816817" y="30.4054054" width="8.78378378" height="8.78378378"></rect>
                        <rect id="Rectangle-Copy-2" transform="translate(14.602102, 65.202703) scale(1, -1) translate(-14.602102, -65.202703) " x="10.2102102" y="60.8108108" width="8.78378378" height="8.78378378"></rect>
                        <rect id="Rectangle-Copy-7" transform="translate(55.442943, 44.932432) scale(1, -1) translate(-55.442943, -44.932432) " x="51.0510511" y="40.5405405" width="8.78378378" height="8.78378378"></rect>
                        <rect id="Rectangle-Copy-7" transform="translate(55.442943, 65.202703) scale(1, -1) translate(-55.442943, -65.202703) " x="51.0510511" y="60.8108108" width="8.78378378" height="8.78378378"></rect>
                        <rect id="Rectangle-Copy-7" transform="translate(55.442943, 55.067568) scale(1, -1) translate(-55.442943, -55.067568) " x="51.0510511" y="50.6756757" width="8.78378378" height="8.78378378"></rect>
                        <rect id="Rectangle-Copy-7" transform="translate(55.442943, 34.797297) scale(1, -1) translate(-55.442943, -34.797297) " x="51.0510511" y="30.4054054" width="8.78378378" height="8.78378378"></rect>
                        <rect id="Rectangle-Copy-7" transform="translate(55.442943, 75.337838) scale(1, -1) translate(-55.442943, -75.337838) " x="51.0510511" y="70.9459459" width="8.78378378" height="8.78378378"></rect>
                        <rect id="Rectangle-Copy-4" transform="translate(35.022523, 44.932432) scale(1, -1) translate(-35.022523, -44.932432) " x="30.6306306" y="40.5405405" width="8.78378378" height="8.78378378"></rect>
                        <rect id="Rectangle-Copy-4" transform="translate(35.022523, 14.527027) scale(1, -1) translate(-35.022523, -14.527027) " x="30.6306306" y="10.1351351" width="8.78378378" height="8.78378378"></rect>
                        <rect id="Rectangle-Copy-4" transform="translate(35.022523, 55.067568) scale(1, -1) translate(-35.022523, -55.067568) " x="30.6306306" y="50.6756757" width="8.78378378" height="8.78378378"></rect>
                        <rect id="Rectangle-Copy-4" transform="translate(35.022523, 75.337838) scale(1, -1) translate(-35.022523, -75.337838) " x="30.6306306" y="70.9459459" width="8.78378378" height="8.78378378"></rect>
                        <rect id="Rectangle-Copy-8" transform="translate(75.863363, 4.391892) scale(1, -1) translate(-75.863363, -4.391892) " x="71.4714715" y="2.08721929e-13" width="8.78378378" height="8.78378378"></rect>
                        <rect id="Rectangle-Copy-8" transform="translate(75.863363, 44.932432) scale(1, -1) translate(-75.863363, -44.932432) " x="71.4714715" y="40.5405405" width="8.78378378" height="8.78378378"></rect>
                        <rect id="Rectangle-Copy-8" transform="translate(75.863363, 65.202703) scale(1, -1) translate(-75.863363, -65.202703) " x="71.4714715" y="60.8108108" width="8.78378378" height="8.78378378"></rect>
                        <rect id="Rectangle-Copy-10" transform="translate(96.283784, 75.337838) scale(1, -1) translate(-96.283784, -75.337838) " x="91.8918919" y="70.9459459" width="8.78378378" height="8.78378378"></rect>
                    </g>
                </g>
            </g>
        </g>
    </g>
</svg>