<?xml version="1.0" encoding="UTF-8"?>
<svg width="1440px" height="700px" viewBox="0 0 1440 700" version="1.1" xmlns="http://www.w3.org/2000/svg" xmlns:xlink="http://www.w3.org/1999/xlink">
    <!-- Generator: Sketch 59.1 (86144) - https://sketch.com -->
    <title>protected</title>
    <desc>Created with Sketch.</desc>
    <g id="protected" stroke="none" stroke-width="1" fill="none" fill-rule="evenodd">
        <rect fill="#000000" x="0" y="0" width="1440" height="700"></rect>
        <g id="Group-11" transform="translate(1143.000000, 204.000000)" fill="#FFFAF0" font-family="Courier-Bold, Courier" font-size="12" font-weight="bold" line-spacing="23">
            <g id="Group-5" transform="translate(25.000000, 0.000000)">
                <text id="Bolo-Ouest-FR">
                    <tspan x="0" y="11">Bolo-Ouest FR</tspan>
                </text>
                <text id="Monogaga-FR">
                    <tspan x="0" y="43">Monogaga FR</tspan>
                </text>
                <text id="Mont-Peko-NP">
                    <tspan x="0" y="74">Mont Peko NP</tspan>
                </text>
                <text id="Rapide-Grah-FR">
                    <tspan x="0" y="58">Rapide Grah FR</tspan>
                </text>
                <text id="Niegre-FR">
                    <tspan x="0" y="27">Niegre FR</tspan>
                </text>
            </g>
            <g id="Group-6" transform="translate(7.000000, 0.000000)">
                <text id="1">
                    <tspan x="0" y="11">1</tspan>
                </text>
                <text id="3">
                    <tspan x="0" y="43">3</tspan>
                </text>
                <text id="5">
                    <tspan x="0" y="74">5</tspan>
                </text>
                <text id="4">
                    <tspan x="0" y="58">4</tspan>
                </text>
                <text id="2">
                    <tspan x="0" y="27">2</tspan>
                </text>
            </g>
            <g id="Group-4" transform="translate(0.000000, 89.000000)">
                <text id="6">
                    <tspan x="7" y="11">6</tspan>
                </text>
                <text id="8">
                    <tspan x="7" y="43">8</tspan>
                </text>
                <text id="10">
                    <tspan x="0" y="74">10</tspan>
                </text>
                <text id="9">
                    <tspan x="7" y="58">9</tspan>
                </text>
                <text id="7">
                    <tspan x="7" y="27">7</tspan>
                </text>
            </g>
            <g id="Group-3" transform="translate(25.000000, 89.000000)">
                <text id="Marahoué-NP">
                    <tspan x="0" y="11">Marahoué NP</tspan>
                </text>
                <text id="Séguéla-FR">
                    <tspan x="0" y="43">Séguéla FR</tspan>
                </text>
                <text id="Moyenne-Marahoué-FR">
                    <tspan x="0" y="74">Moyenne Marahoué FR</tspan>
                </text>
                <text id="Haut-Dé-FR">
                    <tspan x="0" y="58">Haut Dé FR </tspan>
                </text>
                <text id="Koba-FR">
                    <tspan x="0" y="27">Koba FR        </tspan>
                </text>
            </g>
            <g id="Group-2" transform="translate(0.000000, 176.000000)">
                <text id="11">
                    <tspan x="0" y="11">11</tspan>
                </text>
                <text id="13">
                    <tspan x="0" y="43">13</tspan>
                </text>
                <text id="14">
                    <tspan x="0" y="58">14</tspan>
                </text>
                <text id="12">
                    <tspan x="0" y="27">12</tspan>
                </text>
                <text id="15">
                    <tspan x="0.59765625" y="73">15</tspan>
                </text>
            </g>
            <g id="Group" transform="translate(25.000000, 176.000000)">
                <text id="Dassioko-FR">
                    <tspan x="0" y="11">Dassioko FR</tspan>
                </text>
                <text id="Kani-Bandaman-Rouge">
                    <tspan x="0" y="43">Kani-Bandaman Rouge FR</tspan>
                </text>
                <text id="Dé-FR">
                    <tspan x="0" y="58">Dé FR</tspan>
                </text>
                <text id="Port-Gauthier-FR">
                    <tspan x="0" y="27">Port-Gauthier FR</tspan>
                </text>
                <text id="Bouaflé-FR">
                    <tspan x="0" y="73">Bouaflé FR</tspan>
                </text>
            </g>
            <g id="Group-8" transform="translate(0.000000, 265.000000)">
                <text id="16">
                    <tspan x="0.59765625" y="11">16</tspan>
                </text>
                <text id="17">
                    <tspan x="0" y="27">17</tspan>
                </text>
                <text id="19">
                    <tspan x="0" y="59">19</tspan>
                </text>
                <text id="20">
                    <tspan x="0" y="74">20</tspan>
                </text>
                <text id="18">
                    <tspan x="0" y="43">18</tspan>
                </text>
            </g>
            <g id="Group-7" transform="translate(25.000000, 265.000000)">
                <text id="Haut-Sassandra-FR">
                    <tspan x="0" y="11">Haut Sassandra FR</tspan>
                </text>
                <text id="Azagny-NP">
                    <tspan x="0" y="27">Azagny NP</tspan>
                </text>
                <text id="Mabi-FR">
                    <tspan x="0" y="59">Mabi FR</tspan>
                </text>
                <text id="Yaya-FR">
                    <tspan x="0" y="74">Yaya FR</tspan>
                </text>
                <text id="Bossématié-FR">
                    <tspan x="0" y="43">Bossématié FR</tspan>
                </text>
            </g>
            <g id="Group-10" transform="translate(0.000000, 357.000000)">
                <text id="21">
                    <tspan x="0" y="11">21</tspan>
                </text>
                <text id="23">
                    <tspan x="0" y="43">23</tspan>
                </text>
                <text id="22">
                    <tspan x="0" y="27">22</tspan>
                </text>
            </g>
            <g id="Group-9" transform="translate(25.000000, 357.000000)">
                <text id="Banco-NP">
                    <tspan x="0" y="11">Banco NP</tspan>
                </text>
                <text id="N'Gadan-FR">
                    <tspan x="0" y="43">N'Gadan FR</tspan>
                </text>
                <text id="Ile-Ehotilé-NP">
                    <tspan x="0" y="26.8">Ile Ehotilé NP</tspan>
                </text>
            </g>
        </g>
        <polygon id="Path-2" stroke="#FFFAF0" points="562.734061 615.738959 561.684603 573.018643 577.201991 536.095865 577.201991 507.846326 543.4238 483.384921 543.4238 461.917117 509.484099 462.650434 479 442.356496 502.799194 419.982663 503.277636 391.159823 493.102426 358.016049 513.833274 358.58586 531.190106 312.037389 510.281503 307.550329 512.150419 284.188046 535.102371 285.058546 554.891286 295.747085 554.891286 263.913485 535.819399 263.1698 535.810067 245.552151 549.811156 238.216032 534.914649 226.728427 542.712597 213.753996 519.10508 213.90964 519.051288 164.491028 559.657437 129.621205 578.974554 129.243445 578.967909 152.186084 612.644948 152.186084 612.644948 135.890796 628.838898 135.829985 643.914559 109 670.624685 109 670.624685 150.921011 689.428294 150.921011 701.963794 131.614716 726.748508 131.614716 739.164756 146.062684 760.103262 145.815156 784.912501 185.168716 821.36218 200.296138 849.478985 180.302889 865.348553 169.046645 914.017228 169.046645 952.02683 211.21227 971.103064 307.317753 933.794514 356.736879 932.053515 387.360524 909.194594 433.138171 932.694761 515.284096 949.140311 518.098334 951.68461 556.096241 932.105155 561.10224 864.816093 548.750678 740.593436 556.059271 709.577811 560.371771 674.230155 572.379584 635.835624 586.512396 604.261405 600.47724 580.132499 615.35224"></polygon>
        <polygon id="Path-3" stroke="#FFFAF0" points="583.819999 395.025092 597.153007 395.025092 597.153007 409.10224 590.486503 415.768744 580.114677 405.396918"></polygon>
        <polygon id="Path-4" stroke="#FFFAF0" points="604.043632 374.75556 618.348319 374.75556 618.348319 392.760443 615.321952 392.760443 615.321952 415.768744 604.043632 415.768744 604.043632 392.760443 608.310233 386.066107 604.043632 382.552435"></polygon>
        <polygon id="Path-5" stroke="#FFFAF0" points="619.696952 330.04267 626.71746 330.04267 631.949882 339.778021 631.949882 355.953803 623.785819 368.942084 613.418632 368.942084 606.982108 365.759467 606.982108 362.369479 611.195975 359.104193 611.195975 336.756537 619.465995 336.756537"></polygon>
        <polygon id="Path-6" stroke="#FFFAF0" points="635.015311 355.203803 647.363944 355.203803 647.363944 364.892279 641.189628 368.942084 635.015311 368.942084"></polygon>
        <polygon id="Path-7" stroke="#FFFAF0" points="663.363944 376.986029 657.872733 376.986029 655.169608 380.986029 655.169608 386.339545 663.363944 386.339545"></polygon>
        <polygon id="Path-9" stroke="#FFFAF0" points="663.363944 372.250678 668.458671 372.250678 671.743827 374.75556 671.743827 379.478217 663.363944 379.478217"></polygon>
        <polygon id="Path-10" stroke="#FFFAF0" points="677.153007 341.851264 671.743827 341.851264 666.116874 349.492377 666.116874 357.092475 671.63494 363.88935 679.727225 363.88935 679.727225 355.203803 675.004569 355.203803 671.63494 349.492377"></polygon>
        <polygon id="Path-11" stroke="#FFFAF0" points="679.727225 383.20185 689.070975 383.20185 707.298515 404.083685 700.160819 409.805365 689.070975 404.083685 681.397147 412.738959 673.15789 412.778021 673.471366 393.096381 679.727225 389.856146"></polygon>
        <polygon id="Path-12" stroke="#FFFAF0" points="642.662772 270.316107 660.651054 270.316107 667.553886 276.809271 667.553886 287.373725 663.363944 290.459662 663.363944 294.590521 667.553886 298.996771 667.553886 302.887396 660.651054 307.211615 651.159843 298.996771 651.159843 294.590521 656.641288 290.459662 642.662772 283.7331"></polygon>
        <polygon id="Path-25" stroke="#FFFAF0" points="652.06414 350.738959 659.266776 350.738959 659.266776 360.340521 652.06414 360.340521"></polygon>
        <polygon id="Path-26" stroke="#FFFAF0" points="672.92205 415.768744 682.638358 415.768744 686.87078 422.947943 673.15789 430.409857 671.743827 426.794623"></polygon>
        <polygon id="Path-13" stroke="#FFFAF0" points="583.798515 549.146185 599.884452 549.146185 606.005546 555.060248 597.235038 578.547553 585.422538 578.547553 581.005546 571.580756 588.306327 560.955756 588.306327 555.060248"></polygon>
        <polygon id="Path-14" stroke="#FFFAF0" points="643.736991 574.030951 641.478202 584.09931 670.172538 574.030951 662.0866 563.846869 652.02703 573.97309"></polygon>
        <polygon id="Path-15" stroke="#FFFAF0" points="663.544608 517.219428 670.172538 517.219428 674.640311 512.675482 679.903007 512.675482 679.903007 517.219428 674.640311 522.53681 684.975272 522.53681 684.975272 535.134467 679.903007 535.134467 679.903007 558.049506 674.640311 558.049506 674.640311 545.134467 658.787772 524.509467"></polygon>
        <polygon id="Path-16" stroke="#FFFAF0" points="684.975272 547.351264 692.010429 543.426459 692.010429 552.26142 688.49285 553.933295 684.975272 553.933295"></polygon>
        <polygon id="Path-17" stroke="#FFFAF0" points="734.171561 548.679877 729.994804 551.69306 730.171561 557.388373 743.385429 555.925482 769.395194 554.506537 769.573905 546.373725 743.500663 546.373725"></polygon>
        <polygon id="Path-18" stroke="#FFFAF0" points="773.609061 546.373725 773.609061 554.009467 786.062186 553.211615 786.062186 546.373725 779.835624 541.527045"></polygon>
        <polygon id="Path-19" stroke="#FFFAF0" points="789.619804 543.006537 789.619804 553.009467 865.363291 548.908648 872.676444 550.313178 872.763358 541.527045 869.046561 532.575873 863.241874 532.575873 863.241874 536.063178 866.605155 541.527045 859.246757 541.527045 855.525077 536.063178 851.786796 538.82392 809.723319 538.82392 806.295585 541.527045 801.834647 538.82392 798.973319 543.006537 796.614921 543.006537 796.614921 536.063178"></polygon>
        <polygon id="Path-20" stroke="#FFFAF0" points="844.763358 524.738959 842.128593 527.450873 842.128593 530.356146 847.442069 530.356146 847.442069 524.738959"></polygon>
        <polygon id="Path-21" stroke="#FFFAF0" points="909.6491 535.481146 921.0241 535.481146 921.0241 541.527045 915.3366 545.251654 915.3366 549.32392 932.634452 555.63935 932.634452 549.32392 943.550468 549.32392 945.187186 557.579779 932.634452 560.682318 902.945975 555.63935 902.945975 547.768256"></polygon>
        <polygon id="Path-22" stroke="#FFFAF0" points="886.18035 477.38056 896.87078 477.38056 900.234061 484.778021 893.207206 492.928412 893.207206 501.82392 886.18035 501.82392 882.037772 496.127631 872.763358 496.127631 872.763358 484.778021 886.18035 484.778021"></polygon>
        <polygon id="Path-23" stroke="#FFFAF0" points="881.106132 504.462592 891.478202 504.462592 878.22869 517.712103 867.37078 517.712103 867.37078 508.557318 878.22869 508.557318"></polygon>
        <polygon id="Path-24" stroke="#FFFAF0" points="886.49871 443.007514 893.880546 443.007514 896.87078 447.265326 896.87078 454.392279 893.880546 456.530951 888.511405 456.530951 886.49871 452.611029 881.694999 452.611029 881.694999 449.769232"></polygon>
        <text id="1" font-family="Courier" font-size="12" font-weight="normal" fill="#FFFAF0">
            <tspan x="651.270194" y="282.738959">1</tspan>
        </text>
        <text id="2" font-family="Courier" font-size="12" font-weight="normal" fill="#FFFAF0">
            <tspan x="618.270194" y="354.738959">2</tspan>
        </text>
        <text id="3" font-family="Courier" font-size="12" font-weight="normal" fill="#FFFAF0">
            <tspan x="633.37078" y="382.738959">3</tspan>
        </text>
        <text id="4" font-family="Courier" font-size="12" font-weight="normal" fill="#FFFAF0">
            <tspan x="651.37078" y="343.738959">4</tspan>
        </text>
        <text id="5" font-family="Courier" font-size="12" font-weight="normal" fill="#FFFAF0">
            <tspan x="683.270194" y="362.738959">5</tspan>
        </text>
        <text id="6" font-family="Courier" font-size="12" font-weight="normal" fill="#FFFAF0">
            <tspan x="655.270194" y="397.738959">6</tspan>
        </text>
        <text id="9" font-family="Courier" font-size="12" font-weight="normal" fill="#FFFAF0">
            <tspan x="606.270194" y="402.738959">9</tspan>
        </text>
        <text id="10" font-family="Courier" font-size="12" font-weight="normal" fill="#FFFAF0">
            <tspan x="582.669608" y="390.738959">10</tspan>
        </text>
        <text id="11" font-family="Courier" font-size="12" font-weight="normal" fill="#FFFAF0">
            <tspan x="655.669608" y="511.738959">11</tspan>
        </text>
        <text id="12" font-family="Courier" font-size="12" font-weight="normal" fill="#FFFAF0">
            <tspan x="694.669608" y="548.738959">12</tspan>
        </text>
        <text id="13" font-family="Courier" font-size="12" font-weight="normal" fill="#FFFAF0">
            <tspan x="638.669608" y="565.738959">13</tspan>
        </text>
        <text id="22" font-family="Courier" font-size="12" font-weight="normal" fill="#FFFAF0">
            <tspan x="606.669608" y="565.738959">22</tspan>
        </text>
        <text id="14" font-family="Courier" font-size="12" font-weight="normal" fill="#FFFAF0">
            <tspan x="689.669608" y="579.738959">14</tspan>
        </text>
        <text id="15" font-family="Courier" font-size="12" font-weight="normal" fill="#FFFAF0">
            <tspan x="727.669608" y="541.738959">15</tspan>
        </text>
        <text id="16" font-family="Courier" font-size="12" font-weight="normal" fill="#FFFAF0">
            <tspan x="772.669608" y="533.738959">16</tspan>
        </text>
        <text id="17" font-family="Courier" font-size="12" font-weight="normal" fill="#FFFAF0">
            <tspan x="828.669608" y="524.738959">17</tspan>
        </text>
        <text id="23" font-family="Courier" font-size="12" font-weight="normal" fill="#FFFAF0">
            <tspan x="876.669608" y="543.738959">23</tspan>
        </text>
        <text id="18" font-family="Courier" font-size="12" font-weight="normal" fill="#FFFAF0">
            <tspan x="924.669608" y="541.738959">18</tspan>
        </text>
        <text id="19" font-family="Courier" font-size="12" font-weight="normal" fill="#FFFAF0">
            <tspan x="890.669608" y="516.738959">19</tspan>
        </text>
        <text id="20" font-family="Courier" font-size="12" font-weight="normal" fill="#FFFAF0">
            <tspan x="896.669608" y="498.738959">20</tspan>
        </text>
        <text id="21" font-family="Courier" font-size="12" font-weight="normal" fill="#FFFAF0">
            <tspan x="882.669608" y="437.738959">21</tspan>
        </text>
        <text id="7" font-family="Courier" font-size="12" font-weight="normal" fill="#FFFAF0">
            <tspan x="682.270194" y="400.738959">7</tspan>
        </text>
        <text id="8" font-family="Courier" font-size="12" font-weight="normal" fill="#FFFAF0">
            <tspan x="682.270194" y="439.738959">8</tspan>
        </text>
        <polygon id="Path-27" stroke="#FFFAF0" points="681.288749 570.085639 679.669608 563.846869 697.794608 553.933295 706.672538 553.933295 706.672538 561.009467"></polygon>
        <text id="Cocoa-farming-and-fo" font-family="Gopher-Bold, Gopher" font-size="22" font-weight="bold" fill="#FFFAF0">
            <tspan x="62" y="81">Cocoa farming and forest </tspan>
            <tspan x="62" y="108">degradation inside </tspan>
            <tspan x="62" y="135">protected areas</tspan>
        </text>
        <text id="Graph-on-the-right-s" font-family="Courier" font-size="12" font-weight="normal" fill="#FFFAF0">
            <tspan x="62" y="163">Graph on the right side indicates 23 </tspan>
            <tspan x="62" y="177">protected areas surveyed in the report </tspan>
            <tspan x="62" y="191">which were originally selected based </tspan>
            <tspan x="62" y="205">on the likelihood that they contained </tspan>
            <tspan x="62" y="219">two primate taxa…</tspan>
        </text>
    </g>
</svg>